<svg xmlns="http://www.w3.org/2000/svg" viewBox="0 0 41.4 32.9">
  <path d="M5.7 17.4s0 .1.1.1.3.1.6.2c.4.2.8.3 1 .4.3.1.5.4.9 1.6 0 .1.1.3.1.4.4 1.2 1 3.2 3.9 5.4 3.4 2.7 6.6 3.1 9.7 3.5 2.6.3 5 .7 7.3 2.4.3.2.6.3.9.3h.7c.2 0 .3.1.5.2.9.7 1.7 1 2.4 1s1.2-.3 1.6-.6c.2-.1.3-.2.5-.2s.3.1.4.1c.2.1.3.1.4.1.2 0 .3-.1.5-.3.2-.1.2-.2.2-.4-.1-.7-2-1.6-6.1-3.3-3.4-1.4-7.2-4.3-8.3-5.4h.5c2.7 0 5.8-3.3 7.4-5.2 2.3-2.7 3.9-5.4 3.9-6v-.1h-.2c-.1.1-.3.2-.4.2.3-.3.8-.7 1.4-1.2l.5-.4c.2-.1.2-.2.2-.3 0 0 0-.1-.1-.1-.2 0-.5.1-1.1.4-1.5.6-4.4 1.7-7.4 2.2-1.8.3-3.5 1-4.7 1.5.4-.4.8-.7.9-.9.3-.5.2-.9.1-1.3-.1-.1-.1-.3-.1-.4 0-.2.1-.3.3-.5.2-.1.4-.3.5-.7.1-.6-.2-.8-.4-1-.2-.2-.3-.3-.3-.5s.1-.4.3-.6c.1-.2.3-.4.3-.8-.1-.3-.2-.5-.4-.7-.1-.1-.3-.3-.3-.6-.1-.2 0-.4.1-.6.1-.2.2-.4.1-.8s-.3-.6-.5-.8c-.2-.2-.4-.3-.5-.6-.1-.2-.2-.7-.2-1.1-.1-.8-.2-1.8-.7-2h-.1c-.3 0-.5.3-.8.5 0 .1-.1.2-.1.3s-.1.2-.1.3c-.3.8-.6 1.6-1.1 2.3-.1.2-.2.3-.4.5-.1.1-.2.3-.3.4-.2.3-.6.6-.9.9-1.3 1.3-3 3-3.8 5-.5 1.3-.4 2.9-.4 4.3.1.8.1 1.7 0 2.3 0 .2-.2.3-.4.3h-.2c-.2 0-.4-.3-.7-.7-.5-.6-1.2-1.5-2.5-1.9-.2-.1-.5-.1-.7-.1-1.4 0-2.1 1.4-2.4 2 0 .1-.1.2-.1.2-.2.3-.8.5-1 .6-.3.1-.3.2-.5.2z" fill="#0473c0"/>
</svg>
