<svg xmlns="http://www.w3.org/2000/svg" viewBox="0 0 41.4 32.8">
  <path d="M4.6 3c0 .5.8 1.3 1.3 1.3s.7-.6 1.8-.6c1.9 0 2.6 3.2 3.2 6.4.6 3.1 4.4 6.4 5.3 7.5.9 1.1 1.6 4.2 1.7 5.1 0 .9-.2 2.6.1 3.2s.5 2 .4 3.5c-.3.3-.4 1.1-.2 1.7-2.9 2-.7 1.6.9 1.6s1.2-.5 1-1.6c-.4-1.6-.1-4.6-.1-4.6s.5-1 .5-1.7-.6-1.7-.6-3.3.7-3.3 1-3.4c.3-.2 2.5.7 5.3-.1s4.2-2.1 4.2-1.9c.8 3 2.1 3.9 3.1 4.8 1 .9.7 3.7.7 3.7s-.9 3.2-1.5 4.8c-.2.2-.7.9-.6 1.5-1.7.9-2.1 1.8-1 1.8h1.6c1.6 0 1.1-1 1-1.5.5-.3.6-.7.7-1.5 0 0 1.4-4.3 2-6.1.6-1.8.4-2.3.4-2.3s-1.2-2.5-1.6-3.9c-.4-1.5.1-2.8 0-4.2.9 1.4 1 3.6 1.3 6.1 1.1-5.1-1.3-7.3-1.3-7.3-.2-2.5-1.8-2.9-2.7-3.1-4.1-.4-5.5-3.6-7.3-3.5-2.9.1-3.9 2.6-5.3 2.6h-1.2c-1.2 0-2.2 2.6-3.6 2.6s-2.8-6.1-3.2-8.3c1.9-3.2.6-2.4-.4-1.7-.9-.3-2-.2-2.5-.2-1.1.1-1.2 1.4-2.3 1.5-2.1 0-2.2.9-2.1 1.1z" fill="#0473c0"/>
</svg>
