<svg xmlns="http://www.w3.org/2000/svg" viewBox="0 0 41.4 32.8">
  <path d="M35.3 9.1c-1.7 0-3-1.4-3-3V0H19.8c-1.7 0-3 1.4-3 3v4.2c-2.7 0-5.4.3-8 .7-.4.2-.8.5-1 .9 0 0-1.6 3-2.9 5.6 0-.3-.1-.6-.2-.8 0-.2-.2-.4-.6-.4H.9c-.2 0-.5.2-.7.4-.3.7-.3 1.7 0 2.4.1.2.3.4.7.4h3.2v.1c-.7.2-1.2.8-1.2 1.6v10.7c0 .4.3.8.7.8h3.9c.4 0 .7-.3.7-.8v-1.9h8.5v2.8c0 1.7 1.4 3.1 3.1 3.1h18.5c1.7 0 3-1.3 3-3V9.1h-6zM6.1 21.3v-2.2h4.8l1.4 2.2H6.1zm10.7-4.9h-10l2.7-6.7s1.8-.5 7.2-.5v7.2zm18.5 10.2h-6.2c-.5 0-1-.4-1-1 0-.5.4-1 1-1h6.2c.6 0 1 .5 1 1-.1.6-.5 1-1 1zm0-4.1h-6.1c-.5 0-1-.4-1-.9s.4-1 1-1h6.2c.6 0 1 .5 1 1-.2.5-.6.9-1.1.9zm0-4.1H22.9c-.5 0-1-.5-1-1s.5-.9 1-.9h12.3c.5 0 1 .4 1 .9.1.5-.4 1-.9 1zm0-4.1H23c-.5 0-1-.4-1-.9s.4-1 1-1h12.3c.5 0 1 .4 1 .9s-.5 1-1 1zm5.8-7.8L34.9.3c-.1-.2-.4-.3-.6-.3h-.1v6.1c0 .6.5 1.1 1.1 1.1h6.1v-.1c0-.2-.1-.5-.3-.6z" fill="#0473c0"/>
</svg>
