<svg xmlns="http://www.w3.org/2000/svg" viewBox="0 0 41.4 32.8">
  <path d="M5 7.2c-.7 1.9-1.8 3-1.6 5.5.5 4.3 1.8 8.4 5.7 9.2.7.1 1.3.5 1.8 1.1 1 1.3 1.8 3.1 3.3 3.6.3.1.5.5.5.8 0 .5-.1 1.2-.2 1.7 0 .3-.2.5-.5.6l-3 1c-.3.1-.5.4-.4.8.1.3.5.5.8.4l3.3-.7c.2 0 .5.1.7.3l.9 1.1c.1.1.3.2.5.2.1 0 .3-.1.4-.2.3-.2.3-.6.1-.9l-.2-.2v-.2c.1-.1.1-.1.2-.1l2.2.2c.3 0 .7-.2.7-.6.1-.3-.2-.6-.5-.7l-2.3-.5c-.2 0-.4-.2-.5-.4s-.1-.5 0-.7c.3-.7.7-1.5.8-1.7 1.7-3.8 5.1-2.1 7.4-4.4.8-.8 1-2.1 1.9-2.9.6-.6.1-.7-.3-.6.3-.3 2.2-2.3 1.7-2.9 0 0 3.6-2.8 3.7-3.7 0-.4-.8-.3-1.8-.1-.1 0-.2 0-.2-.1s0-.2.1-.2c1.2-.6 2.5-1.2 2.8-1.5 1.4-1.1 0-1.1-1.3-.8-.1 0-.2 0-.2-.1s0-.2.1-.2c1.6-.6 3.7-1.6 4.1-2.4.6-1.3-4.2-2.5-4.2-2.5-.9-.3-1.6-1.4-2.4-1.5-1.7-.2-2.5 2.8-3.5 3.8-1.9 1.9-6 5.3-9.6 5.1-3-.2-4.6-4.2-5.2-6-.5-1.7-1.7-2.9-3.6-3.2 0-.5.4-3.3-.3-2-.4.8-.9 1.4-1.1 1.3-.4-.1-.8-2.2-1-1.9-.3.5 0 1.6-.2 1.8-.1.2-1.2-.9-1.2-.5-.1.5.2 2.1.4 2.3-.4.9-2 1.4-1.9 2.7 1.2-.6 2.1.5 3.1.9zm.7-2.8c0-.3.2-.5.5-.5s.5.2.5.5-.2.5-.5.5-.5-.3-.5-.5z" fill="#0473c0"/>
</svg>
