<svg xmlns="http://www.w3.org/2000/svg" viewBox="0 0 41.4 32.8">
  <path d="M10.9 13.4l-5 .7 4.6-1.9c.1-.1.3-.2.4-.1.1 0 .1.1.2.2l.2.7c.1.2-.1.5-.4.4zM10.8 9l-.6-.6c-.1 0-.2-.1-.3-.1-.2 0-.3.1-.5.4l-3.7 4.9 4.9-3.8c.3-.2.5-.5.2-.8zM0 10.2v16.2c0 .5.4.9.9.9h1.3c.5 0 .9-.4.9-.9V10.1c0-.5-.4-.9-.9-.9H.9c-.5 0-.9.4-.9 1zm7-2.4l-1.9 4.6 3-4c.3-.3.3-.6.1-.6l-.6-.3c-.1-.1-.1-.1-.2-.1s-.3.1-.4.4zm.2 8.2l6.9-1.5 3.5-5.4c.6-1.1 1.6-1.7 2.6-1.7l14.4-.1c1 0 2.2.7 2.7 1.7l3.7 7.4c.3.7.4 1.3.4 2v4.2c0 .9-.2 1.5-1.6 1.5h-1.9c-.1 1.8-1.7 3.3-3.6 3.3-1.9 0-3.5-1.4-3.6-3.3h-13c-.1 1.8-1.7 3.3-3.6 3.3s-3.4-1.4-3.6-3.3H6.8c-.9 0-1.7-.5-1.7-1.5v-4.4c.1-.9.4-2 2.1-2.2zm27 9.8c1 0 1.9-.9 1.9-1.9s-.8-1.9-1.9-1.9c-1 0-1.9.9-1.9 1.9s.9 1.9 1.9 1.9zM28.5 9.3v5.1h8.6l-1.7-3.7c-.4-1-.8-1.3-1.6-1.4h-5.3zM17 14.5h9.1V9.4h-4.8c-.9 0-1.6.6-2 1.3L17 14.4v.1zm-2.9 11.3c1 0 1.9-.9 1.9-1.9s-.9-1.9-1.9-1.9-1.9.9-1.9 1.9.8 1.9 1.9 1.9z" fill="#0473c0"/>
</svg>
