<svg xmlns="http://www.w3.org/2000/svg" viewBox="0 0 41.4 32.8">
  <path d="M31.7 15.5c.1 1.6-.3 3.2-.9 4.8-.4 1.1-.6 2.2-.6 3.4 0 .5 0 1.1-.1 1.6-.2 1-.4 2.1-.7 3.1-.2.8-.4 1.6-.7 2.4-.3.7-.7 1-1.4 1.1-.6.1-1.2.1-1.8.1-.1 0-.1-.1-.2-.1-.3-.1-.4-.3-.3-.6.1-.5.4-.8.8-1 .7-.3 1-.9 1.1-1.6.1-.8.1-1.7.1-2.6 0-1.4-.4-2.7-1.2-3.8-.7-1-1.3-2.2-1.4-3.5-.1-.4-.3-.6-.8-.4-.1 0-.1.1-.2.1-2.1.8-4.3 1.5-6.5 2-.9.1-1.8.2-2.6.3 0 .9.1 1.9.1 2.9-.1 2-.1 4 .3 6 .1.5-.1 1-.4 1.4-.7.9-2.4 1.2-3.4.7-.3-.2-.4-.4-.3-.8.1-.5.4-.8.9-1 .4-.2.6-.5.6-1 0-1.8-.2-3.6-.6-5.3-.2-1-.5-2.1-1.1-3-.5-.8-.9-1.6-1.4-2.4-.4-.8-.7-1.6-.9-2.5-.2-1.1-.6-2-1-3-.4-.9-.8-1.9-1.1-2.9-.3-.9-.4-1.8-.6-2.7-.1 0-.3.1-.5 0-.7-.3-1.4-.1-2.1 0C1.7 7.4.6 6.6.3 5.5c0-.1-.1-.3-.2-.4-.3-.4-.1-1 .4-1.1 1-.1 1.9-.5 2.7-1 .1 0 .2-.2.2-.1.1-.5.4-.9.8-1.2.7-.5 1.4-.8 2.2-.9.7-.1 1.4-.1 1.9.5.3-.4.7-.3 1.1-.1.7.3 1.4.8 1.8 1.5.6.8.7 1.6-.6 1.8v.1s.1.1.1.2C12 7.1 14 8.4 16.5 9c2.6.6 5.2.5 7.8.4 1-.1 2-.1 3 0 1.3.2 2.5.7 3.5 1.7.2.2.5.4.7.4.3.1.7 0 1 0 2.3-.3 4.4-1.2 6.2-2.7C40 7.8 41 6.5 41 4.7c0-.1.1-.3.2-.4h.1c0 .2.1.3.1.5.1 1.6-.4 3.1-1.2 4.4-1.3 2-3.1 3.2-5.2 4-1 .3-2 .5-3 .8 0 .5.1 1.1-.3 1.5z" fill="#0473c0"/>
</svg>
