<svg xmlns="http://www.w3.org/2000/svg" viewBox="0 0 41.4 32.8">
  <path d="M0 24.9v1.8c0 .5.4.9.9.9h3.3c.9 1.5 2.5 2.6 4.5 2.6s3.6-1 4.5-2.6h15.2c.9 1.5 2.5 2.6 4.5 2.6s3.6-1 4.5-2.6H39c.2 0 .4-.1.6-.3l1.7-1.7c.2-.2.3-.4.3-.6v-9.5c0-1.4-1.2-2.6-2.6-2.6-.3 0-.7.1-1 .2-.9-5.9-6-10.5-12.1-10.5H11.2c-.5 0-.9.4-.9.9s.4.9.9.9h.9V13h-4c-2.6 0-4.7 2.1-4.7 4.7v.5c-2 1.5-3.4 3.9-3.4 6.7zM20.7 13h-6.9V7.8h6.9V13zM31 13h-8.6V7.8H25c3 0 5.6 2.2 6 5.2zm.1 12c0-1 .8-1.7 1.7-1.7s1.7.8 1.7 1.7-.8 1.7-1.7 1.7-1.7-.7-1.7-1.7zM6.9 25c0-1 .8-1.7 1.7-1.7 1 0 1.7.8 1.7 1.7s-.8 1.7-1.7 1.7c-.9.1-1.7-.7-1.7-1.7zm-5.2.9v-1c0-3.7 3-6.8 6.8-6.8 2.4 0 4.7 1.3 5.9 3.4.9 1.6 2.7 2.6 4.5 2.6H25c.4 0 .7-.3.8-.7.9-3.4 3.4-5.4 6.9-5.4 3.7 0 6.7 2.9 6.9 6.6l-1.2 1.2h-.6c0-.3.1-.6.1-.9 0-2.9-2.3-5.2-5.2-5.2s-5.2 2.3-5.2 5.2c0 .3 0 .6.1.9h-14c0-.3.1-.6.1-.9 0-2.9-2.3-5.2-5.2-5.2s-5 2.5-5 5.3c0 .3 0 .6.1.9H1.7z" fill="#0473c0"/>
</svg>
