<svg xmlns="http://www.w3.org/2000/svg" viewBox="0 0 41.4 32.8">
  <path d="M31.1 15.3c-.3-1-.7-2-1.2-3-.9-1.9-2.1-3.8-3.4-5.5-1.6-2.1-3.5-3.5-6-4.3-.5-.2-1.3-.2-1.7-.5C17 .9 15 .3 12.8-.1c-2-.3-3.8.8-4.5 2.7 0 .1-.1.2-.1.3V3l-.1.3c0 .1-.1.3-.1.3s-.1 0-.1.1c-.5.4-.2 1.1 0 1.6.3.5.7 1 1.1 1.5.1.1.2.1.3.2.1 0 .2.1.3 0v-.2c0-.1-.1-.1-.1-.2s-.1-.1-.1-.2v-.2H10.1c.6 0 1.1-.1 1.7-.3 0 0 .1 0 .1-.1.1 0 .2-.1.2-.1h.1s.1.1.2.1l.6.3c.1.1.3.2.4.2l.2.2v.1c0 1.3.9 2.9 2.1 3.6.1.1.3.2.4.3l.4.4c.1.1.2.2.3.4.1.3.2.5.4.8.1.1.1.3.2.4.1.4.2.8.4 1.2 0 .1 0 .2-.2.2-.5 0-.9.1-1.3.4-.1.1-.3.1-.4.1-1.1-.3-2.2-.7-3.3-1-.7-.2-1 .9-.3 1.1.9.3 1.9.6 2.8.8.1 0 .2.1.2.1v.3c0 .2.1.3.3.4l.1.1h.1l.1-.1V16c.1.1.1 0 .1 0 .1-.1.2-.2.3-.1.1 0 .2.2.2.3 0 .1 0 .1.1.2 0 .1.1.3.2.4l.1.1c.1.1.2.1.3.1H17.5s.2-.1.2-.2-.2-.3-.2-.4c0-.1 0-.2.2-.2 1.1.3 2.1.6 3.2 1h.2c.1 0 .2.1.2.2V17.7c.1.1.2.1.2.1s.1 0 .1-.1c.1-.1.1-.1.1-.2.1-.1.2-.2.3-.1.3.1.8.3 1.1.4.1 0 .2.2.2.3.2 1.9.5 3.8 1 5.7 0 0 0 .1.1.2.2.2.7.1.7-.3 0-.3 0-.5-.1-.8 0-.2-.1-.4 0-.5 0 0 .2-.3.2-.2v.1c0 .1 0 .2.1.3.2 1.5.5 3 1 4.5.6 1.8 1.3 3.4 2.7 4.8.1.1.3.3.5.4.1.1.2.1.3.1 0 0 .1-.1 0-.3 0-.1 0-.1-.1-.2-.4-.6-1.9-3.2-1.1-3.8.1-.1.2-.1.2-.1.1 0 .2.2.2.2v.1c.4 1.2.8 2.4 1.6 3.4l.9.9c.1.1.2.1.3.1.1 0 .1-.2 0-.3 0-.1-.1-.2-.1-.2-1.7-2.7-2.5-5.6-2.9-8.7-.1-2.6-.3-5.1-.4-7.7 0-.1.1-.2.2-.1 1.1.6 2.1 1.3 3.1 2.1.1.1.1.1.1-.1-.4-.5-.6-2-.7-2.4zm-10.6-.7c-.1.2-.2.4-.4.5-.1.1-.3.2-.4.2-.1 0-.1 0-.2.1-.1 0-.3.1-.3.1l-.1-.1s0-.1.1-.2c0 0 0-.1.1-.1.1-.2.3-.4.4-.6.1-.1.1-.2.2-.3.1-.1.1-.2.1-.3v-.1l.4-.5c.1-.1.1-.2.2-.2v1.1c0 .1 0 .3-.1.4zm2.4 2c-.2-.1-.4-.1-.6-.2-.1 0-.3-.2-.4-.2-.1-.1-.1-.2 0-.3.2-.3.3-.5.5-.8.1-.1.1-.2.1-.2.1-.1.1-.3.2-.4 0-.1.1-.3.2-.4 0-.1.1-.1.1-.2s.1-.2.1-.2v.2c0 .9 0 1.8.1 2.6-.1 0-.2.1-.3.1z" fill="#0473c0"/>
</svg>
