<svg xmlns="http://www.w3.org/2000/svg" viewBox="0 0 41.4 32.8">
  <path d="M30.5 19.7c-.7 0-1.1.2-1.6.2l-4.8-4.8 3.9-3.9 5.1-1.8 3.8-6.1c.2-.3.2-.8 0-1l-2-2c-.3-.3-.8-.3-1.1-.1l-6.2 3.6-2 5.2-3.9 4-4.4-4.8c0-.5.2-1 .2-1.6 0-4.3-4.1-7.4-8.2-6.4l2.5 2.5C13 4 13 5.9 11.7 7.2s-3.3 1.3-4.6 0L4.5 4.9c-1.3 4.8 3.1 9.3 8 7.9l4.8 4.8-2 2c-1.1-.3-2.3 0-3.1.8L5.5 27c-1.3 1.3-1.5 3.3-.3 4.6 1.3 1.5 3.4 1.5 4.8.2l6.9-6.9c.8-.8 1.1-2.1.8-3.1l2-2 4.8 4.8c-.2.5-.2 1.1-.2 1.6 0 4.3 4.1 7.4 8.2 6.4L30 30.1c-1.3-1.3-1.3-3.3 0-4.6 1.3-1.3 3.3-1.3 4.6 0l2.5 2.5c1-4.2-2.3-8.3-6.6-8.3z" fill="#0473c0"/>
</svg>
