<svg xmlns="http://www.w3.org/2000/svg" viewBox="0 0 41.4 32.8">
  <path d="M4.3 13.1c1.1-.4 2.3-.6 3.6-.6 5 0 9.2 3.6 10.1 8.3.2.8.2 1.6.2 2.4h5.2c0-.7.1-1.5.2-2.2.9-4.8 5.1-8.4 10.1-8.4 1.3 0 2.6.3 3.7.7.9-.3 1.5-1.2 1.4-2.2-.2-1.1-1.2-1.8-2.3-1.6L25.9 11c-.6.1-1.1.4-1.4.9l-2.3 3.8h-4.1l-1.3-4.9c-.3-1-1.1-1.7-2.1-1.8L12 8.7l1.3-3.2 3.4.4c.7.1 1.2-.4 1.3-1 .1-.7-.4-1.2-1-1.3l-4.3-.5c-.5-.1-1 .2-1.2.7L9.8 8.5l-1.4-.1c-1.1-.1-2.1.4-2.5 1.4l-1.6 3.3zM.1 22.9c0 4.3 3.5 7.8 7.8 7.8 2.5 0 4.8-1.2 6.2-3.1h13.3c1.4 1.9 3.7 3.1 6.2 3.1 4.3 0 7.8-3.5 7.8-7.8s-3.5-7.8-7.8-7.8-7.8 3.5-7.8 7.8c0 .7.1 1.3.3 2H15.4c.2-.6.3-1.3.3-2 0-4.3-3.5-7.8-7.8-7.8S.1 18.6.1 22.9zm31 0c0-1.4 1.2-2.6 2.6-2.6 1.4 0 2.6 1.2 2.6 2.6s-1.2 2.6-2.6 2.6c-1.4 0-2.6-1.2-2.6-2.6zm-25.8 0c0-1.4 1.2-2.6 2.6-2.6s2.6 1.2 2.6 2.6-1.2 2.6-2.6 2.6-2.6-1.2-2.6-2.6z" fill="#0473c0"/>
</svg>
