<svg viewBox="0 0 30 17" fill="none" xmlns="http://www.w3.org/2000/svg">
<g clip-path="url(#clip0_332_4)">
<path d="M4.43506 5.49185L4.92784 8.0379H5.91341H7.39177H8.87012H10.3485H11.8268H13.798H15.2763V7.01948L14.7835 6.00106L14.2908 5.49185L13.3052 4.98264H11.8268H9.8557H7.88455H6.4062L4.43506 5.49185Z" fill="#DEDFE0"/>
<path d="M8.37736 8.0379L4.92786 8.54711L3.94229 9.05633L2.46394 10.0747L0.985583 11.6024L0.492798 13.13L1.97115 13.6392L4.92786 13.13L5.42065 11.6024L6.899 10.584H7.88457H8.87014L9.85571 11.6024L10.8413 12.6208V13.6392H11.8269H16.2619H19.7114L22.6681 13.13L24.6393 11.0932L25.6248 10.584L26.6104 10.0747L27.1032 8.54711L26.1176 8.0379H8.37736Z" fill="white"/>
<path d="M1.37982 16.2871C1.37982 16.4765 2.84537 16.6578 5.45023 16.7912C8.05509 16.9246 11.5923 17 15.2764 17C18.9604 17 22.4976 16.9246 25.1025 16.7912C27.7074 16.6578 29.1729 16.4765 29.1729 16.2871C29.1729 16.0977 27.7074 15.9164 25.1025 15.783C22.4976 15.6496 18.9604 15.5742 15.2764 15.5742C11.5923 15.5742 8.05509 15.6496 5.45023 15.783C2.84537 15.9164 1.37982 16.0977 1.37982 16.2871Z" fill="#DEDFE0"/>
<path d="M23.6537 13.8429C23.6537 13.1677 23.9139 12.52 24.3751 12.0423C24.8374 11.5657 25.4642 11.2968 26.1176 11.2968C26.771 11.2968 27.3979 11.5657 27.8601 12.0423C28.3213 12.52 28.5815 13.1677 28.5815 13.8429C28.5815 14.5181 28.3213 15.1658 27.8601 15.6435C27.3979 16.1201 26.771 16.389 26.1176 16.389C25.4642 16.389 24.8374 16.1201 24.3751 15.6435C23.9139 15.1658 23.6537 14.5181 23.6537 13.8429Z" fill="#053361"/>
<path d="M26.019 12.5189C26.8075 12.5189 27.3988 13.13 27.3988 13.9447C27.3988 14.7595 26.8075 15.3705 26.019 15.3705C25.2306 15.3705 24.6392 14.7595 24.6392 13.9447C24.7378 13.13 25.3291 12.5189 26.019 12.5189ZM26.019 12.1116C25.0335 12.1116 24.245 12.9263 24.245 13.8429C24.245 14.8613 25.0335 15.6761 25.9205 15.6761C26.8075 15.6761 27.6945 14.8613 27.6945 13.9447C27.793 12.9263 27.0046 12.1116 26.019 12.1116Z" fill="white"/>
<path d="M25.132 13.8429C25.132 14.454 25.5263 14.8613 26.1176 14.8613C26.709 14.8613 27.1032 14.454 27.1032 13.8429C27.1032 13.2319 26.709 12.8245 26.1176 12.8245C25.5263 12.8245 25.132 13.3337 25.132 13.8429Z" fill="white"/>
<path d="M9.8557 11.8061C9.36292 11.195 8.57446 10.8895 7.88456 10.8895C7.19466 10.8895 6.60332 11.195 6.11054 11.6024C5.42064 12.1116 5.12497 12.9263 5.02641 13.8429H4.92785H0.394228C0.197114 13.8429 0 13.7411 0 13.5374C0 13.4355 0.098557 13.2319 0.197114 13.13C0.295671 13.0282 0.394228 12.9263 0.492785 12.8245C0.591342 12.519 0.689899 12.2134 0.788456 11.8061C0.492785 11.8061 0.492785 11.6024 0.492785 11.3987C0.492785 11.195 0.492785 10.9913 0.492785 10.7876C0.492785 10.584 0.591342 10.584 0.788456 10.584C0.788456 10.7876 0.98557 10.8895 1.08413 10.9913C1.08413 10.9913 1.08413 10.9913 1.18268 10.8895C1.97114 9.66737 3.15382 8.75079 4.53362 8.24158C4.73074 8.13974 4.73074 8.0379 4.73074 7.93606C4.63218 7.52869 4.43507 7.01948 4.23795 6.61211C4.1394 6.30658 3.84372 5.89921 3.84372 5.69553C3.94228 5.39 5.02641 4.98263 5.61775 4.88079C7.09611 4.47342 8.67302 4.37158 10.1514 4.57526C11.7283 4.6771 13.2066 4.88079 14.685 5.28816C14.8821 5.28816 14.9807 5.39 14.9807 5.59368C15.1778 6.20474 15.3749 6.71395 15.4735 7.325C15.4735 7.52869 15.6706 7.93606 15.8677 7.93606H25.9205C26.6104 7.93606 26.9061 7.93606 27.1032 8.54711C27.1032 8.64895 27.1032 9.15816 27.1032 9.26001C27.1032 9.36185 27.1032 10.1766 27.3003 10.1766C27.3003 10.0747 27.2017 9.9729 27.2017 9.87106C27.1032 9.46369 27.3989 8.95448 27.7931 8.85264H27.8916C27.9902 8.85264 28.0888 8.95448 28.0888 8.95448C28.0888 9.36185 28.0888 9.87106 28.0888 10.2784C28.0888 10.3803 27.9902 10.3803 27.8916 10.4821C28.6801 11.195 28.6801 11.3987 29.2714 12.6208C29.5671 12.9263 29.5671 13.0282 29.7642 13.13C29.9613 13.2319 30.0599 13.3337 29.9613 13.5374C29.9613 13.7411 29.7642 13.8429 29.5671 13.8429H28.8772C28.5815 12.0097 27.596 10.9913 26.2162 10.8895C24.6393 10.7876 23.2595 12.0097 23.1609 13.6392V13.7411H10.7427C10.7427 13.0282 10.447 12.3153 9.8557 11.8061ZM7.88456 8.44527C6.11054 8.44527 4.04084 8.64895 2.66104 10.1766C1.97114 10.8895 1.47836 11.6024 1.28124 12.519C1.28124 12.7226 1.18268 12.9263 1.3798 13.13C1.67547 13.2319 2.95671 13.3337 3.35094 13.2319C5.12497 12.4171 5.02641 11.7042 5.51919 11.3987C6.01198 10.2784 9.65859 9.26001 11.2355 12.4171C11.2355 12.519 11.2355 12.519 11.2355 12.6208C11.2355 12.7226 11.2355 12.7226 11.2355 12.8245C11.3341 13.3337 11.3341 13.3337 11.9254 13.3337H16.7547C18.3316 13.2319 21.4854 13.5374 22.7667 12.6208C23.7522 12.0097 24.0479 10.8895 25.0335 10.6858C25.9205 10.584 26.6104 9.9729 26.8075 9.36185C26.8075 9.26001 27.0046 8.64895 26.8075 8.64895C26.1176 8.44527 13.798 8.44527 7.88456 8.44527ZM4.63218 5.89921C4.92785 6.61211 5.02641 7.22316 5.32208 7.93606L15.1778 7.83421C14.9807 7.325 14.685 6.00105 14.5864 5.89921C14.2908 5.28816 8.57446 4.26973 4.73074 5.59368C4.63218 5.69553 4.53362 5.79737 4.63218 5.89921ZM1.18268 11.195L1.08413 11.0932L0.788456 11.6024L0.887013 11.7042L1.18268 11.195Z" fill="#053361"/>
<path d="M0.887009 11.7042L1.08412 11.195V11.0932L0.788452 11.6024L0.887009 11.7042Z" fill="white"/>
<path d="M6.11053 13.8429C6.11053 12.8245 6.89899 12.0097 7.88456 12.0097C8.87013 12.0097 9.65859 12.8245 9.65859 13.8429C9.65859 14.8613 8.87013 15.6761 7.88456 15.6761C6.89899 15.6761 6.11053 14.8613 6.11053 13.8429ZM6.50476 13.8429C6.60332 14.6576 7.19466 15.1668 7.98312 15.1668C8.67302 15.065 9.1658 14.5558 9.26436 13.8429C9.26436 13.0282 8.67302 12.4171 7.98312 12.4171C7.19466 12.4171 6.50476 13.0282 6.50476 13.8429Z" fill="white"/>
<path d="M9.26433 13.9447C9.16577 14.7595 8.57443 15.2687 7.78597 15.2687C7.09607 15.1669 6.60329 14.6576 6.50473 13.9447C6.50473 13.13 7.09607 12.519 7.88453 12.519C8.67298 12.519 9.26433 13.13 9.26433 13.9447C9.26433 13.9447 9.26433 13.8429 9.26433 13.9447ZM6.89896 13.9447C6.89896 14.5558 7.29319 14.9632 7.88453 14.9632C8.47587 14.9632 8.8701 14.5558 8.8701 13.9447C8.8701 13.3337 8.47587 12.9263 7.88453 12.9263C7.39174 12.9263 6.89896 13.3337 6.89896 13.9447Z" fill="black"/>
<path d="M7.88456 12.8245C7.29321 12.8245 6.89899 13.2319 6.89899 13.8429C6.89899 14.454 7.29321 14.8613 7.88456 14.8613C8.4759 14.8613 8.87013 14.454 8.87013 13.8429C8.87013 13.2319 8.4759 12.8245 7.88456 12.8245Z" fill="white"/>
<path d="M5.42062 13.8429C5.42062 13.1677 5.68081 12.52 6.14206 12.0423C6.60429 11.5657 7.23112 11.2968 7.88455 11.2968C8.53798 11.2968 9.1648 11.5657 9.62704 12.0423C10.0883 12.52 10.3485 13.1677 10.3485 13.8429C10.3485 14.5181 10.0883 15.1658 9.62704 15.6435C9.1648 16.1201 8.53798 16.389 7.88455 16.389C7.23112 16.389 6.60429 16.1201 6.14206 15.6435C5.68081 15.1658 5.42062 14.5181 5.42062 13.8429Z" fill="#053361"/>
<path d="M7.88456 12.5189C8.67302 12.5189 9.26436 13.13 9.26436 13.9447C9.26436 14.7595 8.67302 15.3705 7.88456 15.3705C7.09611 15.3705 6.50476 14.6576 6.50476 13.8429C6.50476 13.13 7.19466 12.5189 7.88456 12.5189ZM7.88456 12.1116C6.89899 12.1116 6.11053 12.8245 6.11053 13.8429C6.11053 14.8613 6.80043 15.6761 7.786 15.6761C8.77157 15.6761 9.56003 14.9632 9.56003 13.9447C9.56003 12.9263 8.77157 12.1116 7.88456 12.1116Z" fill="white"/>
<path d="M6.89899 13.8429C6.89899 14.454 7.29321 14.8613 7.88456 14.8613C8.4759 14.8613 8.87013 14.454 8.87013 13.8429C8.87013 13.2319 8.4759 12.8245 7.88456 12.8245C7.29321 12.8245 6.89899 13.3337 6.89899 13.8429Z" fill="white"/>
</g>
<defs>
<clipPath id="clip0_332_4">
<rect width="30" height="17" fill="white"/>
</clipPath>
</defs>
</svg>
