<svg
    xmlns="http://www.w3.org/2000/svg"
    viewBox="0 0 31 17"
    id="vector">
    <path
        id="path"
        d="M 5.97 14.44 L 3.54 14.32 C 3.298 14.297 3.072 14.191 2.9 14.02 L 2.17 13.02 L 2.42 12.32 L 2.25 11.46 L 3.18 10.29 C 3.18 10.29 2.88 10.02 3.05 9.86 C 3.18 9.73 3.32 9.76 4.2 9.76 C 5.08 9.76 9.95 8.16 11.12 7.96 C 12.29 7.76 15.02 7.48 16.5 8.1 C 17.98 8.72 20.36 9.98 20.36 9.98 C 22.321 9.947 24.281 10.081 26.22 10.38 C 27.055 10.631 27.85 11.002 28.58 11.48 L 28.5 12.28 L 28.74 12.88 L 28.66 13.58 L 28.86 14.68 L 26.09 14.78"
        fill="#ffffff"/>
    <path
        id="path_1"
        d="M 26.1 15.03 C 26.034 15.03 25.97 15.004 25.923 14.957 C 25.876 14.91 25.85 14.846 25.85 14.78 C 25.85 14.714 25.876 14.65 25.923 14.603 C 25.97 14.556 26.034 14.53 26.1 14.53 L 28.57 14.43 L 28.42 13.63 C 28.416 13.603 28.416 13.577 28.42 13.55 L 28.49 12.91 L 28.27 12.38 C 28.257 12.341 28.254 12.3 28.26 12.26 L 28.33 11.59 C 27.649 11.169 26.916 10.84 26.15 10.61 C 24.237 10.324 22.304 10.197 20.37 10.23 C 20.332 10.229 20.294 10.218 20.26 10.2 C 20.23 10.19 17.88 8.93 16.42 8.33 C 15.02 7.73 12.37 7.99 11.18 8.2 C 10.7 8.28 9.55 8.6 8.34 8.97 C 6.987 9.408 5.603 9.745 4.2 9.98 L 3.83 9.98 C 3.646 9.975 3.463 9.981 3.28 10 C 3.301 10.029 3.324 10.056 3.35 10.08 C 3.397 10.122 3.426 10.181 3.432 10.244 C 3.438 10.307 3.419 10.37 3.38 10.42 L 2.52 11.5 L 2.67 12.25 C 2.678 12.293 2.674 12.338 2.66 12.38 L 2.46 12.96 L 3.12 13.88 C 3.246 13.976 3.394 14.037 3.55 14.06 L 5.99 14.18 C 6.056 14.183 6.119 14.212 6.163 14.261 C 6.208 14.309 6.232 14.374 6.229 14.44 C 6.227 14.506 6.198 14.569 6.149 14.614 C 6.101 14.659 6.036 14.682 5.97 14.68 L 3.55 14.56 C 3.221 14.541 2.912 14.394 2.69 14.15 C 2.455 13.813 2.215 13.48 1.97 13.15 C 1.945 13.116 1.929 13.076 1.924 13.034 C 1.919 12.992 1.924 12.949 1.94 12.91 L 2.18 12.28 L 2.02 11.48 C 2.014 11.445 2.015 11.409 2.023 11.375 C 2.032 11.34 2.048 11.308 2.07 11.28 L 2.87 10.28 C 2.805 10.193 2.767 10.088 2.76 9.98 C 2.759 9.922 2.77 9.865 2.793 9.811 C 2.815 9.758 2.848 9.71 2.89 9.67 C 3.07 9.49 3.23 9.49 3.84 9.49 L 4.21 9.49 C 5.564 9.237 6.9 8.896 8.21 8.47 L 11.11 7.69 C 12.45 7.46 15.11 7.23 16.63 7.85 C 17.98 8.41 20.08 9.52 20.45 9.71 C 22.415 9.66 24.38 9.794 26.32 10.11 C 27.181 10.37 28 10.754 28.75 11.25 C 28.785 11.277 28.812 11.312 28.83 11.352 C 28.847 11.392 28.854 11.436 28.85 11.48 L 28.78 12.23 L 29 12.77 C 29.016 12.808 29.023 12.849 29.02 12.89 L 28.94 13.56 L 29.14 14.61 C 29.146 14.645 29.145 14.681 29.137 14.715 C 29.128 14.75 29.112 14.782 29.09 14.81 C 29.069 14.839 29.042 14.863 29.011 14.88 C 28.98 14.898 28.946 14.908 28.91 14.91 L 26.13 15.01 Z"
        fill="#053361"/>
    <path
        id="path_2"
        d="M 4.71 16.19 C 4.71 16.341 5.911 16.486 8.046 16.593 C 10.181 16.7 13.08 16.76 16.1 16.76 C 19.12 16.76 22.019 16.7 24.154 16.593 C 26.289 16.486 27.49 16.341 27.49 16.19 C 27.49 16.039 26.289 15.894 24.154 15.787 C 22.019 15.68 19.12 15.62 16.1 15.62 C 13.08 15.62 10.181 15.68 8.046 15.787 C 5.911 15.894 4.71 16.039 4.71 16.19 Z"
        fill="#dedfe0"/>
    <path
        id="path_3"
        d="M 7.95 13.88 M 5.89 13.88 C 5.89 13.334 6.107 12.81 6.493 12.423 C 6.88 12.037 7.404 11.82 7.95 11.82 C 8.496 11.82 9.02 12.037 9.407 12.423 C 9.793 12.81 10.01 13.334 10.01 13.88 C 10.01 14.315 9.872 14.739 9.617 15.091 C 9.361 15.443 9 15.705 8.587 15.839 C 8.173 15.974 7.727 15.974 7.313 15.839 C 6.9 15.705 6.539 15.443 6.283 15.091 C 6.028 14.739 5.89 14.315 5.89 13.88"
        fill="#dedfe0"/>
    <path
        id="path_4"
        d="M 7.95 16.2 C 7.342 16.197 6.759 15.954 6.33 15.523 C 5.901 15.092 5.66 14.508 5.66 13.9 C 5.66 13.292 5.901 12.708 6.33 12.277 C 6.759 11.846 7.342 11.603 7.95 11.6 C 8.558 11.597 9.143 11.836 9.576 12.263 C 10.009 12.69 10.255 13.272 10.26 13.88 C 10.26 14.491 10.018 15.077 9.587 15.51 C 9.156 15.943 8.571 16.187 7.96 16.19 Z M 7.95 12.08 C 7.473 12.083 7.017 12.274 6.681 12.613 C 6.346 12.952 6.158 13.41 6.16 13.887 C 6.162 14.363 6.353 14.82 6.691 15.156 C 7.029 15.492 7.487 15.681 7.963 15.68 C 8.44 15.679 8.897 15.489 9.234 15.152 C 9.571 14.814 9.76 14.357 9.76 13.88 C 9.757 13.404 9.567 12.947 9.23 12.61 C 8.893 12.273 8.436 12.083 7.96 12.08 Z"
        fill="#053361"/>
    <path
        id="path_5"
        d="M 7.95 13.88 M 6.77 13.88 C 6.769 13.63 6.848 13.387 6.994 13.184 C 7.14 12.982 7.347 12.832 7.585 12.754 C 7.822 12.677 8.078 12.677 8.315 12.754 C 8.553 12.832 8.76 12.982 8.906 13.184 C 9.052 13.387 9.131 13.63 9.13 13.88 C 9.13 14.193 9.006 14.493 8.784 14.714 C 8.563 14.936 8.263 15.06 7.95 15.06 C 7.637 15.06 7.337 14.936 7.116 14.714 C 6.894 14.493 6.77 14.193 6.77 13.88"
        fill="#ffffff"/>
    <path
        id="path_6"
        d="M 7.06 13.12 C 7.162 12.999 7.288 12.9 7.43 12.83 C 7.704 12.694 8.021 12.67 8.313 12.763 C 8.604 12.856 8.849 13.06 8.993 13.329 C 9.138 13.599 9.173 13.915 9.089 14.21 C 9.005 14.504 8.81 14.755 8.545 14.908 C 8.281 15.062 7.966 15.106 7.669 15.032 C 7.372 14.959 7.115 14.772 6.953 14.512 C 6.791 14.252 6.736 13.939 6.8 13.64"
        fill="#ffffff"/>
    <path
        id="path_7"
        d="M 7.95 15.2 C 7.69 15.2 7.435 15.122 7.22 14.976 C 7.005 14.83 6.838 14.623 6.742 14.381 C 6.645 14.139 6.624 13.874 6.68 13.62 C 6.687 13.587 6.707 13.558 6.735 13.54 C 6.763 13.521 6.797 13.514 6.83 13.52 C 6.863 13.527 6.892 13.547 6.91 13.575 C 6.929 13.603 6.936 13.637 6.93 13.67 C 6.879 13.921 6.921 14.182 7.049 14.404 C 7.177 14.626 7.382 14.794 7.625 14.875 C 7.868 14.956 8.132 14.946 8.368 14.846 C 8.604 14.746 8.796 14.564 8.906 14.332 C 9.017 14.101 9.039 13.838 8.969 13.591 C 8.898 13.345 8.74 13.133 8.524 12.995 C 8.309 12.857 8.05 12.802 7.796 12.842 C 7.543 12.882 7.313 13.013 7.15 13.21 C 7.136 13.226 7.118 13.238 7.098 13.244 C 7.078 13.251 7.056 13.252 7.036 13.248 C 7.015 13.244 6.996 13.234 6.98 13.22 C 6.954 13.198 6.937 13.168 6.933 13.134 C 6.93 13.1 6.939 13.067 6.96 13.04 C 7.15 12.82 7.408 12.67 7.693 12.614 C 7.979 12.558 8.274 12.6 8.533 12.732 C 8.792 12.863 9 13.078 9.122 13.342 C 9.245 13.605 9.276 13.902 9.21 14.185 C 9.144 14.468 8.985 14.721 8.758 14.903 C 8.532 15.085 8.251 15.186 7.96 15.19 Z"
        fill="#053361"/>
    <path
        id="path_8"
        d="M 24.24 13.88 M 22.18 13.88 C 22.18 13.334 22.397 12.81 22.783 12.423 C 23.17 12.037 23.694 11.82 24.24 11.82 C 24.786 11.82 25.31 12.037 25.697 12.423 C 26.083 12.81 26.3 13.334 26.3 13.88 C 26.3 14.426 26.083 14.95 25.697 15.337 C 25.31 15.723 24.786 15.94 24.24 15.94 C 23.694 15.94 23.17 15.723 22.783 15.337 C 22.397 14.95 22.18 14.426 22.18 13.88"
        fill="#dedfe0"/>
    <path
        id="path_9"
        d="M 24.24 16.2 C 23.631 16.2 23.047 15.958 22.616 15.529 C 22.185 15.099 21.942 14.515 21.94 13.907 C 21.938 13.298 22.178 12.713 22.607 12.281 C 23.035 11.849 23.618 11.604 24.227 11.6 C 24.835 11.597 25.421 11.835 25.855 12.262 C 26.288 12.689 26.535 13.271 26.54 13.88 C 26.54 14.491 26.298 15.077 25.867 15.51 C 25.436 15.943 24.851 16.187 24.24 16.19 Z M 24.24 12.08 C 23.763 12.08 23.305 12.27 22.967 12.607 C 22.63 12.945 22.44 13.403 22.44 13.88 C 22.44 14.357 22.63 14.815 22.967 15.153 C 23.305 15.49 23.763 15.68 24.24 15.68 C 24.717 15.68 25.175 15.49 25.513 15.153 C 25.85 14.815 26.04 14.357 26.04 13.88 C 26.037 13.404 25.847 12.947 25.51 12.61 C 25.173 12.273 24.716 12.083 24.24 12.08 Z"
        fill="#053361"/>
    <path
        id="path_10"
        d="M 24.24 13.88 M 23.06 13.88 C 23.06 13.567 23.184 13.267 23.406 13.046 C 23.627 12.824 23.927 12.7 24.24 12.7 C 24.553 12.7 24.853 12.824 25.074 13.046 C 25.296 13.267 25.42 13.567 25.42 13.88 C 25.42 14.193 25.296 14.493 25.074 14.714 C 24.853 14.936 24.553 15.06 24.24 15.06 C 23.927 15.06 23.627 14.936 23.406 14.714 C 23.184 14.493 23.06 14.193 23.06 13.88"
        fill="#ffffff"/>
    <path
        id="path_11"
        d="M 23.14 14.3 C 23.045 14.049 23.038 13.774 23.121 13.519 C 23.203 13.264 23.37 13.045 23.594 12.897 C 23.817 12.75 24.084 12.683 24.351 12.707 C 24.618 12.732 24.869 12.846 25.062 13.032 C 25.255 13.217 25.379 13.463 25.414 13.729 C 25.448 13.995 25.392 14.264 25.253 14.493 C 25.114 14.723 24.901 14.898 24.65 14.99 C 24.497 15.047 24.333 15.071 24.17 15.06"
        fill="#ffffff"/>
    <path
        id="path_34"
        d="M 24.24 15.2 L 24.17 15.2 C 24.147 15.198 24.125 15.191 24.106 15.178 C 24.087 15.165 24.072 15.147 24.062 15.126 C 24.052 15.106 24.048 15.083 24.05 15.06 C 24.055 15.029 24.071 15.001 24.094 14.981 C 24.118 14.961 24.149 14.95 24.18 14.95 C 24.327 14.96 24.474 14.936 24.61 14.88 C 24.804 14.807 24.973 14.677 25.094 14.508 C 25.214 14.339 25.282 14.138 25.289 13.93 C 25.295 13.722 25.24 13.517 25.13 13.341 C 25.02 13.165 24.86 13.025 24.67 12.94 C 24.545 12.882 24.41 12.85 24.273 12.845 C 24.136 12.84 23.999 12.862 23.87 12.91 C 23.697 12.975 23.544 13.085 23.427 13.229 C 23.309 13.372 23.232 13.544 23.203 13.727 C 23.174 13.91 23.193 14.097 23.26 14.27 C 23.27 14.301 23.269 14.334 23.256 14.364 C 23.243 14.393 23.219 14.417 23.19 14.43 C 23.168 14.438 23.144 14.441 23.121 14.437 C 23.098 14.433 23.076 14.423 23.059 14.407 C 23.041 14.392 23.027 14.372 23.02 14.35 C 22.91 14.053 22.913 13.726 23.027 13.431 C 23.141 13.136 23.36 12.892 23.64 12.746 C 23.921 12.601 24.246 12.562 24.553 12.638 C 24.86 12.715 25.129 12.901 25.309 13.161 C 25.489 13.421 25.568 13.738 25.531 14.053 C 25.493 14.367 25.343 14.657 25.107 14.868 C 24.871 15.079 24.566 15.197 24.25 15.2 Z M 22.36 14.97 L 11.34 14.97 C 11.274 14.97 11.21 14.944 11.163 14.897 C 11.116 14.85 11.09 14.786 11.09 14.72 C 11.09 14.654 11.116 14.59 11.163 14.543 C 11.21 14.496 11.274 14.47 11.34 14.47 L 22.36 14.47 C 22.426 14.47 22.49 14.496 22.537 14.543 C 22.584 14.59 22.61 14.654 22.61 14.72 C 22.61 14.786 22.584 14.85 22.537 14.897 C 22.49 14.944 22.426 14.97 22.36 14.97 Z"
        fill="#053361"/>
    <path
        id="path_35"
        d="M 18.86 10 C 18.087 9.606 17.299 9.239 16.5 8.9 C 15.02 8.28 12.3 8.54 11.12 8.75 C 10.72 8.82 9.94 9.05 9.02 9.3 L 9.42 9.8 Z"
        fill="#dedfe0"/>
    <path
        id="path_36"
        d="M 18.86 10.24 L 9.42 10.04 C 9.384 10.041 9.349 10.034 9.316 10.02 C 9.284 10.007 9.254 9.986 9.23 9.96 L 8.83 9.46 C 8.794 9.418 8.774 9.364 8.772 9.309 C 8.77 9.254 8.786 9.199 8.818 9.154 C 8.851 9.109 8.897 9.076 8.95 9.06 L 11.09 8.5 C 12.43 8.26 15.09 8.03 16.59 8.65 L 18.96 9.77 C 19.008 9.796 19.047 9.837 19.069 9.887 C 19.092 9.937 19.097 9.994 19.085 10.047 C 19.072 10.101 19.043 10.149 19 10.183 C 18.958 10.218 18.905 10.238 18.85 10.24 Z M 9.54 9.54 L 17.74 9.71 Q 16.94 9.34 16.41 9.11 C 15.01 8.53 12.37 8.77 11.17 8.98 C 10.83 9.04 10.17 9.22 9.45 9.43 Z"
        fill="#053361"/>
    <path
        id="path_37"
        d="M 17 10.22 L 17.73 10.22 C 17.808 10.22 17.883 10.19 17.939 10.136 C 17.995 10.082 18.027 10.008 18.03 9.93 C 18.027 9.852 17.995 9.778 17.939 9.724 C 17.883 9.67 17.808 9.64 17.73 9.64 L 17 9.64 Z"
        fill="#053361"/>
    <path
        id="path_38"
        d="M 17.73 10.47 L 17 10.47 C 16.934 10.47 16.87 10.444 16.823 10.397 C 16.776 10.35 16.75 10.286 16.75 10.22 L 16.75 9.64 C 16.75 9.574 16.776 9.51 16.823 9.463 C 16.87 9.416 16.934 9.39 17 9.39 L 17.74 9.39 C 17.883 9.39 18.021 9.447 18.122 9.548 C 18.223 9.649 18.28 9.787 18.28 9.93 C 18.28 10.073 18.223 10.211 18.122 10.312 C 18.021 10.413 17.883 10.47 17.74 10.47 Z M 17.23 9.97 L 17.73 9.97 L 17.73 9.9 L 17.23 9.9 Z M 12.19 12.83 C 12.164 12.83 12.139 12.822 12.118 12.808 C 12.097 12.794 12.08 12.774 12.07 12.75 C 11.806 12.128 11.631 11.471 11.55 10.8 C 11.597 10.454 11.72 10.123 11.91 9.83 L 11.26 7.93 C 11.238 7.904 11.228 7.87 11.23 7.837 C 11.233 7.803 11.249 7.772 11.274 7.749 C 11.3 7.727 11.333 7.715 11.367 7.717 C 11.4 7.719 11.432 7.734 11.455 7.759 C 11.478 7.783 11.491 7.816 11.49 7.85 L 12.16 9.8 C 12.165 9.819 12.166 9.838 12.162 9.857 C 12.159 9.876 12.151 9.894 12.14 9.91 C 11.96 10.181 11.84 10.488 11.79 10.81 C 11.871 11.443 12.04 12.063 12.29 12.65 C 12.301 12.674 12.304 12.7 12.298 12.725 C 12.293 12.751 12.28 12.774 12.26 12.791 C 12.24 12.808 12.216 12.818 12.19 12.82 Z M 13.39 10.9 L 12.39 10.9 C 12.358 10.887 12.333 10.861 12.32 10.83 C 12.307 10.798 12.307 10.762 12.32 10.73 C 12.333 10.699 12.358 10.673 12.39 10.66 L 13.41 10.66 C 13.437 10.668 13.461 10.684 13.478 10.707 C 13.495 10.729 13.504 10.757 13.504 10.785 C 13.504 10.813 13.495 10.841 13.478 10.863 C 13.461 10.886 13.437 10.902 13.41 10.91 Z M 3.11 11.4 C 3.09 11.401 3.069 11.398 3.05 11.39 L 2.53 11.11 C 2.499 11.103 2.471 11.084 2.453 11.057 C 2.434 11.031 2.426 10.998 2.431 10.966 C 2.435 10.934 2.451 10.905 2.476 10.884 C 2.5 10.863 2.532 10.852 2.564 10.853 C 2.596 10.855 2.627 10.868 2.65 10.89 L 3.07 11.12 L 3.49 10.59 L 3.14 10.26 C 3.125 10.245 3.114 10.227 3.109 10.206 C 3.103 10.186 3.103 10.164 3.109 10.144 C 3.114 10.123 3.125 10.105 3.14 10.09 C 3.164 10.07 3.194 10.058 3.225 10.058 C 3.256 10.058 3.286 10.07 3.31 10.09 L 3.75 10.49 C 3.768 10.513 3.778 10.541 3.778 10.57 C 3.778 10.599 3.768 10.627 3.75 10.65 L 3.2 11.35 C 3.189 11.366 3.174 11.379 3.156 11.387 C 3.139 11.396 3.119 11.4 3.1 11.4 Z M 5.96 13.44 L 2.16 13.12 C 2.126 13.12 2.092 13.106 2.068 13.082 C 2.044 13.058 2.03 13.024 2.03 12.99 C 2.032 12.969 2.039 12.949 2.051 12.931 C 2.063 12.914 2.079 12.9 2.099 12.891 C 2.118 12.882 2.139 12.878 2.16 12.88 L 5.96 13.18 C 5.987 13.188 6.011 13.204 6.028 13.227 C 6.045 13.249 6.054 13.277 6.054 13.305 C 6.054 13.333 6.045 13.361 6.028 13.383 C 6.011 13.406 5.987 13.422 5.96 13.43 Z M 27.79 12.14 L 27.78 12.14 L 26.68 12.04 C 26.653 12.034 26.629 12.02 26.61 12 L 25.94 11.34 C 25.922 11.322 25.909 11.299 25.904 11.275 C 25.899 11.25 25.901 11.224 25.91 11.2 C 25.921 11.178 25.939 11.16 25.96 11.148 C 25.981 11.135 26.005 11.129 26.03 11.13 C 26.695 11.15 27.357 11.224 28.01 11.35 C 28.035 11.354 28.058 11.366 28.076 11.383 C 28.094 11.4 28.107 11.422 28.113 11.446 C 28.119 11.471 28.118 11.496 28.11 11.52 L 27.91 12.07 C 27.9 12.094 27.883 12.114 27.862 12.128 C 27.841 12.142 27.816 12.15 27.79 12.15 Z M 26.75 11.78 L 27.7 11.88 L 27.82 11.56 C 27.334 11.471 26.843 11.411 26.35 11.38 Z"
        fill="#053361"/>
    <path
        id="path_39"
        d="M 27.18 11.95 L 26.71 11.9 L 26.03 11.24 C 26.33 11.24 26.63 11.27 26.9 11.3 C 26.905 11.412 26.925 11.523 26.96 11.63 C 27.02 11.745 27.094 11.853 27.18 11.95 Z M 20.22 13.82 L 10 13.82 C 9.973 13.812 9.949 13.796 9.932 13.773 C 9.915 13.751 9.906 13.723 9.906 13.695 C 9.906 13.667 9.915 13.639 9.932 13.617 C 9.949 13.594 9.973 13.578 10 13.57 L 20.16 13.57 L 21.34 11.57 L 21.07 11.23 C 21.053 11.203 21.047 11.171 21.053 11.139 C 21.058 11.108 21.075 11.08 21.1 11.06 C 21.117 11.047 21.136 11.038 21.158 11.035 C 21.179 11.032 21.2 11.034 21.22 11.042 C 21.24 11.05 21.257 11.063 21.27 11.08 L 21.57 11.48 C 21.587 11.501 21.597 11.527 21.599 11.553 C 21.601 11.58 21.594 11.607 21.58 11.63 L 20.33 13.75 C 20.318 13.768 20.302 13.784 20.283 13.794 C 20.263 13.805 20.242 13.81 20.22 13.81 Z M 9.42 10.05 L 8.06 10.05 C 7.994 10.05 7.93 10.024 7.883 9.977 C 7.836 9.93 7.81 9.866 7.81 9.8 C 7.81 9.734 7.836 9.67 7.883 9.623 C 7.93 9.576 7.994 9.55 8.06 9.55 L 9.42 9.55 C 9.486 9.55 9.55 9.576 9.597 9.623 C 9.644 9.67 9.67 9.734 9.67 9.8 C 9.67 9.866 9.644 9.93 9.597 9.977 C 9.55 10.024 9.486 10.05 9.42 10.05 Z M 28.66 13.7 L 27.43 13.7 C 27.396 13.7 27.362 13.686 27.338 13.662 C 27.314 13.638 27.3 13.604 27.3 13.57 C 27.3 13.536 27.314 13.502 27.338 13.478 C 27.362 13.454 27.396 13.44 27.43 13.44 L 28.66 13.44 C 28.687 13.448 28.711 13.464 28.728 13.487 C 28.745 13.509 28.754 13.537 28.754 13.565 C 28.754 13.593 28.745 13.621 28.728 13.643 C 28.711 13.666 28.687 13.682 28.66 13.69 Z"
        fill="#053361"/>
</svg>
