<svg
    xmlns="http://www.w3.org/2000/svg"
    viewBox="0 0 31 17"
    id="vector">
    <path
        id="path"
        d="M 5 14.1 L 2.5 13.6 L 2 12.9 C 2 12.5 2 12.2 2.1 11.8 C 2.2 11.6 2.6 11 2.6 10.4 C 2.6 9.8 2 8.9 4.2 7.1 L 3.6 6.7 C 3.6 6.7 5.7 6 12.5 6 C 14.5 6.1 16.5 6.5 18.5 7.1 L 23.7 9.2 C 24.1 9.3 24.7 9.4 25 9.4 C 26.2 9.7 27.4 10.2 28.4 10.8 C 28.5 11 28.5 11.3 28.5 11.5 C 28.5 11.5 29 11.9 29 12.2 L 28.9 13.5 L 29.2 13.9 C 28.3 14.2 27.2 14.4 26.2 14.3"
        fill="#ffffff"/>
    <path
        id="path_1"
        d="M 26.3 14.7 L 26.1 14.7 C 26 14.7 25.9 14.6 25.9 14.5 C 25.9 14.4 26 14.3 26.1 14.3 C 26.1 14.3 26.2 14.3 26.3 14.3 C 27.1 14.3 27.9 14.2 28.7 14 L 28.6 13.9 C 28.6 13.8 28.6 13.8 28.6 13.7 L 28.7 12.4 C 28.7 12.3 28.5 12.1 28.3 12 C 28.2 11.9 28.2 11.8 28.2 11.8 C 28.2 11.6 28.2 11.4 28.2 11.3 C 27.2 10.7 26.1 10.3 24.9 10 L 24.5 9.9 L 23.5 9.7 C 22.7 9.4 22 9.1 21.3 8.8 L 18.3 7.6 C 16.4 6.9 14.4 6.6 12.4 6.5 C 9.7 6.2 7 6.4 4.3 6.8 L 4.3 6.8 C 4.4 6.9 4.5 7 4.4 7.1 C 4.4 7.1 4.4 7.2 4.3 7.2 C 2.5 8.8 2.6 9.6 2.7 10.2 L 2.7 10.4 C 2.7 10.8 2.6 11.3 2.3 11.6 C 2.3 11.7 2.2 11.8 2.2 11.8 C 2.2 12.1 2.1 12.4 2.1 12.7 L 2.4 13.2 L 5 13.9 C 5.1 13.9 5.2 14.1 5.2 14.2 C 5.2 14.2 5.2 14.2 5.2 14.2 C 5.2 14.3 5.1 14.4 4.9 14.4 C 4.9 14.4 4.9 14.4 4.9 14.4 L 2.4 13.8 C 2.3 13.8 2.3 13.8 2.2 13.7 L 1.8 13.1 C 1.8 13.1 1.8 13 1.8 13 C 1.8 12.6 1.8 12.2 1.9 11.9 C 1.9 11.8 2 11.7 2.1 11.6 C 2.3 11.3 2.4 11 2.4 10.7 L 2.4 10.5 C 2.2 9.7 2 8.7 3.8 7.1 L 3.5 7 C 3.4 6.9 3.4 6.8 3.4 6.6 C 3.4 6.6 3.5 6.5 3.5 6.5 C 3.6 6.5 5.7 5.7 12.4 5.7 C 14.5 5.8 16.5 6.2 18.4 6.9 L 21.4 8.1 L 23.7 9 C 24 9.1 24.3 9.1 24.6 9.2 L 25 9.2 C 26.3 9.5 27.5 10.1 28.6 10.7 C 28.6 10.7 28.7 10.8 28.7 10.8 C 28.8 11 28.8 11.3 28.8 11.5 C 29.1 11.7 29.2 12 29.3 12.3 L 29 13.6 L 29.2 13.9 C 29.3 14 29.3 14.2 29.1 14.2 C 29.1 14.2 29.1 14.2 29.1 14.2 C 28.2 14.6 27.2 14.8 26.3 14.7 L 26.3 14.7 Z"
        fill="#053361"/>
    <path
        id="path_2"
        d="M 4.2 16.2 C 4.2 16.327 4.962 16.45 6.377 16.553 C 7.792 16.655 9.788 16.731 12.077 16.771 C 14.366 16.81 16.834 16.81 19.123 16.771 C 21.412 16.731 23.408 16.655 24.823 16.553 C 26.238 16.45 27 16.327 27 16.2 C 27 16.041 25.798 15.888 23.661 15.776 C 21.524 15.663 18.622 15.6 15.6 15.6 C 12.578 15.6 9.676 15.663 7.539 15.776 C 5.402 15.888 4.2 16.041 4.2 16.2 Z"
        fill="#dedfe0"/>
    <path
        id="path_3"
        d="M 7.1 13.7 M 4.9 13.7 C 4.899 13.235 5.045 12.78 5.318 12.403 C 5.591 12.026 5.976 11.745 6.419 11.601 C 6.861 11.457 7.339 11.457 7.781 11.601 C 8.224 11.745 8.609 12.026 8.882 12.403 C 9.155 12.78 9.301 13.235 9.3 13.7 C 9.301 14.165 9.155 14.62 8.882 14.997 C 8.609 15.374 8.224 15.655 7.781 15.799 C 7.339 15.943 6.861 15.943 6.419 15.799 C 5.976 15.655 5.591 15.374 5.318 14.997 C 5.045 14.62 4.899 14.165 4.9 13.7"
        fill="#dedfe0"/>
    <path
        id="path_4"
        d="M 7.1 16.2 C 5.8 16.2 4.7 15.1 4.7 13.8 C 4.7 12.5 5.8 11.4 7.1 11.4 C 8.4 11.4 9.5 12.5 9.5 13.8 C 9.6 15.1 8.5 16.2 7.1 16.2 C 7.1 16.2 7.1 16.2 7.1 16.2 Z M 7.1 11.8 C 6 11.8 5.2 12.7 5.2 13.7 C 5.2 14.7 6.1 15.6 7.1 15.6 C 8.2 15.6 9 14.7 9 13.7 C 9.1 12.7 8.2 11.8 7.1 11.8 Z"
        fill="#053361"/>
    <path
        id="path_5"
        d="M 24 13.7 M 21.8 13.7 C 21.799 13.235 21.945 12.78 22.218 12.403 C 22.491 12.026 22.876 11.745 23.319 11.601 C 23.761 11.457 24.239 11.457 24.681 11.601 C 25.124 11.745 25.509 12.026 25.782 12.403 C 26.055 12.78 26.201 13.235 26.2 13.7 C 26.2 14.283 25.968 14.843 25.556 15.256 C 25.143 15.668 24.583 15.9 24 15.9 C 23.417 15.9 22.857 15.668 22.444 15.256 C 22.032 14.843 21.8 14.283 21.8 13.7"
        fill="#dedfe0"/>
    <path
        id="path_6"
        d="M 24 16.2 C 22.7 16.2 21.6 15.1 21.6 13.8 C 21.6 12.5 22.7 11.4 24 11.4 C 25.3 11.4 26.4 12.5 26.4 13.8 C 26.5 15.1 25.4 16.2 24 16.2 C 24 16.2 24 16.2 24 16.2 Z M 24 11.8 C 22.9 11.8 22.1 12.7 22.1 13.7 C 22.1 14.7 23 15.6 24 15.6 C 25.1 15.6 25.9 14.7 25.9 13.7 C 26 12.7 25.1 11.8 24 11.8 Z"
        fill="#053361"/>
    <path
        id="path_7"
        d="M 7.1 13.7 M 5.9 13.7 C 5.9 13.382 6.027 13.076 6.251 12.851 C 6.476 12.627 6.782 12.5 7.1 12.5 C 7.418 12.5 7.724 12.627 7.949 12.851 C 8.173 13.076 8.3 13.382 8.3 13.7 C 8.3 14.018 8.173 14.324 7.949 14.549 C 7.724 14.773 7.418 14.9 7.1 14.9 C 6.782 14.9 6.476 14.773 6.251 14.549 C 6.027 14.324 5.9 14.018 5.9 13.7"
        fill="#ffffff"/>
    <path
        id="path_8"
        d="M 8 14.8 C 7.9 14.8 7.9 14.7 7.9 14.7 C 7.9 14.7 7.9 14.6 7.9 14.6 C 8 14.6 8 14.5 8.1 14.4 C 8.1 14.3 8.2 14.3 8.3 14.4 C 8.4 14.4 8.4 14.5 8.3 14.6 C 8.3 14.6 8.3 14.6 8.3 14.6 C 8.2 14.6 8.1 14.7 8 14.8 C 8 14.8 8 14.8 8 14.8 Z M 7.1 15.1 C 6.7 15.1 6.3 14.9 6 14.6 C 5.6 14 5.7 13.1 6.3 12.7 C 6.9 12.3 7.7 12.4 8.1 12.9 C 8.3 13.2 8.4 13.6 8.4 14 C 8.4 14.1 8.4 14.1 8.3 14.1 C 8.2 14.1 8.2 14.1 8.2 14 C 8.2 14 8.2 13.9 8.2 13.9 C 8.3 13.6 8.2 13.2 8 13 C 7.8 12.8 7.5 12.6 7.2 12.6 C 6.9 12.6 6.6 12.6 6.4 12.8 C 5.9 13.2 5.8 13.9 6.2 14.4 C 6.5 14.8 7.1 14.9 7.5 14.7 C 7.6 14.7 7.6 14.7 7.7 14.8 C 7.7 14.9 7.7 14.9 7.6 15 L 7.6 15 C 7.5 15.1 7.3 15.1 7.1 15.1 Z"
        fill="#053361"/>
    <path
        id="path_9"
        d="M 24 13.7 M 22.8 13.7 C 22.8 13.382 22.927 13.076 23.151 12.851 C 23.376 12.627 23.682 12.5 24 12.5 C 24.318 12.5 24.624 12.627 24.849 12.851 C 25.073 13.076 25.2 13.382 25.2 13.7 C 25.2 14.018 25.073 14.324 24.849 14.549 C 24.624 14.773 24.318 14.9 24 14.9 C 23.682 14.9 23.376 14.773 23.151 14.549 C 22.927 14.324 22.8 14.018 22.8 13.7"
        fill="#ffffff"/>
    <path
        id="path_10"
        d="M 24 15.1 C 23.5 15.1 23 14.8 22.7 14.3 C 22.7 14.2 22.7 14.2 22.7 14.1 C 22.7 14.1 22.7 14.1 22.7 14.1 C 22.8 14.1 22.8 14.1 22.9 14.1 C 22.9 14.1 22.9 14.1 22.9 14.1 C 23 14.2 23 14.3 23.1 14.5 C 23.5 14.9 24.3 14.9 24.7 14.5 C 25.1 14.1 25.1 13.3 24.7 12.9 C 24.3 12.5 23.5 12.5 23.1 12.9 C 22.9 13.1 22.8 13.4 22.8 13.7 C 22.8 13.8 22.7 13.8 22.7 13.8 C 22.6 13.8 22.6 13.7 22.6 13.7 C 22.6 12.9 23.3 12.3 24 12.4 C 24.8 12.4 25.4 13.1 25.3 13.8 C 25.4 14.5 24.8 15.1 24 15.1 L 24 15.1 Z M 22 14.7 L 10.7 14.7 C 10.6 14.7 10.5 14.6 10.5 14.5 C 10.5 14.4 10.6 14.3 10.7 14.3 L 22 14.3 C 22.1 14.3 22.2 14.4 22.2 14.5 C 22.2 14.6 22.1 14.7 22 14.7 Z M 2.6 10.6 C 2.5 10.6 2.5 10.5 2.5 10.4 C 2.5 10.4 2.5 10.3 2.6 10.3 L 3.2 10.2 C 3.2 10 3.2 9.8 3.4 9.7 L 4 9.1 L 3.1 8.2 C 3 8.2 3 8.1 3.1 8 C 3.2 7.9 3.2 8 3.2 8 C 3.2 8 3.2 8 3.2 8 L 4.2 9 C 4.2 9 4.2 9.1 4.2 9.1 C 4.2 9.1 4.2 9.2 4.2 9.2 L 3.5 10 C 3.4 10.1 3.4 10.3 3.4 10.4 C 3.4 10.5 3.4 10.5 3.3 10.5 L 2.6 10.6 L 2.6 10.6 Z"
        fill="#053361"/>
    <path
        id="path_11"
        d="M 3.2 8.1 L 4.2 9.1 L 3.9 9.4 L 2.5 9.4 C 2.7 8.9 2.9 8.5 3.2 8.1 Z"
        fill="#053361"/>
    <path
        id="path_33"
        d="M 22.7 9.9 L 7.3 8.9 L 6.4 7.3 C 8.5 7 10.6 6.9 12.6 6.9 C 17.3 6.9 22.7 9.9 22.7 9.9 L 22.7 9.9 Z"
        fill="#dedfe0"/>
    <path
        id="path_34"
        d="M 22.7 10.2 L 22.7 10.2 L 7.3 9.1 C 7.2 9.1 7.1 9.1 7.1 9 L 6.2 7.5 C 6.1 7.4 6.2 7.2 6.3 7.2 C 6.3 7.2 6.4 7.2 6.4 7.2 C 8.5 6.9 10.6 6.8 12.7 6.8 C 17.3 6.8 22.7 9.7 22.9 9.9 C 23 10 23 10.1 23 10.2 C 22.8 10.1 22.7 10.2 22.7 10.2 L 22.7 10.2 Z M 7.4 8.6 L 21.4 9.5 C 19.6 8.6 15.8 7.1 12.6 7.1 C 10.6 7.1 8.7 7.2 6.8 7.5 L 7.4 8.6 Z"
        fill="#053361"/>
    <path
        id="path_35"
        d="M 7.3 8.9 L 6.5 8.9"
        fill="#dedfe0"/>
    <path
        id="path_36"
        d="M 7.3 9.1 L 6.5 9.1 C 6.3 9.1 6.2 9 6.2 8.9 C 6.2 8.8 6.3 8.7 6.4 8.7 L 6.4 8.7 L 7.2 8.7 C 7.3 8.7 7.4 8.8 7.4 9 C 7.5 9 7.4 9.1 7.3 9.1 Z M 20.4 10 L 21.1 10 C 21.3 10 21.4 9.9 21.4 9.7 C 21.4 9.5 21.3 9.4 21.1 9.4 L 20.4 9.4 L 20.4 10 Z"
        fill="#053361"/>
    <path
        id="path_37"
        d="M 21.2 10.3 L 20.5 10.3 C 20.4 10.3 20.3 10.2 20.3 10.1 L 20.3 9.4 C 20.3 9.3 20.4 9.2 20.5 9.2 L 21.2 9.2 C 21.5 9.2 21.7 9.4 21.7 9.7 C 21.7 10 21.5 10.3 21.2 10.3 Z M 20.7 9.8 L 21.2 9.8 L 21.2 9.7 L 20.7 9.8 L 20.7 9.8 Z M 14.8 12.5 C 14.7 12.5 14.7 12.5 14.7 12.4 C 14.7 12.4 14.7 12.4 14.7 12.4 C 14.7 10.1 14.3 6.3 14.3 6.3 C 14.3 6.2 14.3 6.2 14.4 6.2 C 14.5 6.2 14.5 6.2 14.5 6.3 C 14.5 6.3 14.9 10.1 14.9 12.4 C 14.9 12.4 14.8 12.5 14.8 12.5 L 14.8 12.5 Z M 16.4 10.4 L 15.4 10.4 C 15.3 10.4 15.3 10.3 15.3 10.2 C 15.3 10.2 15.3 10.1 15.4 10.1 L 16.4 10.1 C 16.5 10.1 16.5 10.2 16.4 10.4 C 16.5 10.3 16.4 10.3 16.4 10.4 L 16.4 10.4 Z M 9.2 9.9 L 8.2 9.9 C 8.1 9.9 8.1 9.8 8.1 9.7 C 8.1 9.7 8.1 9.6 8.2 9.6 L 9.2 9.6 C 9.3 9.6 9.3 9.6 9.4 9.7 C 9.4 9.8 9.3 9.9 9.2 9.9 C 9.2 9.9 9.2 9.9 9.2 9.9 Z M 7.8 8.9 C 7.7 8.9 7.7 8.8 7.7 8.8 C 7.7 8.8 7.7 8.8 7.7 8.7 L 9 7 C 9 7 9.1 6.9 9.2 7 C 9.3 7 9.3 7.1 9.2 7.2 L 7.9 8.9 C 7.9 8.9 7.8 8.9 7.8 8.9 Z M 22.7 9.9 L 23.4 10.3 M 23.3 10.5 C 23.3 10.5 23.2 10.5 23.2 10.5 L 22.5 10.1 C 22.4 10 22.3 9.9 22.4 9.8 C 22.5 9.7 22.6 9.6 22.7 9.7 L 22.7 9.7 L 23.4 10.1 C 23.5 10.2 23.6 10.3 23.5 10.4 C 23.5 10.5 23.4 10.5 23.3 10.5 Z M 21.8 13.7 L 10.1 13.7 C 10 13.7 10 13.7 10 13.6 C 10 13.6 10 13.6 10 13.6 C 10.1 12.8 9.7 12 9 11.5 C 9 11.4 9 11.4 9 11.3 C 9 11.3 9.1 11.3 9.1 11.3 C 9.8 11.8 10.2 12.6 10.2 13.5 L 21.8 13.5 C 21.9 13.4 21.9 13.5 21.8 13.7 C 21.9 13.6 21.9 13.6 21.8 13.7 Z M 28 11.6 L 28 11.6 L 26.6 11.4 C 26.6 11.4 26.5 11.4 26.5 11.3 C 26.1 10.9 25.7 10.5 25.1 10.3 C 25 10.3 25 10.2 25 10.2 C 25 10.1 25.1 10.1 25.1 10.1 L 26.7 10.1 C 26.8 10.1 26.8 10.2 26.8 10.3 C 26.8 10.3 26.8 10.4 26.7 10.4 L 25.6 10.4 C 26 10.6 26.3 10.9 26.6 11.2 L 27.8 11.4 C 27.9 11.3 28.1 11.1 28.1 11 C 28.1 10.9 28.2 10.9 28.3 11 C 28.3 11 28.4 11.1 28.3 11.1 C 28.4 11.2 28.2 11.4 28 11.6 C 28 11.6 28 11.6 28 11.6 L 28 11.6 Z"
        fill="#053361"/>
    <path
        id="path_38"
        d="M 27.4 11.3 L 26.7 11.2 C 26.5 10.7 25.3 10.1 25.3 10.1 L 26.5 10.1 C 26.7 10.3 27 10.5 27.1 10.8 C 27.2 11 27.4 11.3 27.4 11.3 L 27.4 11.3 Z M 27.6 13.9 L 27.6 13.9 C 27.5 13.9 27.5 13.8 27.5 13.8 L 27.7 12.4 C 27.7 12.3 27.8 12.3 27.8 12.3 C 27.8 12.3 27.8 12.3 27.8 12.3 C 27.9 12.3 27.9 12.4 27.9 12.4 L 27.7 13.8 C 27.7 13.8 27.7 13.9 27.6 13.9 L 27.6 13.9 Z M 5 13.3 C 5 13.3 5 13.3 5 13.3 L 3.7 13 C 3.6 13 3.6 12.9 3.6 12.9 C 3.6 12.8 3.7 12.8 3.7 12.8 C 3.7 12.8 3.7 12.8 3.7 12.8 C 4 12.9 5 13.1 5 13.1 C 5.1 13.1 5.1 13.2 5 13.3 C 5.1 13.3 5 13.3 5 13.3 Z"
        fill="#053361"/>
</svg>
