<svg
    xmlns="http://www.w3.org/2000/svg"
    viewBox="0 0 31 17"
    id="vector">
    <path
        id="path_12"
        d="M 5.27 13.75 C 5.27 13.75 3.47 13.48 3.27 12.67 C 3.247 12.512 3.262 12.35 3.314 12.198 C 3.366 12.047 3.454 11.91 3.57 11.8 L 3.57 9.16 L 4.87 6.86 C 4.782 6.821 4.706 6.758 4.651 6.679 C 4.596 6.6 4.565 6.506 4.56 6.41 C 4.56 6.09 5.18 6.11 5.46 6.09 C 8.933 5.988 12.406 5.902 15.88 5.83 C 16.56 5.83 18.48 6.13 21.08 8.4 L 26.24 9.56 C 26.24 9.56 28.5 11.16 27.12 13.74 L 25 13.74"
        fill="#ffffff"/>
    <path
        id="path_13"
        d="M 5.27 14 C 5.07 14 3.27 13.67 3.07 12.72 C 3.043 12.542 3.056 12.359 3.108 12.186 C 3.16 12.013 3.249 11.854 3.37 11.72 L 3.37 9.16 C 3.361 9.121 3.361 9.079 3.37 9.04 C 3.37 8.98 4.13 7.62 4.55 6.94 C 4.48 6.873 4.425 6.792 4.387 6.702 C 4.349 6.613 4.33 6.517 4.33 6.42 C 4.33 5.92 4.98 5.88 5.33 5.86 L 5.45 5.86 C 5.77 5.86 15.23 5.6 15.89 5.6 C 16.55 5.6 18.41 5.8 21.21 8.2 C 21.77 8.3 25.57 9.1 26.34 9.35 C 26.664 9.474 26.959 9.664 27.205 9.909 C 27.451 10.153 27.644 10.447 27.77 10.77 C 27.941 11.287 27.993 11.837 27.922 12.377 C 27.851 12.917 27.659 13.434 27.36 13.89 C 27.338 13.929 27.306 13.961 27.267 13.984 C 27.229 14.007 27.185 14.019 27.14 14.02 L 25 14.02 C 24.934 14.02 24.87 13.994 24.823 13.947 C 24.776 13.9 24.75 13.836 24.75 13.77 C 24.75 13.704 24.776 13.64 24.823 13.593 C 24.87 13.546 24.934 13.52 25 13.52 L 27 13.52 C 27.231 13.138 27.379 12.712 27.434 12.269 C 27.49 11.826 27.451 11.377 27.32 10.95 C 27.222 10.694 27.07 10.462 26.875 10.269 C 26.68 10.076 26.447 9.926 26.19 9.83 C 25.41 9.57 21.09 8.68 21.06 8.67 C 21.015 8.67 20.972 8.652 20.94 8.62 C 18.24 6.29 16.4 6.12 15.94 6.12 C 15.29 6.12 5.86 6.36 5.54 6.38 L 5.36 6.38 C 5.176 6.375 4.993 6.406 4.82 6.47 C 4.834 6.513 4.857 6.553 4.888 6.586 C 4.919 6.619 4.958 6.644 5 6.66 C 5.034 6.675 5.064 6.697 5.088 6.724 C 5.112 6.752 5.13 6.785 5.14 6.82 C 5.155 6.853 5.162 6.889 5.162 6.925 C 5.162 6.961 5.155 6.997 5.14 7.03 C 4.78 7.53 4 8.93 3.84 9.23 L 3.84 11.81 C 3.841 11.844 3.834 11.878 3.82 11.909 C 3.806 11.94 3.786 11.968 3.76 11.99 C 3.679 12.072 3.616 12.171 3.577 12.28 C 3.537 12.389 3.521 12.505 3.53 12.62 C 3.63 13.09 4.67 13.42 5.3 13.52 C 5.366 13.52 5.43 13.546 5.477 13.593 C 5.524 13.64 5.55 13.704 5.55 13.77 C 5.55 13.836 5.524 13.9 5.477 13.947 C 5.43 13.994 5.366 14.02 5.3 14.02 Z"
        fill="#053361"/>
    <path
        id="path_14"
        d="M 4.34 16.19 C 4.34 16.341 5.478 16.486 7.5 16.593 C 9.523 16.7 12.269 16.76 15.13 16.76 C 17.991 16.76 20.737 16.7 22.76 16.593 C 24.782 16.486 25.92 16.341 25.92 16.19 C 25.92 16.039 24.782 15.894 22.76 15.787 C 20.737 15.68 17.991 15.62 15.13 15.62 C 12.269 15.62 9.523 15.68 7.5 15.787 C 5.478 15.894 4.34 16.039 4.34 16.19 Z"
        fill="#dedfe0"/>
    <path
        id="path_15"
        d="M 4.52 10.33 C 4.844 10.201 5.179 10.101 5.52 10.03 L 5.22 9.63 L 4.42 9.63 Z M 26.68 11.18 C 26.36 11.12 24.88 10.61 24.88 10.34 C 24.88 10.07 25.14 10.04 25.38 10.04 L 25.68 10.04 Z"
        fill="#053361"/>
    <path
        id="path_16"
        d="M 7.47 13.75 M 5.28 13.75 C 5.28 13.169 5.511 12.612 5.921 12.201 C 6.332 11.791 6.889 11.56 7.47 11.56 C 8.051 11.56 8.608 11.791 9.019 12.201 C 9.429 12.612 9.66 13.169 9.66 13.75 C 9.66 14.212 9.514 14.663 9.242 15.037 C 8.97 15.411 8.587 15.69 8.147 15.833 C 7.707 15.976 7.233 15.976 6.793 15.833 C 6.353 15.69 5.97 15.411 5.698 15.037 C 5.426 14.663 5.28 14.212 5.28 13.75"
        fill="#dedfe0"/>
    <path
        id="path_17"
        d="M 7.47 16.2 C 6.823 16.2 6.202 15.943 5.745 15.485 C 5.287 15.028 5.03 14.407 5.03 13.76 C 5.03 13.113 5.287 12.492 5.745 12.035 C 6.202 11.577 6.823 11.32 7.47 11.32 C 8.117 11.32 8.738 11.577 9.195 12.035 C 9.653 12.492 9.91 13.113 9.91 13.76 C 9.907 14.406 9.649 15.026 9.192 15.482 C 8.736 15.939 8.116 16.197 7.47 16.2 Z M 7.47 11.82 C 6.956 11.82 6.462 12.025 6.098 12.388 C 5.735 12.752 5.53 13.246 5.53 13.76 C 5.53 14.274 5.735 14.768 6.098 15.132 C 6.462 15.495 6.956 15.7 7.47 15.7 C 7.984 15.7 8.478 15.495 8.842 15.132 C 9.205 14.768 9.41 14.274 9.41 13.76 C 9.41 13.246 9.205 12.752 8.842 12.388 C 8.478 12.025 7.984 11.82 7.47 11.82 Z"
        fill="#053361"/>
    <path
        id="path_18"
        d="M 7.47 13.75 M 6.22 13.75 C 6.22 13.486 6.304 13.229 6.459 13.015 C 6.614 12.802 6.833 12.643 7.084 12.561 C 7.335 12.48 7.605 12.48 7.856 12.561 C 8.107 12.643 8.326 12.802 8.481 13.015 C 8.636 13.229 8.72 13.486 8.72 13.75 C 8.72 14.081 8.588 14.4 8.354 14.634 C 8.12 14.868 7.801 15 7.47 15 C 7.139 15 6.82 14.868 6.586 14.634 C 6.352 14.4 6.22 14.081 6.22 13.75"
        fill="#ffffff"/>
    <path
        id="path_19"
        d="M 6.3 14.24 C 6.236 14.084 6.202 13.918 6.2 13.75 C 6.197 13.416 6.328 13.094 6.562 12.856 C 6.796 12.618 7.116 12.483 7.45 12.48 C 7.784 12.477 8.106 12.608 8.344 12.842 C 8.582 13.076 8.717 13.396 8.72 13.73 C 8.723 14.064 8.592 14.386 8.358 14.624 C 8.124 14.862 7.804 14.997 7.47 15 C 7.187 15.003 6.911 14.907 6.69 14.73"
        fill="#ffffff"/>
    <path
        id="path_20"
        d="M 7.47 15.13 C 7.158 15.13 6.854 15.024 6.61 14.83 C 6.591 14.812 6.578 14.789 6.573 14.763 C 6.568 14.737 6.572 14.71 6.583 14.687 C 6.594 14.663 6.612 14.644 6.635 14.631 C 6.658 14.619 6.685 14.614 6.711 14.617 C 6.737 14.62 6.761 14.632 6.78 14.65 C 7.008 14.834 7.3 14.923 7.592 14.896 C 7.885 14.87 8.156 14.73 8.347 14.507 C 8.538 14.285 8.636 13.996 8.618 13.703 C 8.6 13.41 8.469 13.135 8.252 12.937 C 8.036 12.739 7.75 12.633 7.456 12.641 C 7.163 12.65 6.884 12.773 6.68 12.984 C 6.475 13.194 6.36 13.476 6.36 13.77 C 6.36 13.921 6.391 14.071 6.45 14.21 C 6.458 14.241 6.456 14.273 6.443 14.302 C 6.43 14.331 6.408 14.355 6.38 14.37 C 6.36 14.381 6.338 14.385 6.315 14.383 C 6.293 14.381 6.271 14.371 6.254 14.357 C 6.237 14.342 6.225 14.322 6.22 14.3 C 6.142 14.134 6.105 13.953 6.11 13.77 C 6.11 13.404 6.255 13.053 6.514 12.794 C 6.773 12.535 7.124 12.39 7.49 12.39 C 7.856 12.39 8.207 12.535 8.466 12.794 C 8.725 13.053 8.87 13.404 8.87 13.77 C 8.87 14.136 8.725 14.487 8.466 14.746 C 8.207 15.005 7.856 15.15 7.49 15.15 Z"
        fill="#053361"/>
    <path
        id="path_21"
        d="M 22.79 13.75 M 20.6 13.75 C 20.6 13.169 20.831 12.612 21.241 12.201 C 21.652 11.791 22.209 11.56 22.79 11.56 C 23.371 11.56 23.928 11.791 24.339 12.201 C 24.749 12.612 24.98 13.169 24.98 13.75 C 24.98 14.331 24.749 14.888 24.339 15.299 C 23.928 15.709 23.371 15.94 22.79 15.94 C 22.209 15.94 21.652 15.709 21.241 15.299 C 20.831 14.888 20.6 14.331 20.6 13.75"
        fill="#dedfe0"/>
    <path
        id="path_22"
        d="M 22.8 16.2 C 22.154 16.197 21.534 15.938 21.079 15.479 C 20.623 15.021 20.368 14.4 20.37 13.753 C 20.372 13.107 20.63 12.487 21.088 12.031 C 21.546 11.575 22.167 11.319 22.813 11.32 C 23.46 11.321 24.08 11.579 24.537 12.036 C 24.993 12.493 25.25 13.114 25.25 13.76 C 25.25 14.189 25.137 14.611 24.921 14.983 C 24.706 15.354 24.397 15.663 24.024 15.876 C 23.652 16.09 23.229 16.202 22.8 16.2 Z M 22.8 11.82 C 22.286 11.823 21.794 12.029 21.432 12.394 C 21.071 12.759 20.868 13.253 20.87 13.767 C 20.872 14.28 21.078 14.773 21.442 15.135 C 21.806 15.498 22.3 15.701 22.813 15.7 C 23.327 15.699 23.82 15.494 24.183 15.131 C 24.546 14.767 24.75 14.274 24.75 13.76 C 24.75 13.418 24.66 13.083 24.488 12.787 C 24.317 12.492 24.071 12.246 23.774 12.077 C 23.478 11.907 23.142 11.818 22.8 11.82 Z"
        fill="#053361"/>
    <path
        id="path_23"
        d="M 22.79 13.75 M 21.54 13.75 C 21.54 13.419 21.672 13.1 21.906 12.866 C 22.14 12.632 22.459 12.5 22.79 12.5 C 23.121 12.5 23.44 12.632 23.674 12.866 C 23.908 13.1 24.04 13.419 24.04 13.75 C 24.04 14.081 23.908 14.4 23.674 14.634 C 23.44 14.868 23.121 15 22.79 15 C 22.459 15 22.14 14.868 21.906 14.634 C 21.672 14.4 21.54 14.081 21.54 13.75"
        fill="#ffffff"/>
    <path
        id="path_24"
        d="M 20.6 14 L 10.8 14 C 10.734 14 10.67 13.974 10.623 13.927 C 10.576 13.88 10.55 13.816 10.55 13.75 C 10.55 13.684 10.576 13.62 10.623 13.573 C 10.67 13.526 10.734 13.5 10.8 13.5 L 20.6 13.5 C 20.666 13.5 20.73 13.526 20.777 13.573 C 20.824 13.62 20.85 13.684 20.85 13.75 C 20.85 13.816 20.824 13.88 20.777 13.927 C 20.73 13.974 20.666 14 20.6 14 Z M 3.6 10.92 C 3.579 10.92 3.559 10.915 3.541 10.904 C 3.524 10.894 3.509 10.878 3.5 10.86 C 3.485 10.845 3.474 10.827 3.469 10.806 C 3.463 10.786 3.463 10.764 3.469 10.744 C 3.474 10.723 3.485 10.705 3.5 10.69 C 4.069 10.356 4.692 10.122 5.34 10 L 5.21 9.8 L 3.6 9.8 C 3.578 9.8 3.556 9.794 3.537 9.782 C 3.518 9.771 3.503 9.754 3.493 9.734 C 3.482 9.714 3.478 9.692 3.48 9.67 C 3.468 9.644 3.466 9.615 3.473 9.588 C 3.48 9.561 3.497 9.537 3.52 9.521 C 3.544 9.505 3.572 9.497 3.6 9.5 L 5.27 9.5 C 5.312 9.502 5.351 9.52 5.38 9.55 L 5.66 9.95 C 5.67 9.969 5.675 9.989 5.675 10.01 C 5.675 10.031 5.67 10.051 5.66 10.07 C 5.652 10.089 5.64 10.106 5.624 10.12 C 5.608 10.134 5.59 10.144 5.57 10.15 C 4.893 10.276 4.245 10.527 3.66 10.89 Z M 27.28 11.34 C 27.074 11.361 26.866 11.361 26.66 11.34 C 26.66 11.34 24.74 10.84 24.74 10.34 C 24.74 10.14 24.84 9.92 25.37 9.92 L 27 9.92 C 27.032 9.92 27.062 9.933 27.085 9.955 C 27.107 9.978 27.12 10.008 27.12 10.04 C 27.122 10.062 27.118 10.084 27.107 10.104 C 27.097 10.124 27.082 10.141 27.063 10.152 C 27.044 10.164 27.022 10.17 27 10.17 L 25.37 10.17 C 24.99 10.17 24.99 10.29 24.99 10.34 C 25.511 10.683 26.091 10.927 26.7 11.06 C 27.033 11.091 27.367 11.091 27.7 11.06 C 27.76 11.06 27.83 11.11 27.83 11.18 C 27.832 11.202 27.828 11.224 27.817 11.244 C 27.807 11.264 27.792 11.281 27.773 11.292 C 27.754 11.304 27.732 11.31 27.71 11.31 Z M 12.75 9.74 L 11.75 9.74 C 11.728 9.74 11.706 9.734 11.687 9.722 C 11.668 9.711 11.653 9.694 11.643 9.674 C 11.632 9.654 11.628 9.632 11.63 9.61 C 11.63 9.578 11.643 9.548 11.665 9.525 C 11.688 9.503 11.718 9.49 11.75 9.49 L 12.75 9.49 C 12.782 9.49 12.812 9.503 12.835 9.525 C 12.857 9.548 12.87 9.578 12.87 9.61 C 12.872 9.632 12.868 9.654 12.857 9.674 C 12.847 9.694 12.832 9.711 12.813 9.722 C 12.794 9.734 12.772 9.74 12.75 9.74 Z M 16 9.74 L 15 9.74 C 14.978 9.74 14.956 9.734 14.937 9.722 C 14.918 9.711 14.903 9.694 14.893 9.674 C 14.882 9.654 14.878 9.632 14.88 9.61 C 14.88 9.578 14.893 9.548 14.915 9.525 C 14.938 9.503 14.968 9.49 15 9.49 L 16 9.49 C 16.033 9.49 16.064 9.502 16.089 9.524 C 16.113 9.547 16.127 9.577 16.13 9.61 C 16.13 9.644 16.116 9.678 16.092 9.702 C 16.068 9.726 16.034 9.74 16 9.74 Z M 20 13 L 9.48 13 C 9.458 13 9.436 12.994 9.417 12.982 C 9.398 12.971 9.383 12.954 9.373 12.934 C 9.362 12.914 9.358 12.892 9.36 12.87 C 9.36 12.838 9.373 12.808 9.395 12.785 C 9.418 12.763 9.448 12.75 9.48 12.75 L 19.84 12.75 C 19.901 12.408 20.036 12.084 20.237 11.8 C 20.437 11.517 20.698 11.281 21 11.11 C 21.015 11.095 21.033 11.084 21.054 11.079 C 21.074 11.073 21.096 11.073 21.116 11.079 C 21.137 11.084 21.155 11.095 21.17 11.11 C 21.185 11.141 21.189 11.176 21.179 11.21 C 21.17 11.243 21.149 11.271 21.12 11.29 C 20.844 11.458 20.611 11.687 20.438 11.959 C 20.264 12.231 20.156 12.539 20.12 12.86 C 20.124 12.883 20.121 12.907 20.111 12.929 C 20.102 12.95 20.086 12.968 20.066 12.981 C 20.047 12.994 20.024 13 20 13 Z M 5.45 13 C 5.055 12.986 4.67 12.873 4.331 12.67 C 3.991 12.467 3.709 12.181 3.51 11.84 C 3.496 11.809 3.495 11.775 3.506 11.743 C 3.517 11.711 3.54 11.685 3.57 11.67 C 3.601 11.66 3.634 11.661 3.664 11.674 C 3.693 11.687 3.717 11.711 3.73 11.74 C 3.922 12.035 4.182 12.28 4.488 12.454 C 4.794 12.628 5.138 12.726 5.49 12.74 C 5.511 12.743 5.531 12.752 5.548 12.766 C 5.564 12.779 5.577 12.797 5.584 12.817 C 5.592 12.837 5.594 12.859 5.59 12.88 C 5.588 12.903 5.581 12.925 5.568 12.944 C 5.555 12.963 5.537 12.978 5.516 12.988 C 5.496 12.998 5.473 13.002 5.45 13 Z M 19.75 8.63 L 20.35 9.08 M 20.35 9.33 C 20.296 9.332 20.243 9.314 20.2 9.28 L 19.6 8.83 C 19.558 8.798 19.526 8.754 19.511 8.704 C 19.495 8.653 19.496 8.599 19.513 8.549 C 19.53 8.499 19.562 8.455 19.606 8.425 C 19.649 8.395 19.701 8.379 19.754 8.38 C 19.807 8.38 19.858 8.398 19.9 8.43 L 20.5 8.88 C 20.535 8.906 20.563 8.941 20.58 8.982 C 20.597 9.022 20.603 9.066 20.598 9.11 C 20.593 9.153 20.576 9.195 20.55 9.23 C 20.528 9.262 20.498 9.288 20.463 9.306 C 20.428 9.323 20.389 9.332 20.35 9.33 Z"
        fill="#053361"/>
    <path
        id="path_25"
        d="M 24.05 13.75 C 24.052 14.036 23.957 14.314 23.78 14.539 C 23.604 14.764 23.356 14.922 23.077 14.987 C 22.799 15.052 22.507 15.021 22.249 14.898 C 21.99 14.775 21.782 14.568 21.657 14.311 C 21.532 14.053 21.498 13.761 21.561 13.482 C 21.624 13.204 21.78 12.954 22.003 12.776 C 22.227 12.597 22.504 12.5 22.79 12.5 C 22.965 12.496 23.139 12.53 23.3 12.6"
        fill="#ffffff"/>
    <path
        id="path_26"
        d="M 22.8 15.13 C 22.434 15.13 22.083 14.985 21.824 14.726 C 21.565 14.467 21.42 14.116 21.42 13.75 C 21.42 13.384 21.565 13.033 21.824 12.774 C 22.083 12.515 22.434 12.37 22.8 12.37 C 22.993 12.368 23.184 12.409 23.36 12.49 C 23.389 12.503 23.413 12.527 23.426 12.556 C 23.439 12.586 23.44 12.619 23.43 12.65 C 23.415 12.68 23.389 12.704 23.358 12.717 C 23.327 12.73 23.292 12.731 23.26 12.72 C 23.117 12.651 22.959 12.616 22.8 12.62 C 22.544 12.62 22.296 12.707 22.095 12.867 C 21.895 13.026 21.755 13.249 21.698 13.499 C 21.641 13.748 21.671 14.01 21.782 14.24 C 21.893 14.471 22.079 14.657 22.31 14.768 C 22.54 14.879 22.802 14.909 23.051 14.852 C 23.301 14.795 23.524 14.655 23.683 14.455 C 23.843 14.254 23.93 14.006 23.93 13.75 C 23.93 13.716 23.944 13.682 23.968 13.658 C 23.992 13.634 24.026 13.62 24.06 13.62 C 24.093 13.623 24.123 13.637 24.146 13.661 C 24.168 13.686 24.18 13.717 24.18 13.75 C 24.18 14.116 24.035 14.467 23.776 14.726 C 23.517 14.985 23.166 15.13 22.8 15.13 Z"
        fill="#053361"/>
    <path
        id="path_27"
        d="M 23.84 13.06 C 23.89 13.135 23.93 13.215 23.96 13.3"
        fill="#ffffff"/>
    <path
        id="path_28"
        d="M 24 13.43 C 23.976 13.429 23.952 13.421 23.933 13.407 C 23.913 13.393 23.898 13.373 23.89 13.35 C 23.86 13.268 23.82 13.191 23.77 13.12 C 23.753 13.092 23.748 13.059 23.755 13.027 C 23.763 12.995 23.782 12.968 23.81 12.95 C 23.838 12.933 23.871 12.928 23.903 12.935 C 23.935 12.943 23.963 12.962 23.98 12.99 C 24.038 13.073 24.085 13.164 24.12 13.26 C 24.129 13.28 24.131 13.302 24.128 13.324 C 24.125 13.345 24.116 13.366 24.103 13.383 C 24.089 13.4 24.071 13.413 24.05 13.42 Z"
        fill="#053361"/>
    <path
        id="path_29"
        d="M 4 8.72 L 15.87 8.72 C 14.77 7.697 13.365 7.061 11.87 6.91 L 5.08 6.91"
        fill="#dedfe0"/>
    <path
        id="path_30"
        d="M 3.9 8.63 L 19.76 8.63 C 18.675 7.614 17.288 6.979 15.81 6.82 L 7 6.85"
        fill="#dedfe0"/>
    <path
        id="path_31"
        d="M 19.75 8.88 L 3.9 8.88 C 3.834 8.88 3.77 8.854 3.723 8.807 C 3.676 8.76 3.65 8.696 3.65 8.63 C 3.65 8.564 3.676 8.5 3.723 8.453 C 3.77 8.406 3.834 8.38 3.9 8.38 L 19 8.38 C 18.09 7.631 16.974 7.174 15.8 7.07 L 7 7.1 C 6.935 7.1 6.873 7.075 6.827 7.03 C 6.78 6.986 6.753 6.925 6.75 6.86 C 6.75 6.793 6.776 6.728 6.823 6.68 C 6.869 6.631 6.933 6.603 7 6.6 L 15.83 6.6 C 16.25 6.6 17.77 6.74 19.93 8.46 C 19.969 8.494 19.997 8.539 20.011 8.588 C 20.025 8.638 20.025 8.691 20.01 8.74 C 19.985 8.789 19.946 8.828 19.898 8.854 C 19.849 8.879 19.794 8.888 19.74 8.88 Z M 4.9 7.12 C 4.834 7.12 4.77 7.094 4.723 7.047 C 4.676 7 4.65 6.936 4.65 6.87 C 4.65 6.804 4.676 6.74 4.723 6.693 C 4.77 6.646 4.834 6.62 4.9 6.62 L 5.9 6.62 C 5.966 6.62 6.03 6.646 6.077 6.693 C 6.124 6.74 6.15 6.804 6.15 6.87 C 6.152 6.913 6.142 6.956 6.121 6.994 C 6.101 7.032 6.07 7.064 6.033 7.086 C 5.996 7.108 5.953 7.12 5.91 7.12 L 4.91 7.12 Z"
        fill="#053361"/>
    <path
        id="path_32"
        d="M 8.1 8.75 C 8.067 8.743 8.038 8.723 8.02 8.695 C 8.001 8.667 7.994 8.633 8 8.6 L 8.36 7 C 8.369 6.966 8.391 6.937 8.421 6.919 C 8.45 6.901 8.486 6.894 8.52 6.9 C 8.542 6.908 8.562 6.921 8.578 6.938 C 8.594 6.956 8.605 6.977 8.61 7 L 8.23 8.66 C 8.22 8.686 8.202 8.709 8.179 8.725 C 8.156 8.741 8.128 8.75 8.1 8.75 Z M 14.06 12.5 C 14.028 12.5 13.998 12.487 13.975 12.465 C 13.953 12.442 13.94 12.412 13.94 12.38 C 13.817 10.21 13.54 8.051 13.11 5.92 C 13.106 5.899 13.108 5.877 13.116 5.857 C 13.123 5.837 13.136 5.819 13.152 5.806 C 13.169 5.792 13.189 5.783 13.21 5.78 C 13.23 5.774 13.252 5.774 13.272 5.78 C 13.292 5.786 13.31 5.798 13.324 5.814 C 13.338 5.829 13.347 5.849 13.35 5.87 C 13.785 8.017 14.066 10.193 14.19 12.38 C 14.19 12.402 14.184 12.424 14.172 12.443 C 14.161 12.462 14.144 12.477 14.124 12.487 C 14.104 12.498 14.082 12.502 14.06 12.5 Z M 17.89 8.92 L 18.63 8.92 C 18.707 8.92 18.781 8.889 18.835 8.835 C 18.889 8.781 18.92 8.707 18.92 8.63 C 18.92 8.553 18.889 8.479 18.835 8.425 C 18.781 8.371 18.707 8.34 18.63 8.34 L 17.89 8.34 Z"
        fill="#053361"/>
    <path
        id="path_33"
        d="M 18.63 9.17 L 17.89 9.17 C 17.824 9.17 17.76 9.144 17.713 9.097 C 17.666 9.05 17.64 8.986 17.64 8.92 L 17.64 8.34 C 17.64 8.274 17.666 8.21 17.713 8.163 C 17.76 8.116 17.824 8.09 17.89 8.09 L 18.63 8.09 C 18.773 8.09 18.911 8.147 19.012 8.248 C 19.113 8.349 19.17 8.487 19.17 8.63 C 19.17 8.773 19.113 8.911 19.012 9.012 C 18.911 9.113 18.773 9.17 18.63 9.17 Z M 18.13 8.67 L 18.63 8.67 L 18.63 8.6 L 18.13 8.6 Z"
        fill="#053361"/>
</svg>
