<svg
    xmlns="http://www.w3.org/2000/svg"
    viewBox="0 0 31 17"
    id="vector">
    <path
        id="path_12"
        d="M 28.08 13.52 L 30.41 13.52 C 30.41 13.52 30.71 13.37 30.71 13.17 C 30.71 12.69 30.81 12.27 30.28 12.07 L 30.28 9.37 C 30.112 9.215 29.924 9.083 29.72 8.98 C 29.65 8.95 28.12 8.68 26.42 8.51 L 24.02 8.31 L 20.54 6.14 C 19.995 5.881 19.403 5.738 18.8 5.72 C 18.7 5.71 13.13 5.58 12.3 5.64 C 11.47 5.7 10.9 5.74 10.8 6.11 C 10.653 6.901 10.546 7.698 10.48 8.5 L 1.73 8.5 C 1.43 8.5 0.96 8.46 0.83 8.8 C 0.601 9.994 0.577 11.218 0.76 12.42 L 0.34 12.42 C 0.242 12.705 0.242 13.015 0.34 13.3 C 0.39 13.46 0.47 13.52 0.91 13.58 C 2.187 13.693 3.469 13.726 4.75 13.68"
        fill="#ffffff"/>
    <path
        id="path_13"
        d="M 3.1 13.93 C 2.365 13.942 1.631 13.909 0.9 13.83 C 0.44 13.76 0.22 13.69 0.1 13.38 C -0.019 13.021 -0.008 12.632 0.13 12.28 C 0.156 12.249 0.188 12.224 0.224 12.207 C 0.26 12.19 0.3 12.181 0.34 12.18 L 0.48 12.18 C 0.33 11.021 0.371 9.846 0.6 8.7 C 0.77 8.23 1.32 8.24 1.64 8.24 L 10.27 8.24 L 10.57 6.04 C 10.73 5.49 11.41 5.44 12.27 5.39 C 13.07 5.34 18.62 5.45 18.82 5.47 C 19.451 5.494 20.071 5.647 20.64 5.92 C 21.44 6.32 23.69 7.82 24.1 8.07 C 26.012 8.18 27.916 8.407 29.8 8.75 C 29.8 8.75 30.52 9.09 30.52 9.38 L 30.52 11.91 C 30.695 12.023 30.831 12.188 30.91 12.381 C 30.988 12.574 31.006 12.787 30.96 12.99 L 30.96 13.17 C 30.96 13.51 30.58 13.71 30.5 13.74 C 30.469 13.757 30.435 13.767 30.4 13.77 L 28.07 13.77 C 28.004 13.77 27.94 13.744 27.893 13.697 C 27.846 13.65 27.82 13.586 27.82 13.52 C 27.82 13.454 27.846 13.39 27.893 13.343 C 27.94 13.296 28.004 13.27 28.07 13.27 L 30.34 13.27 C 30.391 13.243 30.435 13.206 30.47 13.16 L 30.47 12.96 C 30.47 12.54 30.47 12.4 30.19 12.3 C 30.14 12.283 30.097 12.251 30.066 12.208 C 30.035 12.165 30.019 12.113 30.02 12.06 L 30.02 9.46 C 29.892 9.365 29.759 9.278 29.62 9.2 C 27.766 8.865 25.892 8.648 24.01 8.55 C 23.964 8.548 23.919 8.535 23.88 8.51 C 23.85 8.5 21.28 6.77 20.42 6.36 C 19.923 6.119 19.382 5.983 18.83 5.96 C 18.53 5.94 13.1 5.82 12.31 5.86 C 11.71 5.9 11.11 5.94 11.04 6.16 C 10.94 6.49 10.74 8.19 10.74 8.48 C 10.737 8.545 10.71 8.606 10.663 8.65 C 10.617 8.695 10.555 8.72 10.49 8.72 L 1.64 8.72 C 1.44 8.72 1.12 8.72 1.07 8.85 C 0.856 10.005 0.836 11.188 1.01 12.35 C 1.02 12.399 1.015 12.45 0.996 12.496 C 0.976 12.543 0.944 12.582 0.902 12.61 C 0.859 12.637 0.81 12.651 0.76 12.65 L 0.53 12.65 C 0.513 12.838 0.53 13.028 0.58 13.21 C 0.6 13.24 0.68 13.27 0.95 13.31 C 1.937 13.409 2.929 13.442 3.92 13.41 L 4.75 13.4 C 4.816 13.4 4.88 13.426 4.927 13.473 C 4.974 13.52 5 13.584 5 13.65 C 5 13.716 4.974 13.78 4.927 13.827 C 4.88 13.874 4.816 13.9 4.75 13.9 L 3.92 13.9 L 3.09 13.9 Z M 12.97 10.1 L 11.95 10.1 C 11.924 10.111 11.894 10.113 11.867 10.106 C 11.839 10.098 11.814 10.082 11.797 10.059 C 11.779 10.036 11.77 10.009 11.77 9.98 C 11.77 9.951 11.779 9.924 11.797 9.901 C 11.814 9.878 11.839 9.862 11.867 9.854 C 11.894 9.847 11.924 9.849 11.95 9.86 L 12.97 9.86 C 13.001 9.851 13.035 9.854 13.064 9.869 C 13.093 9.883 13.115 9.908 13.127 9.938 C 13.139 9.968 13.139 10.002 13.127 10.032 C 13.115 10.062 13.093 10.087 13.064 10.101 C 13.035 10.116 13.001 10.119 12.97 10.11 Z M 18.75 10.1 L 17.73 10.1 C 17.698 10.087 17.673 10.061 17.66 10.03 C 17.647 9.998 17.647 9.962 17.66 9.93 C 17.673 9.899 17.698 9.873 17.73 9.86 L 18.75 9.86 C 18.777 9.868 18.801 9.884 18.818 9.907 C 18.835 9.929 18.844 9.957 18.844 9.985 C 18.844 10.013 18.835 10.041 18.818 10.063 C 18.801 10.086 18.777 10.102 18.75 10.11 Z"
        fill="#053361"/>
    <path
        id="path_14"
        d="M 3.74 16.19 C 3.74 16.341 5.071 16.486 7.436 16.593 C 9.802 16.7 13.014 16.76 16.36 16.76 C 19.706 16.76 22.918 16.7 25.284 16.593 C 27.649 16.486 28.98 16.341 28.98 16.19 C 28.98 16.039 27.649 15.894 25.284 15.787 C 22.918 15.68 19.706 15.62 16.36 15.62 C 13.014 15.62 9.802 15.68 7.436 15.787 C 5.071 15.894 3.74 16.039 3.74 16.19 Z"
        fill="#dedfe0"/>
    <path
        id="path_15"
        d="M 7.16 13.54 M 4.75 13.54 C 4.75 12.901 5.004 12.288 5.456 11.836 C 5.908 11.384 6.521 11.13 7.16 11.13 C 7.799 11.13 8.412 11.384 8.864 11.836 C 9.316 12.288 9.57 12.901 9.57 13.54 C 9.57 14.179 9.316 14.792 8.864 15.244 C 8.412 15.696 7.799 15.95 7.16 15.95 C 6.521 15.95 5.908 15.696 5.456 15.244 C 5.004 14.792 4.75 14.179 4.75 13.54"
        fill="#dedfe0"/>
    <path
        id="path_16"
        d="M 7.16 16.2 C 6.455 16.2 5.778 15.92 5.279 15.421 C 4.78 14.922 4.5 14.245 4.5 13.54 C 4.5 12.835 4.78 12.158 5.279 11.659 C 5.778 11.16 6.455 10.88 7.16 10.88 C 7.865 10.88 8.542 11.16 9.041 11.659 C 9.54 12.158 9.82 12.835 9.82 13.54 C 9.82 14.245 9.54 14.922 9.041 15.421 C 8.542 15.92 7.865 16.2 7.16 16.2 Z M 7.16 11.38 C 6.587 11.38 6.038 11.608 5.633 12.013 C 5.228 12.418 5 12.967 5 13.54 C 5 14.113 5.228 14.662 5.633 15.067 C 6.038 15.472 6.587 15.7 7.16 15.7 C 7.733 15.7 8.282 15.472 8.687 15.067 C 9.092 14.662 9.32 14.113 9.32 13.54 C 9.322 13.16 9.223 12.786 9.034 12.456 C 8.845 12.126 8.572 11.852 8.243 11.661 C 7.914 11.47 7.54 11.37 7.16 11.37 Z"
        fill="#053361"/>
    <path
        id="path_17"
        d="M 7.16 13.54 M 5.78 13.54 C 5.78 13.249 5.872 12.965 6.044 12.729 C 6.215 12.493 6.456 12.318 6.734 12.228 C 7.011 12.137 7.309 12.137 7.586 12.228 C 7.864 12.318 8.105 12.493 8.276 12.729 C 8.448 12.965 8.54 13.249 8.54 13.54 C 8.54 13.906 8.395 14.257 8.136 14.516 C 7.877 14.775 7.526 14.92 7.16 14.92 C 6.794 14.92 6.443 14.775 6.184 14.516 C 5.925 14.257 5.78 13.906 5.78 13.54"
        fill="#ffffff"/>
    <path
        id="path_18"
        d="M 25.67 13.54 M 23.26 13.54 C 23.26 12.901 23.514 12.288 23.966 11.836 C 24.418 11.384 25.031 11.13 25.67 11.13 C 26.309 11.13 26.922 11.384 27.374 11.836 C 27.826 12.288 28.08 12.901 28.08 13.54 C 28.08 14.179 27.826 14.792 27.374 15.244 C 26.922 15.696 26.309 15.95 25.67 15.95 C 25.031 15.95 24.418 15.696 23.966 15.244 C 23.514 14.792 23.26 14.179 23.26 13.54"
        fill="#dedfe0"/>
    <path
        id="path_19"
        d="M 25.67 16.2 C 24.965 16.2 24.288 15.92 23.789 15.421 C 23.29 14.922 23.01 14.245 23.01 13.54 C 23.01 12.835 23.29 12.158 23.789 11.659 C 24.288 11.16 24.965 10.88 25.67 10.88 C 26.375 10.88 27.052 11.16 27.551 11.659 C 28.05 12.158 28.33 12.835 28.33 13.54 C 28.33 14.245 28.05 14.922 27.551 15.421 C 27.052 15.92 26.375 16.2 25.67 16.2 Z M 25.67 11.38 C 25.097 11.38 24.548 11.608 24.143 12.013 C 23.738 12.418 23.51 12.967 23.51 13.54 C 23.51 14.113 23.738 14.662 24.143 15.067 C 24.548 15.472 25.097 15.7 25.67 15.7 C 26.243 15.7 26.792 15.472 27.197 15.067 C 27.602 14.662 27.83 14.113 27.83 13.54 C 27.832 13.16 27.733 12.786 27.544 12.456 C 27.355 12.126 27.082 11.852 26.753 11.661 C 26.424 11.47 26.05 11.37 25.67 11.37 Z"
        fill="#053361"/>
    <path
        id="path_20"
        d="M 25.67 13.54 M 24.29 13.54 C 24.29 13.174 24.435 12.823 24.694 12.564 C 24.953 12.305 25.304 12.16 25.67 12.16 C 26.036 12.16 26.387 12.305 26.646 12.564 C 26.905 12.823 27.05 13.174 27.05 13.54 C 27.05 13.906 26.905 14.257 26.646 14.516 C 26.387 14.775 26.036 14.92 25.67 14.92 C 25.304 14.92 24.953 14.775 24.694 14.516 C 24.435 14.257 24.29 13.906 24.29 13.54"
        fill="#ffffff"/>
    <path
        id="path_21"
        d="M 24.32 13.36 C 24.296 13.36 24.273 13.354 24.254 13.341 C 24.234 13.328 24.218 13.31 24.209 13.289 C 24.199 13.267 24.196 13.243 24.2 13.22 C 24.265 12.912 24.426 12.632 24.66 12.42 C 24.68 12.402 24.705 12.391 24.732 12.388 C 24.759 12.385 24.786 12.391 24.809 12.404 C 24.833 12.418 24.851 12.439 24.862 12.463 C 24.873 12.488 24.876 12.516 24.87 12.542 C 24.864 12.568 24.85 12.592 24.83 12.61 C 24.635 12.784 24.498 13.015 24.44 13.27 C 24.435 13.298 24.421 13.324 24.398 13.342 C 24.376 13.361 24.349 13.37 24.32 13.37 Z M 25.67 15.04 C 25.326 15.039 24.993 14.92 24.726 14.704 C 24.458 14.487 24.273 14.186 24.2 13.85 C 24.183 13.821 24.177 13.787 24.184 13.754 C 24.192 13.722 24.211 13.693 24.239 13.674 C 24.267 13.656 24.301 13.649 24.334 13.655 C 24.367 13.661 24.396 13.679 24.416 13.706 C 24.436 13.733 24.444 13.767 24.44 13.8 C 24.508 14.108 24.69 14.379 24.949 14.558 C 25.209 14.737 25.526 14.812 25.838 14.767 C 26.15 14.722 26.434 14.561 26.632 14.316 C 26.83 14.071 26.929 13.76 26.908 13.446 C 26.886 13.131 26.747 12.836 26.518 12.62 C 26.288 12.404 25.985 12.282 25.67 12.28 C 25.544 12.281 25.42 12.301 25.3 12.34 C 25.271 12.343 25.242 12.335 25.217 12.319 C 25.193 12.303 25.174 12.279 25.165 12.252 C 25.156 12.224 25.156 12.194 25.166 12.166 C 25.176 12.139 25.195 12.115 25.22 12.1 C 25.365 12.054 25.517 12.03 25.67 12.03 C 26.068 12.03 26.449 12.188 26.731 12.469 C 27.012 12.751 27.17 13.132 27.17 13.53 C 27.17 13.928 27.012 14.309 26.731 14.591 C 26.449 14.872 26.068 15.03 25.67 15.03 Z M 23.26 14 L 10.7 14 C 10.634 14 10.57 13.974 10.523 13.927 C 10.476 13.88 10.45 13.816 10.45 13.75 C 10.45 13.684 10.476 13.62 10.523 13.573 C 10.57 13.526 10.634 13.5 10.7 13.5 L 23.26 13.5 C 23.326 13.5 23.39 13.526 23.437 13.573 C 23.484 13.62 23.51 13.684 23.51 13.75 C 23.51 13.816 23.484 13.88 23.437 13.927 C 23.39 13.974 23.326 14 23.26 14 Z M 4.76 12.7 L 2.36 12.7 C 1.876 12.684 1.392 12.65 0.91 12.6 C 0.877 12.595 0.848 12.578 0.827 12.552 C 0.807 12.526 0.797 12.493 0.8 12.46 C 0.803 12.439 0.812 12.419 0.826 12.402 C 0.839 12.386 0.857 12.373 0.877 12.366 C 0.897 12.358 0.919 12.356 0.94 12.36 L 2.36 12.46 L 4.76 12.46 C 4.786 12.449 4.816 12.447 4.843 12.454 C 4.871 12.462 4.896 12.478 4.913 12.501 C 4.931 12.524 4.94 12.551 4.94 12.58 C 4.94 12.609 4.931 12.636 4.913 12.659 C 4.896 12.682 4.871 12.698 4.843 12.706 C 4.816 12.713 4.786 12.711 4.76 12.7 Z"
        fill="#053361"/>
    <path
        id="path_22"
        d="M 12.3 8.63 L 18.35 8.73 C 18.93 8.74 19.35 9.2 19.93 9.2 L 22.17 9.24 C 22.4 9.24 22.29 8.77 22.27 8.66 C 22.09 8.08 21.45 7.86 20.95 7.6 C 20.189 7.116 19.333 6.803 18.44 6.68 L 12.8 6.6 C 12.4 6.6 11.94 6.57 11.9 7.08 L 11.84 8.18 C 11.84 8.26 11.82 8.56 12.3 8.63 Z"
        fill="#dedfe0"/>
    <path
        id="path_23"
        d="M 22.18 9.48 L 21.95 9.48 L 19.95 9.46 C 19.634 9.438 19.326 9.346 19.05 9.19 C 18.837 9.075 18.602 9.007 18.36 8.99 L 12.28 8.89 C 11.83 8.81 11.58 8.55 11.6 8.17 L 11.67 7.07 C 11.72 6.35 12.39 6.35 12.75 6.35 L 18.45 6.43 C 19.255 6.514 20.03 6.777 20.72 7.2 L 21.27 7.48 C 21.543 7.565 21.794 7.707 22.008 7.897 C 22.222 8.087 22.393 8.319 22.51 8.58 C 22.556 8.702 22.578 8.832 22.573 8.963 C 22.567 9.094 22.536 9.222 22.48 9.34 C 22.445 9.386 22.399 9.422 22.347 9.447 C 22.295 9.471 22.238 9.482 22.18 9.48 Z M 12.34 8.38 C 12.64 8.4 18.31 8.48 18.37 8.48 C 18.679 8.501 18.979 8.59 19.25 8.74 C 19.465 8.86 19.704 8.932 19.95 8.95 L 21.95 8.98 L 22.05 8.98 C 22.047 8.892 22.034 8.805 22.01 8.72 C 21.89 8.32 21.45 8.12 21.03 7.92 L 20.46 7.64 C 19.838 7.255 19.137 7.012 18.41 6.93 C 18.11 6.91 12.84 6.83 12.81 6.83 L 12.74 6.83 C 12.24 6.83 12.17 6.88 12.14 7.08 L 12.08 8.18 C 12.08 8.24 12.08 8.33 12.32 8.38 Z"
        fill="#053361"/>
    <path
        id="path_24"
        d="M 17.08 12.23 C 17.057 12.232 17.033 12.227 17.013 12.216 C 16.992 12.205 16.975 12.188 16.964 12.167 C 16.953 12.147 16.948 12.123 16.95 12.1 C 16.827 9.933 16.55 7.778 16.12 5.65 C 16.114 5.617 16.121 5.583 16.14 5.555 C 16.158 5.527 16.187 5.507 16.22 5.5 C 16.242 5.494 16.265 5.495 16.287 5.501 C 16.309 5.508 16.328 5.521 16.343 5.539 C 16.358 5.556 16.367 5.577 16.37 5.6 C 16.8 7.744 17.078 9.916 17.2 12.1 C 17.202 12.122 17.198 12.144 17.187 12.164 C 17.177 12.184 17.162 12.201 17.143 12.212 C 17.124 12.224 17.102 12.23 17.08 12.23 Z M 21.25 9.2 L 22 9.2 C 22.08 9.2 22.156 9.168 22.212 9.112 C 22.268 9.056 22.3 8.98 22.3 8.9 C 22.295 8.824 22.261 8.753 22.205 8.701 C 22.15 8.649 22.076 8.62 22 8.62 L 21.26 8.62 Z"
        fill="#053361"/>
    <path
        id="path_25"
        d="M 22 9.45 L 21.25 9.45 C 21.184 9.45 21.12 9.424 21.073 9.377 C 21.026 9.33 21 9.266 21 9.2 L 21 8.62 C 21 8.554 21.026 8.49 21.073 8.443 C 21.12 8.396 21.184 8.37 21.25 8.37 L 22 8.37 C 22.143 8.37 22.281 8.427 22.382 8.528 C 22.483 8.629 22.54 8.767 22.54 8.91 C 22.54 9.053 22.483 9.191 22.382 9.292 C 22.281 9.393 22.143 9.45 22 9.45 Z M 21.5 8.95 L 22 8.95 L 22 8.87 L 21.5 8.87 Z M 23.4 12.85 L 10.23 12.85 C 10.208 12.852 10.186 12.848 10.166 12.837 C 10.146 12.827 10.129 12.812 10.118 12.793 C 10.106 12.774 10.1 12.752 10.1 12.73 C 10.034 12.291 9.851 11.878 9.569 11.534 C 9.287 11.191 8.918 10.93 8.5 10.78 C 8.479 10.773 8.461 10.76 8.447 10.743 C 8.434 10.726 8.425 10.705 8.422 10.684 C 8.419 10.662 8.421 10.64 8.43 10.62 C 8.443 10.591 8.467 10.567 8.496 10.554 C 8.526 10.541 8.559 10.54 8.59 10.55 C 9.034 10.711 9.429 10.985 9.736 11.344 C 10.042 11.703 10.251 12.136 10.34 12.6 L 23.4 12.6 C 23.427 12.608 23.451 12.624 23.468 12.647 C 23.485 12.669 23.494 12.697 23.494 12.725 C 23.494 12.753 23.485 12.781 23.468 12.803 C 23.451 12.826 23.427 12.842 23.4 12.85 Z M 1.5 11.25 L 0.76 11.25 C 0.729 11.259 0.695 11.256 0.666 11.241 C 0.637 11.227 0.615 11.202 0.603 11.172 C 0.591 11.142 0.591 11.108 0.603 11.078 C 0.615 11.048 0.637 11.023 0.666 11.009 C 0.695 10.994 0.729 10.991 0.76 11 L 1.52 11 C 1.54 11 1.59 11 1.59 10.94 L 1.59 10.21 C 1.59 10.117 1.626 10.027 1.69 9.96 L 1.99 9.66 C 2.01 9.65 2.01 9.64 2.01 9.59 L 2.01 9.29 L 1.01 9.31 C 0.913 9.309 0.815 9.299 0.72 9.28 C 0.691 9.268 0.667 9.247 0.653 9.219 C 0.639 9.191 0.635 9.159 0.642 9.129 C 0.65 9.099 0.668 9.072 0.693 9.054 C 0.718 9.036 0.749 9.027 0.78 9.03 C 0.856 9.047 0.933 9.057 1.01 9.06 L 2.01 9.06 C 2.071 9.062 2.13 9.087 2.174 9.129 C 2.218 9.172 2.245 9.229 2.25 9.29 L 2.25 9.59 C 2.255 9.643 2.246 9.696 2.225 9.745 C 2.205 9.794 2.172 9.837 2.13 9.87 C 2.06 9.91 1.83 10.11 1.83 10.13 C 1.82 10.141 1.812 10.153 1.807 10.167 C 1.802 10.181 1.799 10.195 1.8 10.21 L 1.8 10.93 C 1.8 10.984 1.786 11.037 1.758 11.083 C 1.731 11.129 1.691 11.167 1.644 11.193 C 1.597 11.219 1.544 11.232 1.49 11.23 Z M 8.18 14.6 C 8.163 14.6 8.146 14.597 8.131 14.59 C 8.115 14.583 8.101 14.573 8.09 14.56 C 8.073 14.545 8.06 14.525 8.054 14.503 C 8.048 14.482 8.048 14.458 8.054 14.437 C 8.06 14.415 8.073 14.395 8.09 14.38 C 8.296 14.149 8.409 13.849 8.407 13.539 C 8.405 13.229 8.287 12.931 8.078 12.702 C 7.868 12.474 7.581 12.332 7.272 12.303 C 6.963 12.275 6.655 12.362 6.407 12.548 C 6.159 12.734 5.989 13.006 5.93 13.31 C 5.923 13.343 5.903 13.372 5.875 13.39 C 5.847 13.409 5.813 13.416 5.78 13.41 C 5.747 13.403 5.718 13.383 5.7 13.355 C 5.681 13.327 5.674 13.293 5.68 13.26 C 5.752 12.895 5.957 12.57 6.255 12.348 C 6.553 12.126 6.923 12.022 7.293 12.057 C 7.663 12.092 8.007 12.264 8.258 12.538 C 8.509 12.812 8.649 13.17 8.652 13.542 C 8.654 13.913 8.518 14.273 8.27 14.55 C 8.257 14.563 8.242 14.574 8.224 14.581 C 8.207 14.588 8.189 14.591 8.17 14.59 Z M 7.16 15.04 C 6.816 15.039 6.483 14.92 6.216 14.704 C 5.948 14.487 5.763 14.186 5.69 13.85 C 5.687 13.818 5.695 13.787 5.714 13.761 C 5.732 13.735 5.759 13.717 5.79 13.71 C 5.812 13.704 5.835 13.705 5.857 13.711 C 5.879 13.718 5.898 13.731 5.913 13.749 C 5.928 13.766 5.937 13.787 5.94 13.81 C 5.992 14.057 6.118 14.283 6.302 14.457 C 6.485 14.631 6.717 14.746 6.966 14.786 C 7.216 14.825 7.472 14.789 7.7 14.68 C 7.726 14.679 7.752 14.685 7.774 14.699 C 7.796 14.712 7.814 14.732 7.825 14.756 C 7.835 14.78 7.839 14.806 7.834 14.832 C 7.83 14.857 7.818 14.881 7.8 14.9 C 7.6 14.993 7.381 15.041 7.16 15.04 Z M 10.5 9.86 C 10.434 9.86 10.37 9.834 10.323 9.787 C 10.276 9.74 10.25 9.676 10.25 9.61 L 10.25 8.5 C 10.25 8.434 10.276 8.37 10.323 8.323 C 10.37 8.276 10.434 8.25 10.5 8.25 C 10.566 8.25 10.63 8.276 10.677 8.323 C 10.724 8.37 10.75 8.434 10.75 8.5 L 10.75 9.6 C 10.752 9.645 10.741 9.69 10.72 9.729 C 10.698 9.769 10.667 9.802 10.628 9.825 C 10.589 9.848 10.545 9.86 10.5 9.86 Z M 24.02 8.56 L 22.9 8.5 C 22.835 8.495 22.775 8.465 22.733 8.416 C 22.69 8.368 22.667 8.305 22.67 8.24 C 22.672 8.196 22.685 8.153 22.708 8.116 C 22.732 8.079 22.765 8.049 22.804 8.028 C 22.843 8.008 22.886 7.998 22.93 8 L 24.05 8.07 Z"
        fill="#053361"/>
    <path
        id="path_26"
        d="M 0.77 9.17 C 0.856 9.188 0.943 9.198 1.03 9.2 L 2.03 9.2 C 2.03 9.2 2.13 9.22 2.13 9.3 L 2.13 9.6 C 2.133 9.632 2.128 9.664 2.116 9.694 C 2.104 9.723 2.084 9.749 2.06 9.77 L 1.74 10.05 L 0.74 10.9 Z M 30.29 12.32 L 29.19 12.32 C 29.124 12.32 29.06 12.294 29.013 12.247 C 28.966 12.2 28.94 12.136 28.94 12.07 C 28.94 12.004 28.966 11.94 29.013 11.893 C 29.06 11.846 29.124 11.82 29.19 11.82 L 30.29 11.82 C 30.356 11.82 30.42 11.846 30.467 11.893 C 30.514 11.94 30.54 12.004 30.54 12.07 C 30.54 12.136 30.514 12.2 30.467 12.247 C 30.42 12.294 30.356 12.32 30.29 12.32 Z M 8.05 10.64 C 8.04 10.641 8.03 10.641 8.02 10.64 C 7.856 10.6 7.689 10.576 7.52 10.57 C 7.489 10.579 7.455 10.576 7.426 10.561 C 7.397 10.547 7.375 10.522 7.363 10.492 C 7.351 10.462 7.351 10.428 7.363 10.398 C 7.375 10.368 7.397 10.343 7.426 10.329 C 7.455 10.314 7.489 10.311 7.52 10.32 C 7.709 10.327 7.897 10.353 8.08 10.4 C 8.107 10.41 8.13 10.43 8.144 10.454 C 8.159 10.479 8.165 10.508 8.162 10.537 C 8.158 10.565 8.146 10.592 8.125 10.612 C 8.105 10.633 8.079 10.646 8.05 10.65 Z M 30.29 11.41 L 29.69 11.41 C 29.586 11.405 29.487 11.359 29.416 11.282 C 29.346 11.206 29.307 11.104 29.31 11 L 29.31 10.43 C 29.305 10.358 29.273 10.29 29.22 10.24 L 28.82 9.9 C 28.806 9.888 28.795 9.872 28.788 9.855 C 28.781 9.837 28.778 9.819 28.78 9.8 L 28.78 9.56 C 28.788 9.49 28.822 9.426 28.876 9.381 C 28.93 9.336 29 9.314 29.07 9.32 L 30.27 9.32 C 30.297 9.328 30.321 9.344 30.338 9.367 C 30.355 9.389 30.364 9.417 30.364 9.445 C 30.364 9.473 30.355 9.501 30.338 9.523 C 30.321 9.546 30.297 9.562 30.27 9.57 L 29.07 9.57 C 29.053 9.569 29.036 9.572 29.02 9.58 L 29.02 9.75 L 29.39 10.07 C 29.488 10.165 29.545 10.294 29.55 10.43 L 29.55 11 C 29.55 11 29.55 11.16 29.68 11.16 L 30.28 11.16 C 30.307 11.168 30.331 11.184 30.348 11.207 C 30.365 11.229 30.374 11.257 30.374 11.285 C 30.374 11.313 30.365 11.341 30.348 11.363 C 30.331 11.386 30.307 11.402 30.28 11.41 Z"
        fill="#053361"/>
    <path
        id="path_27"
        d="M 29.55 10.43 C 29.55 10.29 29.35 10.19 29.31 10.16 L 28.91 9.81 L 28.91 9.56 C 28.91 9.48 29.01 9.44 29.08 9.44 L 30.28 9.44 Z"
        fill="#053361"/>
</svg>
