<svg
    xmlns="http://www.w3.org/2000/svg"
    viewBox="0 0 31 17"
    id="vector">
    <path
        id="path_12"
        d="M 4.5 14.46 L 0.84 13.96 C 0.716 13.441 0.636 12.912 0.6 12.38 L 1.13 11.5 C 1.17 11.4 1.23 9.97 1.28 9.52 L 3.88 9.1 C 4.239 9.004 4.59 8.881 4.93 8.73 C 6.943 7.786 9.112 7.22 11.33 7.06 C 13.463 6.893 15.609 7.038 17.7 7.49 C 19.109 8.002 20.431 8.727 21.62 9.64 L 26.32 10.02 C 27.635 10.153 28.905 10.573 30.04 11.25 L 30.4 13.69 C 30.384 13.954 30.327 14.214 30.23 14.46 L 27.89 14.7"
        fill="#ffffff"/>
    <path
        id="path_13"
        d="M 27.9 14.95 C 27.834 14.952 27.769 14.929 27.721 14.884 C 27.672 14.839 27.643 14.776 27.641 14.71 C 27.638 14.644 27.662 14.579 27.707 14.531 C 27.751 14.482 27.814 14.453 27.88 14.45 C 28.611 14.39 29.341 14.317 30.07 14.23 C 30.12 14.06 30.153 13.886 30.17 13.71 L 29.82 11.39 C 28.734 10.784 27.537 10.403 26.3 10.27 L 21.6 9.89 C 21.553 9.886 21.508 9.869 21.47 9.84 C 20.307 8.947 19.016 8.236 17.64 7.73 C 15.572 7.285 13.449 7.144 11.34 7.31 C 9.183 7.444 7.071 7.991 5.12 8.92 L 5.04 8.96 C 4.678 9.12 4.303 9.251 3.92 9.35 L 1.52 9.75 L 1.45 10.65 C 1.457 10.969 1.427 11.288 1.36 11.6 C 1.32 11.7 1.02 12.18 0.86 12.44 C 0.895 12.878 0.962 13.312 1.06 13.74 L 4.54 14.21 C 4.605 14.22 4.663 14.255 4.702 14.307 C 4.741 14.359 4.759 14.425 4.75 14.49 C 4.747 14.535 4.731 14.578 4.705 14.614 C 4.679 14.65 4.643 14.679 4.601 14.696 C 4.56 14.713 4.514 14.718 4.47 14.71 L 0.8 14.2 C 0.75 14.191 0.705 14.167 0.669 14.131 C 0.633 14.095 0.609 14.05 0.6 14 C 0.471 13.468 0.387 12.926 0.35 12.38 C 0.346 12.327 0.36 12.274 0.39 12.23 L 0.89 11.39 L 0.94 10.61 L 1.02 9.48 C 1.025 9.427 1.048 9.377 1.084 9.337 C 1.12 9.297 1.168 9.27 1.22 9.26 L 3.82 8.86 C 4.162 8.765 4.496 8.645 4.82 8.5 L 4.89 8.47 C 6.904 7.51 9.083 6.946 11.31 6.81 C 13.467 6.64 15.636 6.789 17.75 7.25 C 19.167 7.753 20.497 8.475 21.69 9.39 L 26.34 9.77 C 27.702 9.913 29.017 10.353 30.19 11.06 C 30.239 11.1 30.271 11.157 30.28 11.22 L 30.65 13.66 C 30.642 13.977 30.574 14.289 30.45 14.58 C 30.43 14.617 30.401 14.648 30.367 14.67 C 30.332 14.693 30.292 14.707 30.25 14.71 C 30.19 14.71 28.45 14.91 27.9 14.95 Z"
        fill="#053361"/>
    <path
        id="path_14"
        d="M 3.29 16.19 C 3.29 16.341 4.654 16.486 7.08 16.593 C 9.506 16.7 12.799 16.76 16.23 16.76 C 19.661 16.76 22.954 16.7 25.38 16.593 C 27.806 16.486 29.17 16.341 29.17 16.19 C 29.17 16.039 27.806 15.894 25.38 15.787 C 22.954 15.68 19.661 15.62 16.23 15.62 C 12.799 15.62 9.506 15.68 7.08 15.787 C 4.654 15.894 3.29 16.039 3.29 16.19 Z"
        fill="#dedfe0"/>
    <path
        id="path_15"
        d="M 6.47 13.89 M 4.41 13.89 C 4.409 13.454 4.546 13.029 4.801 12.676 C 5.057 12.323 5.418 12.06 5.832 11.925 C 6.247 11.79 6.693 11.79 7.108 11.925 C 7.522 12.06 7.883 12.323 8.139 12.676 C 8.394 13.029 8.531 13.454 8.53 13.89 C 8.53 14.436 8.313 14.96 7.927 15.347 C 7.54 15.733 7.016 15.95 6.47 15.95 C 5.924 15.95 5.4 15.733 5.013 15.347 C 4.627 14.96 4.41 14.436 4.41 13.89"
        fill="#dedfe0"/>
    <path
        id="path_16"
        d="M 6.47 16.2 C 5.858 16.2 5.27 15.956 4.837 15.523 C 4.404 15.09 4.16 14.502 4.16 13.89 C 4.16 13.278 4.404 12.69 4.837 12.257 C 5.27 11.824 5.858 11.58 6.47 11.58 C 7.082 11.58 7.67 11.824 8.103 12.257 C 8.536 12.69 8.78 13.278 8.78 13.89 C 8.78 14.501 8.538 15.087 8.107 15.52 C 7.676 15.953 7.091 16.197 6.48 16.2 Z M 6.47 12.08 C 5.994 12.083 5.538 12.274 5.203 12.612 C 4.867 12.95 4.679 13.407 4.68 13.883 C 4.681 14.359 4.871 14.816 5.207 15.153 C 5.544 15.489 6.001 15.679 6.477 15.68 C 6.953 15.681 7.41 15.493 7.748 15.157 C 8.086 14.822 8.277 14.366 8.28 13.89 C 8.28 13.412 8.091 12.953 7.753 12.614 C 7.416 12.275 6.958 12.083 6.48 12.08 Z"
        fill="#053361"/>
    <path
        id="path_17"
        d="M 6.47 13.89 M 5.29 13.89 C 5.289 13.64 5.368 13.397 5.514 13.194 C 5.66 12.992 5.867 12.842 6.105 12.764 C 6.342 12.687 6.598 12.687 6.835 12.764 C 7.073 12.842 7.28 12.992 7.426 13.194 C 7.572 13.397 7.651 13.64 7.65 13.89 C 7.65 14.203 7.526 14.503 7.304 14.724 C 7.083 14.946 6.783 15.07 6.47 15.07 C 6.157 15.07 5.857 14.946 5.636 14.724 C 5.414 14.503 5.29 14.203 5.29 13.89"
        fill="#ffffff"/>
    <path
        id="path_18"
        d="M 5.4 14.34 C 5.291 14.074 5.283 13.777 5.377 13.506 C 5.471 13.235 5.661 13.007 5.911 12.865 C 6.161 12.724 6.454 12.678 6.735 12.738 C 7.017 12.797 7.267 12.957 7.438 13.188 C 7.61 13.418 7.691 13.703 7.668 13.99 C 7.644 14.276 7.517 14.544 7.309 14.743 C 7.102 14.942 6.829 15.059 6.542 15.071 C 6.255 15.084 5.973 14.991 5.75 14.81"
        fill="#ffffff"/>
    <path
        id="path_19"
        d="M 6.47 15.2 C 6.178 15.196 5.897 15.094 5.67 14.91 C 5.653 14.887 5.644 14.86 5.644 14.832 C 5.643 14.804 5.653 14.776 5.67 14.753 C 5.687 14.731 5.71 14.714 5.738 14.707 C 5.765 14.699 5.794 14.7 5.82 14.71 C 6.034 14.879 6.305 14.958 6.577 14.93 C 6.848 14.902 7.098 14.77 7.273 14.562 C 7.449 14.353 7.536 14.085 7.517 13.813 C 7.499 13.541 7.375 13.287 7.172 13.105 C 6.969 12.922 6.704 12.826 6.431 12.836 C 6.159 12.846 5.901 12.962 5.712 13.158 C 5.524 13.355 5.419 13.618 5.42 13.89 C 5.418 14.034 5.445 14.177 5.5 14.31 C 5.51 14.341 5.509 14.374 5.496 14.404 C 5.483 14.433 5.459 14.457 5.43 14.47 C 5.411 14.479 5.389 14.483 5.368 14.481 C 5.347 14.479 5.327 14.471 5.31 14.459 C 5.292 14.446 5.279 14.429 5.27 14.41 C 5.147 14.115 5.137 13.785 5.242 13.483 C 5.347 13.181 5.56 12.928 5.839 12.773 C 6.119 12.618 6.446 12.571 6.758 12.642 C 7.069 12.713 7.344 12.896 7.53 13.157 C 7.715 13.417 7.798 13.737 7.762 14.055 C 7.726 14.372 7.575 14.666 7.337 14.879 C 7.098 15.092 6.79 15.21 6.47 15.21 Z"
        fill="#053361"/>
    <path
        id="path_20"
        d="M 26 13.89 M 23.94 13.89 C 23.939 13.454 24.076 13.029 24.331 12.676 C 24.587 12.323 24.948 12.06 25.362 11.925 C 25.777 11.79 26.223 11.79 26.638 11.925 C 27.052 12.06 27.413 12.323 27.669 12.676 C 27.924 13.029 28.061 13.454 28.06 13.89 C 28.061 14.326 27.924 14.751 27.669 15.104 C 27.413 15.457 27.052 15.72 26.638 15.855 C 26.223 15.99 25.777 15.99 25.362 15.855 C 24.948 15.72 24.587 15.457 24.331 15.104 C 24.076 14.751 23.939 14.326 23.94 13.89"
        fill="#dedfe0"/>
    <path
        id="path_21"
        d="M 26 16.2 C 25.388 16.2 24.8 15.956 24.367 15.523 C 23.934 15.09 23.69 14.502 23.69 13.89 C 23.69 13.278 23.934 12.69 24.367 12.257 C 24.8 11.824 25.388 11.58 26 11.58 C 26.612 11.58 27.2 11.824 27.633 12.257 C 28.066 12.69 28.31 13.278 28.31 13.89 C 28.31 14.502 28.066 15.09 27.633 15.523 C 27.2 15.956 26.612 16.2 26 16.2 Z M 26 12.08 C 25.524 12.083 25.068 12.274 24.733 12.612 C 24.397 12.95 24.209 13.407 24.21 13.883 C 24.211 14.359 24.401 14.816 24.737 15.153 C 25.074 15.489 25.531 15.679 26.007 15.68 C 26.483 15.681 26.94 15.493 27.278 15.157 C 27.616 14.822 27.807 14.366 27.81 13.89 C 27.81 13.41 27.619 12.949 27.28 12.61 C 26.941 12.271 26.48 12.08 26 12.08 Z"
        fill="#053361"/>
    <path
        id="path_22"
        d="M 26 13.89 M 24.82 13.89 C 24.82 13.577 24.944 13.277 25.166 13.056 C 25.387 12.834 25.687 12.71 26 12.71 C 26.313 12.71 26.613 12.834 26.834 13.056 C 27.056 13.277 27.18 13.577 27.18 13.89 C 27.18 14.203 27.056 14.503 26.834 14.724 C 26.613 14.946 26.313 15.07 26 15.07 C 25.687 15.07 25.387 14.946 25.166 14.724 C 24.944 14.503 24.82 14.203 24.82 13.89"
        fill="#ffffff"/>
    <path
        id="path_23"
        d="M 25.36 12.9 C 25.49 12.815 25.637 12.757 25.79 12.73 C 26.081 12.677 26.382 12.736 26.632 12.895 C 26.882 13.054 27.064 13.301 27.14 13.587 C 27.217 13.873 27.182 14.178 27.045 14.44 C 26.907 14.702 26.676 14.903 26.397 15.003 C 26.118 15.102 25.811 15.093 25.539 14.977 C 25.266 14.861 25.047 14.647 24.925 14.377 C 24.803 14.107 24.787 13.801 24.88 13.52"
        fill="#ffffff"/>
    <path
        id="path_24"
        d="M 26 15.2 C 25.695 15.2 25.4 15.093 25.166 14.897 C 24.932 14.702 24.774 14.43 24.72 14.13 C 24.682 13.916 24.699 13.696 24.77 13.49 C 24.781 13.46 24.803 13.435 24.832 13.421 C 24.861 13.407 24.894 13.405 24.925 13.415 C 24.955 13.426 24.98 13.448 24.994 13.477 C 25.008 13.506 25.01 13.54 25 13.57 C 24.916 13.819 24.929 14.092 25.036 14.332 C 25.143 14.573 25.336 14.764 25.578 14.869 C 25.819 14.973 26.091 14.983 26.34 14.897 C 26.589 14.811 26.796 14.634 26.92 14.402 C 27.045 14.17 27.077 13.899 27.012 13.644 C 26.947 13.389 26.788 13.168 26.567 13.025 C 26.346 12.881 26.08 12.826 25.82 12.87 C 25.678 12.888 25.542 12.936 25.42 13.01 C 25.387 13.016 25.352 13.008 25.324 12.989 C 25.296 12.969 25.277 12.94 25.271 12.906 C 25.264 12.873 25.271 12.838 25.29 12.81 C 25.435 12.711 25.598 12.643 25.77 12.61 C 26.11 12.55 26.461 12.628 26.744 12.826 C 27.027 13.023 27.22 13.326 27.281 13.666 C 27.342 14.006 27.265 14.356 27.068 14.64 C 26.871 14.924 26.57 15.118 26.23 15.18 C 26.154 15.193 26.077 15.2 26 15.2 Z M 24.1 14.9 L 9.8 14.9 C 9.734 14.9 9.67 14.874 9.623 14.827 C 9.576 14.78 9.55 14.716 9.55 14.65 C 9.55 14.584 9.576 14.52 9.623 14.473 C 9.67 14.426 9.734 14.4 9.8 14.4 L 24.1 14.4 C 24.166 14.4 24.23 14.426 24.277 14.473 C 24.324 14.52 24.35 14.584 24.35 14.65 C 24.35 14.716 24.324 14.78 24.277 14.827 C 24.23 14.874 24.166 14.9 24.1 14.9 Z"
        fill="#053361"/>
    <path
        id="path_25"
        d="M 7.1 9.75 C 6.6 9.15 6.87 8.75 7.44 8.58 C 8.633 8.206 9.871 7.991 11.12 7.94 C 13.25 7.774 15.392 7.919 17.48 8.37 C 18.657 8.773 19.769 9.346 20.78 10.07 Z"
        fill="#dedfe0"/>
    <path
        id="path_26"
        d="M 20.78 10.32 L 7.1 10 C 7.064 10 7.028 9.991 6.995 9.976 C 6.962 9.96 6.933 9.938 6.91 9.91 C 6.783 9.793 6.689 9.644 6.636 9.48 C 6.583 9.315 6.574 9.139 6.61 8.97 C 6.673 8.809 6.776 8.667 6.909 8.557 C 7.042 8.447 7.2 8.372 7.37 8.34 C 8.585 7.957 9.847 7.738 11.12 7.69 C 13.273 7.522 15.44 7.67 17.55 8.13 C 18.751 8.54 19.887 9.123 20.92 9.86 C 20.966 9.889 21 9.933 21.019 9.984 C 21.038 10.035 21.039 10.091 21.024 10.143 C 21.008 10.195 20.975 10.24 20.931 10.272 C 20.888 10.304 20.834 10.321 20.78 10.32 Z M 7.22 9.5 L 19.92 9.8 C 19.144 9.291 18.303 8.887 17.42 8.6 C 15.358 8.16 13.242 8.022 11.14 8.19 C 9.911 8.237 8.693 8.449 7.52 8.82 C 7.29 8.89 7.14 8.99 7.12 9.12 C 7.112 9.188 7.118 9.257 7.139 9.323 C 7.159 9.389 7.194 9.449 7.24 9.5 Z M 4.5 13.45 L 4.47 13.45 C 3.132 13.275 1.818 12.953 0.55 12.49 C 0.518 12.485 0.489 12.469 0.469 12.444 C 0.448 12.42 0.437 12.388 0.439 12.356 C 0.44 12.324 0.453 12.293 0.476 12.27 C 0.499 12.247 0.529 12.233 0.561 12.232 C 0.593 12.23 0.625 12.24 0.65 12.26 C 1.899 12.71 3.193 13.025 4.51 13.2 C 4.537 13.21 4.56 13.228 4.575 13.252 C 4.591 13.276 4.598 13.304 4.595 13.333 C 4.593 13.361 4.582 13.388 4.563 13.409 C 4.544 13.43 4.518 13.445 4.49 13.45 Z M 1.17 11.17 C 1.139 11.179 1.105 11.176 1.076 11.161 C 1.047 11.147 1.025 11.122 1.013 11.092 C 1.001 11.062 1.001 11.028 1.013 10.998 C 1.025 10.968 1.047 10.943 1.076 10.929 C 1.105 10.914 1.139 10.911 1.17 10.92 C 1.51 10.92 1.92 10.56 2.22 10.3 L 2.42 10.12 C 2.437 10.108 2.454 10.094 2.47 10.08 C 2.417 10.071 2.364 10.067 2.31 10.07 L 1.24 10.07 C 1.213 10.062 1.189 10.046 1.172 10.023 C 1.155 10.001 1.146 9.973 1.146 9.945 C 1.146 9.917 1.155 9.889 1.172 9.867 C 1.189 9.844 1.213 9.828 1.24 9.82 L 2.3 9.82 C 2.54 9.82 2.68 9.88 2.72 9.99 C 2.78 10.15 2.62 10.29 2.57 10.32 L 2.37 10.48 C 2.053 10.836 1.628 11.079 1.16 11.17 Z M 2.5 10.1 Z"
        fill="#053361"/>
    <path
        id="path_27"
        d="M 2 9.94 L 2.3 9.94 C 2.4 9.94 2.8 9.96 2.5 10.22 L 2 10.66 Z M 22.6 13.98 L 8.58 13.98 C 8.549 13.989 8.515 13.986 8.486 13.971 C 8.457 13.957 8.435 13.932 8.423 13.902 C 8.411 13.872 8.411 13.838 8.423 13.808 C 8.435 13.778 8.457 13.753 8.486 13.739 C 8.515 13.724 8.549 13.721 8.58 13.73 L 22.54 13.73 L 22.99 12.76 C 23.005 12.732 23.029 12.711 23.059 12.7 C 23.088 12.689 23.121 12.689 23.15 12.7 C 23.18 12.715 23.203 12.741 23.214 12.773 C 23.225 12.805 23.224 12.839 23.21 12.87 L 22.73 13.91 C 22.719 13.93 22.704 13.947 22.684 13.96 C 22.665 13.972 22.643 13.979 22.62 13.98 Z M 29.57 12.13 C 29.3 12.13 29.27 12.1 29.24 12.08 L 29.14 12 L 28.24 11.35 C 28.19 11.3 28.04 11.15 28.09 11.02 C 28.14 10.89 28.33 10.88 28.44 10.89 C 28.52 10.89 29.9 11.11 30.06 11.13 C 30.087 11.141 30.11 11.161 30.124 11.187 C 30.138 11.212 30.144 11.242 30.139 11.271 C 30.135 11.3 30.12 11.326 30.099 11.346 C 30.077 11.366 30.049 11.378 30.02 11.38 L 28.42 11.14 L 28.39 11.14 C 28.4 11.147 28.41 11.154 28.42 11.16 C 28.62 11.36 29.07 11.66 29.28 11.8 L 29.38 11.87 C 29.48 11.88 29.84 11.87 30.15 11.86 C 30.183 11.86 30.214 11.872 30.239 11.894 C 30.263 11.917 30.277 11.947 30.28 11.98 C 30.28 12.013 30.268 12.044 30.246 12.069 C 30.223 12.093 30.193 12.107 30.16 12.11 L 29.59 12.13 Z"
        fill="#053361"/>
    <path
        id="path_33"
        d="M 29.32 11.98 L 28.32 11.25 C 28.02 11 28.33 11.01 28.42 11.01 L 29.08 11.11 Z M 9.24 10.78 L 8.22 10.78 C 8.193 10.772 8.169 10.756 8.152 10.733 C 8.135 10.711 8.126 10.683 8.126 10.655 C 8.126 10.627 8.135 10.599 8.152 10.577 C 8.169 10.554 8.193 10.538 8.22 10.53 L 9.24 10.53 C 9.267 10.538 9.291 10.554 9.308 10.577 C 9.325 10.599 9.334 10.627 9.334 10.655 C 9.334 10.683 9.325 10.711 9.308 10.733 C 9.291 10.756 9.267 10.772 9.24 10.78 Z M 16.24 10.78 L 15.24 10.78 C 15.213 10.772 15.189 10.756 15.172 10.733 C 15.155 10.711 15.146 10.683 15.146 10.655 C 15.146 10.627 15.155 10.599 15.172 10.577 C 15.189 10.554 15.213 10.538 15.24 10.53 L 16.24 10.53 C 16.267 10.538 16.291 10.554 16.308 10.577 C 16.325 10.599 16.334 10.627 16.334 10.655 C 16.334 10.683 16.325 10.711 16.308 10.733 C 16.291 10.756 16.267 10.772 16.24 10.78 Z M 14.84 13.15 C 14.809 13.15 14.778 13.139 14.754 13.119 C 14.731 13.099 14.715 13.071 14.71 13.04 C 14.557 11.039 14.287 9.049 13.9 7.08 C 13.897 7.048 13.905 7.017 13.924 6.991 C 13.942 6.965 13.969 6.947 14 6.94 C 14.022 6.934 14.045 6.935 14.067 6.941 C 14.089 6.948 14.108 6.961 14.123 6.979 C 14.138 6.996 14.147 7.017 14.15 7.04 C 14.54 9.019 14.814 11.019 14.97 13.03 C 14.97 13.063 14.958 13.094 14.936 13.119 C 14.913 13.143 14.883 13.157 14.85 13.16 Z M 19.17 10.35 L 19.91 10.35 C 19.988 10.347 20.062 10.315 20.116 10.259 C 20.17 10.203 20.2 10.128 20.2 10.05 C 20.195 9.974 20.161 9.903 20.105 9.851 C 20.05 9.799 19.976 9.77 19.9 9.77 L 19.17 9.77 Z"
        fill="#053361"/>
    <path
        id="path_34"
        d="M 19.9 10.6 L 19.17 10.6 C 19.104 10.6 19.04 10.574 18.993 10.527 C 18.946 10.48 18.92 10.416 18.92 10.35 L 18.92 9.77 C 18.92 9.704 18.946 9.64 18.993 9.593 C 19.04 9.546 19.104 9.52 19.17 9.52 L 19.91 9.52 C 20.053 9.52 20.191 9.577 20.292 9.678 C 20.393 9.779 20.45 9.917 20.45 10.06 C 20.45 10.203 20.393 10.341 20.292 10.442 C 20.191 10.543 20.053 10.6 19.91 10.6 Z M 19.42 10.1 L 19.92 10.1 L 19.92 10 L 19.42 10 Z M 9.32 9.94 C 9.287 9.94 9.256 9.928 9.231 9.906 C 9.207 9.883 9.193 9.853 9.19 9.82 L 9.09 8.16 C 9.097 8.132 9.112 8.108 9.134 8.09 C 9.156 8.072 9.183 8.062 9.211 8.06 C 9.24 8.059 9.267 8.067 9.291 8.084 C 9.314 8.1 9.331 8.123 9.34 8.15 L 9.44 9.8 C 9.442 9.824 9.437 9.848 9.426 9.869 C 9.415 9.891 9.399 9.909 9.378 9.921 C 9.358 9.933 9.334 9.94 9.31 9.94 Z M 7.1 10 L 6.2 10 C 6.134 10 6.07 9.974 6.023 9.927 C 5.976 9.88 5.95 9.816 5.95 9.75 C 5.95 9.684 5.976 9.62 6.023 9.573 C 6.07 9.526 6.134 9.5 6.2 9.5 L 7.1 9.5 C 7.166 9.5 7.23 9.526 7.277 9.573 C 7.324 9.62 7.35 9.684 7.35 9.75 C 7.35 9.816 7.324 9.88 7.277 9.927 C 7.23 9.974 7.166 10 7.1 10 Z M 29.05 13.86 C 29.017 13.86 28.986 13.848 28.961 13.826 C 28.937 13.803 28.923 13.773 28.92 13.74 C 28.92 13.707 28.932 13.676 28.954 13.651 C 28.977 13.627 29.007 13.613 29.04 13.61 L 30.4 13.57 C 30.427 13.578 30.451 13.594 30.468 13.617 C 30.485 13.639 30.494 13.667 30.494 13.695 C 30.494 13.723 30.485 13.751 30.468 13.773 C 30.451 13.796 30.427 13.812 30.4 13.82 L 29.05 13.86 Z"
        fill="#053361"/>
</svg>
