<svg
    xmlns="http://www.w3.org/2000/svg"
    viewBox="0 0 31 17"
    id="vector">
    <path
        id="path"
        d="M 5.9 14.14 L 3.1 13.74 C 2.74 13.69 2.28 13.31 2.32 12.26 L 2.32 11.3 L 2.77 10.88 L 2.77 9.13 L 4.6 8.9 C 4.8 8.86 6.8 7.75 7.78 7.36 C 9.435 6.667 11.231 6.376 13.02 6.51 C 14.69 6.44 16.36 6.633 17.97 7.08 C 18.27 7.16 21.97 9.06 21.97 9.06 C 24.033 9.274 26.039 9.864 27.89 10.8 C 28.39 11.1 28.59 12.33 28.66 12.7 C 28.537 13.208 28.334 13.694 28.06 14.14 L 25.56 14.14"
        fill="#ffffff"/>
    <path
        id="path_1"
        d="M 28.06 14.4 L 25.58 14.4 C 25.514 14.4 25.45 14.374 25.403 14.327 C 25.356 14.28 25.33 14.216 25.33 14.15 C 25.33 14.084 25.356 14.02 25.403 13.973 C 25.45 13.926 25.514 13.9 25.58 13.9 L 27.92 13.9 C 28.139 13.538 28.307 13.148 28.42 12.74 L 28.39 12.6 C 28.31 12.23 28.12 11.23 27.76 11 C 25.945 10.088 23.98 9.512 21.96 9.3 C 21.926 9.301 21.892 9.294 21.86 9.28 L 17.9 7.32 L 17.77 7.28 C 16.218 6.873 14.614 6.698 13.01 6.76 C 11.313 6.635 9.61 6.898 8.03 7.53 L 7.87 7.6 C 7.3 7.83 6.37 8.3 5.67 8.66 C 5.347 8.842 5.013 9.002 4.67 9.14 C 4.5 9.18 3.52 9.3 3.03 9.36 L 3.03 10.9 C 3.03 10.934 3.022 10.967 3.008 10.998 C 2.995 11.029 2.975 11.057 2.95 11.08 L 2.58 11.42 L 2.58 12.28 C 2.55 13.12 2.88 13.48 3.15 13.51 L 5.95 13.91 L 5.88 14.41 L 3.08 14.01 C 2.6 13.94 2.05 13.44 2.08 12.28 L 2.08 11.32 C 2.082 11.285 2.091 11.252 2.106 11.221 C 2.122 11.19 2.143 11.162 2.17 11.14 L 2.54 10.8 L 2.54 9.13 C 2.54 9.069 2.562 9.009 2.602 8.963 C 2.643 8.917 2.699 8.887 2.76 8.88 L 4.56 8.65 C 4.63 8.63 5.06 8.42 5.44 8.21 L 7.69 7.13 L 7.85 7.07 C 9.491 6.417 11.258 6.143 13.02 6.27 C 14.671 6.207 16.322 6.389 17.92 6.81 L 18.02 6.84 C 18.34 6.92 21.34 8.46 22.05 8.82 C 24.136 9.031 26.165 9.632 28.03 10.59 C 28.534 11.107 28.836 11.789 28.88 12.51 L 28.91 12.65 C 28.833 13.233 28.617 13.788 28.28 14.27 C 28.257 14.308 28.225 14.338 28.186 14.36 C 28.147 14.381 28.104 14.391 28.06 14.39 Z"
        fill="#053361"/>
    <path
        id="path_2"
        d="M 7.67 8.5 C 8.62 8 9.57 7.46 12.87 7.46 C 14.54 7.39 16.21 7.583 17.82 8.03 C 18.02 8.08 19.49 8.83 20.6 9.39 L 6.1 9.39 L 7.66 8.49 Z"
        fill="#dedfe0"/>
    <path
        id="path_3"
        d="M 20.6 9.64 L 6.1 9.64 C 6.044 9.64 5.99 9.622 5.946 9.588 C 5.902 9.554 5.87 9.506 5.857 9.452 C 5.843 9.398 5.847 9.341 5.87 9.29 C 5.892 9.239 5.931 9.196 5.98 9.17 C 6.02 9.15 7.03 8.54 7.56 8.27 L 7.66 8.22 C 8.58 7.75 9.62 7.22 12.86 7.22 C 14.511 7.157 16.162 7.339 17.76 7.76 L 17.86 7.79 C 18.833 8.19 19.781 8.648 20.7 9.16 C 20.754 9.183 20.799 9.224 20.825 9.276 C 20.852 9.329 20.86 9.389 20.846 9.446 C 20.833 9.503 20.8 9.554 20.754 9.59 C 20.707 9.625 20.649 9.643 20.59 9.64 Z M 7.03 9.14 L 19.53 9.14 C 18.944 8.822 18.343 8.532 17.73 8.27 L 17.6 8.24 C 16.051 7.83 14.451 7.652 12.85 7.71 C 9.73 7.71 8.79 8.21 7.88 8.66 L 7.78 8.72 L 7.02 9.14 Z M 7.67 8.49 Z M 3.34 9.82 C 3.499 9.918 3.625 10.063 3.7 10.234 C 3.775 10.406 3.796 10.596 3.76 10.78 C 3.73 10.88 3.56 10.92 3.34 10.93 Z M 27.64 12.06 L 27.39 12.06 C 27.11 12.06 26.41 11.13 26.63 11.1 C 26.852 11.065 27.076 11.048 27.3 11.05 Z"
        fill="#053361"/>
    <path
        id="path_4"
        d="M 14.47 12.62 C 14.439 12.62 14.408 12.609 14.384 12.589 C 14.361 12.569 14.345 12.541 14.34 12.51 C 14.139 10.508 13.849 8.516 13.47 6.54 C 13.465 6.508 13.472 6.476 13.491 6.45 C 13.51 6.423 13.538 6.406 13.57 6.4 C 13.602 6.395 13.634 6.403 13.661 6.421 C 13.687 6.44 13.705 6.468 13.71 6.5 C 13.72 6.53 14.41 10.2 14.59 12.5 C 14.59 12.531 14.579 12.562 14.559 12.586 C 14.539 12.609 14.511 12.625 14.48 12.63 Z M 10.33 10.67 L 9.3 10.67 C 9.273 10.662 9.249 10.646 9.232 10.623 C 9.215 10.601 9.206 10.573 9.206 10.545 C 9.206 10.517 9.215 10.489 9.232 10.467 C 9.249 10.444 9.273 10.428 9.3 10.42 L 10.32 10.42 C 10.347 10.428 10.371 10.444 10.388 10.467 C 10.405 10.489 10.414 10.517 10.414 10.545 C 10.414 10.573 10.405 10.601 10.388 10.623 C 10.371 10.646 10.347 10.662 10.32 10.67 Z M 15.93 10.67 L 14.9 10.67 C 14.873 10.662 14.849 10.646 14.832 10.623 C 14.815 10.601 14.806 10.573 14.806 10.545 C 14.806 10.517 14.815 10.489 14.832 10.467 C 14.849 10.444 14.873 10.428 14.9 10.42 L 15.92 10.42 C 15.951 10.411 15.985 10.414 16.014 10.429 C 16.043 10.443 16.065 10.468 16.077 10.498 C 16.089 10.528 16.089 10.562 16.077 10.592 C 16.065 10.622 16.043 10.647 16.014 10.661 C 15.985 10.676 15.951 10.679 15.92 10.67 Z M 18.3 9.67 L 19.04 9.67 C 19.118 9.667 19.192 9.635 19.246 9.579 C 19.3 9.523 19.33 9.448 19.33 9.37 C 19.325 9.294 19.291 9.223 19.235 9.171 C 19.18 9.119 19.106 9.09 19.03 9.09 L 18.3 9.09 Z"
        fill="#053361"/>
    <path
        id="path_5"
        d="M 19.04 9.93 L 18.3 9.93 C 18.234 9.93 18.17 9.904 18.123 9.857 C 18.076 9.81 18.05 9.746 18.05 9.68 L 18.05 9.1 C 18.05 9.034 18.076 8.97 18.123 8.923 C 18.17 8.876 18.234 8.85 18.3 8.85 L 19.04 8.85 C 19.183 8.85 19.321 8.907 19.422 9.008 C 19.523 9.109 19.58 9.247 19.58 9.39 C 19.58 9.533 19.523 9.671 19.422 9.772 C 19.321 9.873 19.183 9.93 19.04 9.93 Z M 18.54 9.43 L 19.04 9.43 L 19.04 9.35 L 18.54 9.35 Z"
        fill="#053361"/>
    <path
        id="path_6"
        d="M 4.93 16.19 C 4.93 16.341 6.068 16.486 8.09 16.593 C 10.113 16.7 12.859 16.76 15.72 16.76 C 18.581 16.76 21.327 16.7 23.35 16.593 C 25.372 16.486 26.51 16.341 26.51 16.19 C 26.51 16.039 25.372 15.894 23.35 15.787 C 21.327 15.68 18.581 15.62 15.72 15.62 C 12.859 15.62 10.113 15.68 8.09 15.787 C 6.068 15.894 4.93 16.039 4.93 16.19 Z"
        fill="#dedfe0"/>
    <path
        id="path_7"
        d="M 8.06 13.75 M 5.87 13.75 C 5.87 13.288 6.016 12.837 6.288 12.463 C 6.56 12.089 6.943 11.81 7.383 11.667 C 7.823 11.524 8.297 11.524 8.737 11.667 C 9.177 11.81 9.56 12.089 9.832 12.463 C 10.104 12.837 10.25 13.288 10.25 13.75 C 10.25 14.331 10.019 14.888 9.609 15.299 C 9.198 15.709 8.641 15.94 8.06 15.94 C 7.479 15.94 6.922 15.709 6.511 15.299 C 6.101 14.888 5.87 14.331 5.87 13.75"
        fill="#dedfe0"/>
    <path
        id="path_8"
        d="M 8.06 16.2 C 7.414 16.2 6.793 15.943 6.336 15.487 C 5.879 15.03 5.621 14.41 5.62 13.763 C 5.619 13.117 5.875 12.496 6.331 12.038 C 6.787 11.58 7.407 11.322 8.053 11.32 C 8.7 11.318 9.321 11.573 9.779 12.029 C 10.238 12.484 10.497 13.104 10.5 13.75 C 10.497 14.396 10.239 15.016 9.782 15.472 C 9.326 15.929 8.706 16.187 8.06 16.19 Z M 8.06 11.8 C 7.547 11.8 7.054 12.004 6.691 12.366 C 6.327 12.728 6.122 13.22 6.12 13.733 C 6.118 14.247 6.32 14.74 6.681 15.105 C 7.042 15.469 7.534 15.676 8.047 15.68 C 8.56 15.683 9.054 15.483 9.42 15.124 C 9.786 14.764 9.995 14.273 10 13.76 C 10 13.246 9.795 12.752 9.432 12.388 C 9.068 12.025 8.574 11.82 8.06 11.82 Z"
        fill="#053361"/>
    <path
        id="path_9"
        d="M 8.06 13.75 M 6.81 13.75 C 6.81 13.419 6.942 13.1 7.176 12.866 C 7.41 12.632 7.729 12.5 8.06 12.5 C 8.391 12.5 8.71 12.632 8.944 12.866 C 9.178 13.1 9.31 13.419 9.31 13.75 C 9.31 14.081 9.178 14.4 8.944 14.634 C 8.71 14.868 8.391 15 8.06 15 C 7.729 15 7.41 14.868 7.176 14.634 C 6.942 14.4 6.81 14.081 6.81 13.75"
        fill="#ffffff"/>
    <path
        id="path_10"
        d="M 8.06 15.13 C 7.731 15.134 7.412 15.02 7.16 14.809 C 6.908 14.599 6.739 14.305 6.684 13.981 C 6.629 13.657 6.692 13.323 6.86 13.041 C 7.029 12.759 7.293 12.547 7.605 12.442 C 7.916 12.337 8.255 12.347 8.56 12.47 C 8.589 12.483 8.613 12.507 8.626 12.536 C 8.639 12.566 8.64 12.599 8.63 12.63 C 8.617 12.659 8.593 12.683 8.564 12.696 C 8.534 12.709 8.501 12.71 8.47 12.7 C 8.34 12.647 8.201 12.62 8.06 12.62 C 7.762 12.618 7.475 12.734 7.262 12.943 C 7.049 13.151 6.927 13.435 6.923 13.733 C 6.919 14.031 7.032 14.319 7.239 14.534 C 7.446 14.748 7.729 14.873 8.027 14.88 C 8.325 14.887 8.614 14.775 8.83 14.571 C 9.046 14.366 9.173 14.083 9.182 13.786 C 9.192 13.488 9.083 13.198 8.88 12.98 C 8.868 12.955 8.864 12.927 8.869 12.9 C 8.874 12.873 8.888 12.848 8.908 12.829 C 8.928 12.81 8.954 12.798 8.981 12.795 C 9.008 12.791 9.036 12.797 9.06 12.81 C 9.305 13.073 9.437 13.421 9.429 13.78 C 9.422 14.139 9.274 14.481 9.019 14.733 C 8.763 14.985 8.419 15.127 8.06 15.13 Z"
        fill="#053361"/>
    <path
        id="path_11"
        d="M 23.39 13.75 M 21.2 13.75 C 21.2 13.288 21.346 12.837 21.618 12.463 C 21.89 12.089 22.273 11.81 22.713 11.667 C 23.153 11.524 23.627 11.524 24.067 11.667 C 24.507 11.81 24.89 12.089 25.162 12.463 C 25.434 12.837 25.58 13.288 25.58 13.75 C 25.58 14.212 25.434 14.663 25.162 15.037 C 24.89 15.411 24.507 15.69 24.067 15.833 C 23.627 15.976 23.153 15.976 22.713 15.833 C 22.273 15.69 21.89 15.411 21.618 15.037 C 21.346 14.663 21.2 14.212 21.2 13.75"
        fill="#dedfe0"/>
    <path
        id="path_28"
        d="M 23.4 16.2 C 22.754 16.2 22.133 15.943 21.676 15.487 C 21.219 15.03 20.961 14.41 20.96 13.763 C 20.959 13.117 21.215 12.496 21.671 12.038 C 22.127 11.58 22.747 11.322 23.393 11.32 C 24.04 11.318 24.661 11.573 25.119 12.029 C 25.578 12.484 25.837 13.104 25.84 13.75 C 25.837 14.396 25.579 15.016 25.122 15.472 C 24.666 15.929 24.046 16.187 23.4 16.19 Z M 23.4 11.8 C 22.886 11.8 22.393 12.004 22.029 12.367 C 21.666 12.73 21.461 13.223 21.46 13.737 C 21.459 14.25 21.662 14.744 22.025 15.108 C 22.387 15.472 22.88 15.678 23.393 15.68 C 23.907 15.682 24.401 15.479 24.766 15.118 C 25.131 14.756 25.337 14.264 25.34 13.75 C 25.34 13.236 25.135 12.742 24.772 12.378 C 24.408 12.015 23.914 11.81 23.4 11.81 Z"
        fill="#053361"/>
    <path
        id="path_29"
        d="M 23.39 13.75 M 22.14 13.75 C 22.14 13.419 22.272 13.1 22.506 12.866 C 22.74 12.632 23.059 12.5 23.39 12.5 C 23.721 12.5 24.04 12.632 24.274 12.866 C 24.508 13.1 24.64 13.419 24.64 13.75 C 24.64 14.081 24.508 14.4 24.274 14.634 C 24.04 14.868 23.721 15 23.39 15 C 23.059 15 22.74 14.868 22.506 14.634 C 22.272 14.4 22.14 14.081 22.14 13.75"
        fill="#ffffff"/>
    <path
        id="path_30"
        d="M 21.23 14.4 L 11.55 14.4 C 11.484 14.4 11.42 14.374 11.373 14.327 C 11.326 14.28 11.3 14.216 11.3 14.15 C 11.3 14.084 11.326 14.02 11.373 13.973 C 11.42 13.926 11.484 13.9 11.55 13.9 L 21.23 13.9 C 21.296 13.9 21.36 13.926 21.407 13.973 C 21.454 14.02 21.48 14.084 21.48 14.15 C 21.48 14.216 21.454 14.28 21.407 14.327 C 21.36 14.374 21.296 14.4 21.23 14.4 Z M 22.18 14.2 C 22.151 14.2 22.124 14.191 22.102 14.172 C 22.079 14.154 22.065 14.128 22.06 14.1 C 22.034 14.015 22.018 13.928 22.01 13.84 C 22.008 13.818 22.012 13.796 22.023 13.776 C 22.033 13.756 22.048 13.739 22.067 13.728 C 22.086 13.716 22.108 13.71 22.13 13.71 C 22.163 13.71 22.194 13.722 22.219 13.744 C 22.243 13.767 22.257 13.797 22.26 13.83 C 22.266 13.901 22.279 13.972 22.3 14.04 C 22.309 14.073 22.305 14.109 22.288 14.139 C 22.271 14.169 22.243 14.191 22.21 14.2 C 22.2 14.202 22.19 14.202 22.18 14.2 Z M 23.4 15.13 C 23.197 15.13 22.997 15.085 22.814 14.998 C 22.631 14.912 22.469 14.786 22.34 14.63 C 22.327 14.613 22.318 14.594 22.315 14.572 C 22.312 14.551 22.314 14.53 22.322 14.51 C 22.33 14.49 22.343 14.473 22.36 14.46 C 22.385 14.441 22.416 14.431 22.447 14.433 C 22.478 14.435 22.508 14.448 22.53 14.47 C 22.715 14.693 22.979 14.837 23.267 14.871 C 23.555 14.905 23.845 14.827 24.077 14.653 C 24.309 14.48 24.466 14.223 24.514 13.937 C 24.562 13.652 24.499 13.358 24.337 13.117 C 24.175 12.877 23.927 12.708 23.644 12.645 C 23.361 12.583 23.064 12.631 22.816 12.781 C 22.568 12.931 22.387 13.17 22.31 13.45 C 22.305 13.471 22.295 13.491 22.28 13.507 C 22.265 13.523 22.246 13.534 22.225 13.54 C 22.203 13.546 22.181 13.546 22.16 13.54 C 22.137 13.537 22.116 13.528 22.099 13.513 C 22.081 13.498 22.068 13.479 22.061 13.457 C 22.055 13.435 22.054 13.412 22.06 13.39 C 22.15 13.057 22.361 12.77 22.652 12.586 C 22.942 12.401 23.292 12.331 23.631 12.391 C 23.97 12.451 24.275 12.635 24.486 12.908 C 24.696 13.181 24.796 13.523 24.767 13.866 C 24.738 14.209 24.582 14.53 24.329 14.763 C 24.076 14.997 23.744 15.128 23.4 15.13 Z M 21.27 13.36 L 10.2 13.36 C 10.173 13.352 10.149 13.336 10.132 13.313 C 10.115 13.291 10.106 13.263 10.106 13.235 C 10.106 13.207 10.115 13.179 10.132 13.157 C 10.149 13.134 10.173 13.118 10.2 13.11 L 21.27 13.11 C 21.297 13.118 21.321 13.134 21.338 13.157 C 21.355 13.179 21.364 13.207 21.364 13.235 C 21.364 13.263 21.355 13.291 21.338 13.313 C 21.321 13.336 21.297 13.352 21.27 13.36 Z M 28.54 13.36 L 25.54 13.36 C 25.513 13.352 25.489 13.336 25.472 13.313 C 25.455 13.291 25.446 13.263 25.446 13.235 C 25.446 13.207 25.455 13.179 25.472 13.157 C 25.489 13.134 25.513 13.118 25.54 13.11 L 28.54 13.11 C 28.567 13.118 28.591 13.134 28.608 13.157 C 28.625 13.179 28.634 13.207 28.634 13.235 C 28.634 13.263 28.625 13.291 28.608 13.313 C 28.591 13.336 28.567 13.352 28.54 13.36 Z M 9.3 9.5 C 9.29 9.501 9.28 9.501 9.27 9.5 C 9.239 9.491 9.213 9.47 9.196 9.442 C 9.179 9.415 9.174 9.382 9.18 9.35 L 9.58 7.69 C 9.587 7.657 9.607 7.628 9.635 7.61 C 9.663 7.591 9.697 7.584 9.73 7.59 C 9.763 7.597 9.792 7.617 9.81 7.645 C 9.829 7.673 9.836 7.707 9.83 7.74 L 9.43 9.4 C 9.424 9.427 9.408 9.452 9.387 9.47 C 9.365 9.488 9.338 9.499 9.31 9.5 Z M 28.5 12.17 L 27.4 12.17 C 27.07 12.17 26.48 11.43 26.46 11.17 C 26.454 11.139 26.457 11.107 26.469 11.078 C 26.48 11.049 26.499 11.023 26.524 11.004 C 26.549 10.985 26.579 10.973 26.61 10.97 C 27.132 10.912 27.658 10.912 28.18 10.97 C 28.213 10.975 28.242 10.992 28.263 11.018 C 28.283 11.044 28.293 11.077 28.29 11.11 C 28.287 11.131 28.278 11.151 28.264 11.168 C 28.251 11.184 28.233 11.197 28.213 11.204 C 28.193 11.212 28.171 11.214 28.15 11.21 C 27.678 11.165 27.202 11.165 26.73 11.21 C 26.81 11.41 27.23 11.93 27.39 11.93 L 28.49 11.93 C 28.517 11.938 28.541 11.954 28.558 11.977 C 28.575 11.999 28.584 12.027 28.584 12.055 C 28.584 12.083 28.575 12.111 28.558 12.133 C 28.541 12.156 28.517 12.172 28.49 12.18 Z M 26.65 11.21 Z M 3.25 11.05 C 3.083 11.048 2.916 11.035 2.75 11.01 C 2.719 11.003 2.692 10.985 2.674 10.959 C 2.655 10.933 2.647 10.902 2.65 10.87 C 2.652 10.848 2.659 10.826 2.672 10.808 C 2.686 10.79 2.704 10.776 2.724 10.767 C 2.745 10.759 2.768 10.756 2.79 10.76 C 3.068 10.821 3.357 10.811 3.63 10.73 C 3.8 9.97 2.75 9.65 2.73 9.65 C 2.698 9.65 2.666 9.638 2.643 9.616 C 2.619 9.594 2.604 9.563 2.601 9.531 C 2.598 9.499 2.608 9.467 2.628 9.441 C 2.647 9.415 2.676 9.398 2.708 9.392 C 2.74 9.386 2.773 9.393 2.8 9.41 C 3.25 9.54 4.04 10.01 3.87 10.79 C 3.83 10.99 3.55 11.05 3.25 11.05 Z M 4.41 11.67 C 2.66 11.67 2.28 11.43 2.24 11.4 C 2.214 11.378 2.197 11.348 2.193 11.314 C 2.19 11.28 2.199 11.247 2.22 11.22 C 2.24 11.195 2.268 11.178 2.299 11.173 C 2.331 11.167 2.363 11.173 2.39 11.19 C 3.139 11.444 3.936 11.523 4.72 11.42 C 4.747 11.428 4.771 11.444 4.788 11.467 C 4.805 11.489 4.814 11.517 4.814 11.545 C 4.814 11.573 4.805 11.601 4.788 11.623 C 4.771 11.646 4.747 11.662 4.72 11.67 L 4.42 11.67 Z"
        fill="#053361"/>
    <path
        id="path_31"
        d="M 20.6 9.4 L 21.22 9.7"
        fill="#dedfe0"/>
    <path
        id="path_32"
        d="M 21.2 9.95 C 21.165 9.947 21.131 9.937 21.1 9.92 L 20.48 9.62 C 20.421 9.589 20.376 9.536 20.355 9.473 C 20.335 9.409 20.34 9.34 20.371 9.28 C 20.401 9.221 20.454 9.176 20.518 9.155 C 20.581 9.134 20.65 9.14 20.71 9.17 L 21.31 9.49 C 21.358 9.516 21.397 9.557 21.419 9.607 C 21.442 9.657 21.447 9.714 21.435 9.767 C 21.422 9.821 21.393 9.869 21.35 9.903 C 21.308 9.938 21.255 9.958 21.2 9.96 Z"
        fill="#053361"/>
</svg>
