<svg
    xmlns="http://www.w3.org/2000/svg"
    viewBox="0 0 31 17"
    id="vector">
    <path
        id="path_12"
        d="M 4.87 13.75 L 2.8 13.35 C 2.533 12.79 2.449 12.16 2.56 11.55 C 2.564 11.322 2.584 11.095 2.62 10.87 C 2.726 10.615 2.912 10.401 3.15 10.26 L 3.15 9.81 C 3.114 9.565 3.094 9.318 3.09 9.07 C 3.163 8.882 3.292 8.722 3.46 8.61 C 3.66 8.47 5 7.32 5 7.32 L 4.9 7.02 C 7.432 6.554 10.006 6.353 12.58 6.42 C 13.943 6.374 15.307 6.519 16.63 6.85 C 17.37 7.11 20.3 8.61 20.5 8.72 C 21.337 9.076 22.224 9.299 23.13 9.38 C 24.502 9.54 25.86 9.807 27.19 10.18 C 27.67 10.38 28.19 10.6 28.33 11.23 C 28.608 12.088 28.608 13.012 28.33 13.87 L 27.27 14.07 L 26.84 14.29 L 25.49 14.29"
        fill="#ffffff"/>
    <path
        id="path_13"
        d="M 26.8 14.53 L 25.45 14.53 C 25.384 14.53 25.32 14.504 25.273 14.457 C 25.226 14.41 25.2 14.346 25.2 14.28 C 25.2 14.214 25.226 14.15 25.273 14.103 C 25.32 14.056 25.384 14.03 25.45 14.03 L 26.75 14.03 L 27.12 13.83 C 27.142 13.82 27.166 13.813 27.19 13.81 L 28.09 13.65 C 28.304 12.932 28.304 12.168 28.09 11.45 L 28.05 11.29 C 27.95 10.79 27.57 10.61 27.05 10.39 C 25.739 10.027 24.402 9.766 23.05 9.61 C 22.12 9.525 21.209 9.296 20.35 8.93 C 19.092 8.265 17.811 7.645 16.51 7.07 C 15.212 6.748 13.876 6.606 12.54 6.65 C 10.085 6.613 7.632 6.797 5.21 7.2 L 5.21 7.21 C 5.229 7.258 5.232 7.311 5.219 7.361 C 5.207 7.411 5.179 7.456 5.14 7.49 C 4.634 7.941 4.12 8.385 3.6 8.82 C 3.482 8.898 3.385 9.004 3.32 9.13 C 3.327 9.351 3.347 9.571 3.38 9.79 L 3.38 10.27 C 3.378 10.313 3.366 10.355 3.343 10.392 C 3.32 10.429 3.288 10.459 3.25 10.48 C 3.075 10.592 2.936 10.751 2.85 10.94 C 2.815 11.145 2.795 11.352 2.79 11.56 C 2.686 12.092 2.746 12.643 2.96 13.14 L 4.91 13.5 C 4.963 13.51 5.011 13.537 5.048 13.577 C 5.085 13.617 5.108 13.667 5.114 13.72 C 5.12 13.774 5.109 13.828 5.083 13.875 C 5.057 13.922 5.016 13.96 4.967 13.982 C 4.918 14.004 4.863 14.011 4.81 14 L 2.74 13.6 C 2.701 13.593 2.664 13.576 2.633 13.552 C 2.602 13.527 2.577 13.496 2.56 13.46 C 2.268 12.847 2.18 12.156 2.31 11.49 C 2.309 11.262 2.329 11.034 2.37 10.81 C 2.469 10.538 2.646 10.301 2.88 10.13 L 2.88 9.83 C 2.834 9.566 2.817 9.298 2.83 9.03 C 2.921 8.786 3.085 8.577 3.3 8.43 C 3.44 8.33 4.2 7.67 4.68 7.25 L 4.63 7.13 C 4.611 7.085 4.606 7.035 4.616 6.986 C 4.625 6.938 4.649 6.894 4.683 6.859 C 4.718 6.824 4.762 6.8 4.81 6.79 C 7.361 6.313 9.955 6.105 12.55 6.17 C 13.941 6.128 15.331 6.279 16.68 6.62 C 17.44 6.88 20.4 8.42 20.58 8.52 C 21.387 8.865 22.245 9.078 23.12 9.15 C 24.516 9.307 25.897 9.575 27.25 9.95 C 27.554 10.028 27.832 10.183 28.058 10.401 C 28.284 10.618 28.45 10.89 28.54 11.19 L 28.57 11.35 C 28.825 12.203 28.811 13.115 28.53 13.96 C 28.516 14.003 28.492 14.041 28.458 14.071 C 28.425 14.101 28.384 14.121 28.34 14.13 L 27.31 14.33 L 26.91 14.53 C 26.872 14.546 26.831 14.553 26.79 14.55 Z"
        fill="#053361"/>
    <path
        id="path_14"
        d="M 3.84 16.19 C 3.84 16.341 5.037 16.486 7.164 16.593 C 9.292 16.7 12.181 16.76 15.19 16.76 C 18.199 16.76 21.088 16.7 23.216 16.593 C 25.343 16.486 26.54 16.341 26.54 16.19 C 26.54 16.039 25.343 15.894 23.216 15.787 C 21.088 15.68 18.199 15.62 15.19 15.62 C 12.181 15.62 9.292 15.68 7.164 15.787 C 5.037 15.894 3.84 16.039 3.84 16.19 Z"
        fill="#dedfe0"/>
    <path
        id="path_15"
        d="M 7.07 13.75 M 4.88 13.75 C 4.879 13.287 5.024 12.835 5.296 12.459 C 5.567 12.084 5.951 11.804 6.392 11.661 C 6.833 11.517 7.307 11.517 7.748 11.661 C 8.189 11.804 8.573 12.084 8.844 12.459 C 9.116 12.835 9.261 13.287 9.26 13.75 C 9.261 14.213 9.116 14.665 8.844 15.041 C 8.573 15.416 8.189 15.696 7.748 15.839 C 7.307 15.983 6.833 15.983 6.392 15.839 C 5.951 15.696 5.567 15.416 5.296 15.041 C 5.024 14.665 4.879 14.213 4.88 13.75"
        fill="#dedfe0"/>
    <path
        id="path_16"
        d="M 7.07 16.2 C 6.424 16.2 5.803 15.943 5.346 15.487 C 4.889 15.03 4.631 14.41 4.63 13.763 C 4.629 13.117 4.885 12.496 5.341 12.038 C 5.797 11.58 6.417 11.322 7.063 11.32 C 7.71 11.318 8.331 11.573 8.789 12.029 C 9.248 12.484 9.507 13.104 9.51 13.75 C 9.51 14.397 9.253 15.018 8.795 15.475 C 8.338 15.933 7.717 16.19 7.07 16.19 Z M 7.07 11.8 C 6.556 11.797 6.062 11.999 5.697 12.36 C 5.331 12.721 5.124 13.213 5.12 13.727 C 5.117 14.24 5.317 14.735 5.678 15.101 C 6.038 15.467 6.53 15.675 7.043 15.68 C 7.557 15.684 8.052 15.484 8.419 15.125 C 8.786 14.765 8.995 14.274 9 13.76 C 8.997 13.246 8.792 12.754 8.429 12.391 C 8.066 12.028 7.574 11.823 7.06 11.82 Z"
        fill="#053361"/>
    <path
        id="path_17"
        d="M 23.32 13.75 M 21.13 13.75 C 21.13 13.288 21.276 12.837 21.548 12.463 C 21.82 12.089 22.203 11.81 22.643 11.667 C 23.083 11.524 23.557 11.524 23.997 11.667 C 24.437 11.81 24.82 12.089 25.092 12.463 C 25.364 12.837 25.51 13.288 25.51 13.75 C 25.51 14.212 25.364 14.663 25.092 15.037 C 24.82 15.411 24.437 15.69 23.997 15.833 C 23.557 15.976 23.083 15.976 22.643 15.833 C 22.203 15.69 21.82 15.411 21.548 15.037 C 21.276 14.663 21.13 14.212 21.13 13.75"
        fill="#dedfe0"/>
    <path
        id="path_18"
        d="M 23.32 16.2 C 22.674 16.2 22.053 15.943 21.596 15.487 C 21.139 15.03 20.881 14.41 20.88 13.763 C 20.879 13.117 21.135 12.496 21.591 12.038 C 22.047 11.58 22.667 11.322 23.313 11.32 C 23.96 11.318 24.581 11.573 25.039 12.029 C 25.498 12.484 25.757 13.104 25.76 13.75 C 25.76 14.179 25.647 14.601 25.431 14.973 C 25.216 15.344 24.907 15.653 24.534 15.866 C 24.162 16.08 23.739 16.192 23.31 16.19 Z M 23.32 11.8 C 22.806 11.8 22.313 12.004 21.949 12.367 C 21.586 12.73 21.381 13.223 21.38 13.737 C 21.379 14.25 21.582 14.744 21.945 15.108 C 22.307 15.472 22.8 15.678 23.313 15.68 C 23.827 15.682 24.321 15.479 24.686 15.118 C 25.051 14.756 25.257 14.264 25.26 13.75 C 25.257 13.235 25.051 12.741 24.685 12.378 C 24.32 12.014 23.825 11.81 23.31 11.81 Z"
        fill="#053361"/>
    <path
        id="path_19"
        d="M 23.32 13.75 M 22.07 13.75 C 22.07 13.419 22.202 13.1 22.436 12.866 C 22.67 12.632 22.989 12.5 23.32 12.5 C 23.651 12.5 23.97 12.632 24.204 12.866 C 24.438 13.1 24.57 13.419 24.57 13.75 C 24.57 14.081 24.438 14.4 24.204 14.634 C 23.97 14.868 23.651 15 23.32 15 C 22.989 15 22.67 14.868 22.436 14.634 C 22.202 14.4 22.07 14.081 22.07 13.75"
        fill="#ffffff"/>
    <path
        id="path_20"
        d="M 22.06 13.75 C 22.061 13.443 22.176 13.147 22.381 12.919 C 22.587 12.691 22.869 12.546 23.175 12.513 C 23.48 12.48 23.787 12.56 24.037 12.739 C 24.286 12.917 24.462 13.182 24.529 13.481 C 24.597 13.781 24.552 14.095 24.403 14.363 C 24.253 14.631 24.011 14.836 23.721 14.936 C 23.431 15.037 23.113 15.028 22.83 14.91 C 22.569 14.799 22.353 14.601 22.22 14.35"
        fill="#ffffff"/>
    <path
        id="path_21"
        d="M 23.3 15.13 C 23.118 15.129 22.938 15.091 22.77 15.02 C 22.486 14.901 22.249 14.69 22.1 14.42 C 22.094 14.393 22.096 14.365 22.106 14.34 C 22.117 14.315 22.135 14.293 22.158 14.279 C 22.181 14.265 22.208 14.258 22.236 14.26 C 22.263 14.262 22.289 14.272 22.31 14.29 C 22.438 14.531 22.649 14.717 22.904 14.814 C 23.159 14.91 23.441 14.91 23.696 14.814 C 23.951 14.717 24.162 14.531 24.29 14.29 C 24.417 14.049 24.453 13.769 24.389 13.504 C 24.325 13.239 24.166 13.006 23.943 12.849 C 23.72 12.693 23.447 12.623 23.176 12.653 C 22.905 12.683 22.654 12.811 22.471 13.013 C 22.287 13.215 22.184 13.477 22.18 13.75 C 22.172 13.777 22.156 13.801 22.133 13.818 C 22.111 13.835 22.083 13.844 22.055 13.844 C 22.027 13.844 21.999 13.835 21.977 13.818 C 21.954 13.801 21.938 13.777 21.93 13.75 C 21.928 13.568 21.962 13.388 22.03 13.22 C 22.156 12.909 22.392 12.655 22.693 12.505 C 22.993 12.355 23.338 12.32 23.662 12.406 C 23.987 12.492 24.269 12.694 24.456 12.973 C 24.642 13.252 24.721 13.59 24.676 13.923 C 24.632 14.255 24.467 14.561 24.214 14.781 C 23.961 15.001 23.636 15.122 23.3 15.12 Z M 21.14 14.33 L 10.57 14.33 C 10.504 14.33 10.44 14.304 10.393 14.257 C 10.346 14.21 10.32 14.146 10.32 14.08 C 10.32 14.014 10.346 13.95 10.393 13.903 C 10.44 13.856 10.504 13.83 10.57 13.83 L 21.15 13.83 C 21.216 13.83 21.28 13.856 21.327 13.903 C 21.374 13.95 21.4 14.014 21.4 14.08 C 21.4 14.146 21.374 14.21 21.327 14.257 C 21.28 14.304 21.216 14.33 21.15 14.33 Z M 20.27 13.35 L 9.24 13.35 C 9.213 13.342 9.189 13.326 9.172 13.303 C 9.155 13.281 9.146 13.253 9.146 13.225 C 9.146 13.197 9.155 13.169 9.172 13.147 C 9.189 13.124 9.213 13.108 9.24 13.1 L 20.18 13.1 C 20.269 12.543 20.519 12.023 20.899 11.606 C 21.279 11.188 21.773 10.891 22.32 10.75 C 22.342 10.744 22.365 10.745 22.387 10.751 C 22.409 10.758 22.428 10.771 22.443 10.789 C 22.458 10.806 22.467 10.827 22.47 10.85 C 22.473 10.882 22.465 10.913 22.446 10.939 C 22.428 10.965 22.401 10.983 22.37 10.99 C 21.86 11.133 21.402 11.423 21.054 11.822 C 20.706 12.222 20.482 12.715 20.41 13.24 C 20.403 13.269 20.386 13.295 20.363 13.313 C 20.339 13.331 20.31 13.341 20.28 13.34 Z"
        fill="#053361"/>
    <path
        id="path_22"
        d="M 10.1 8.84 L 6.85 8.44 C 6.647 8.192 6.46 7.931 6.29 7.66 C 8.366 7.398 10.457 7.274 12.55 7.29 C 13.917 7.244 15.283 7.388 16.61 7.72 C 17.21 7.92 19.18 8.92 20.06 9.38 Z"
        fill="#dedfe0"/>
    <path
        id="path_23"
        d="M 20.06 9.63 L 20.05 9.63 L 10.1 9.1 L 10.07 9.1 L 6.83 8.7 C 6.768 8.695 6.711 8.666 6.67 8.62 C 6.456 8.366 6.259 8.099 6.08 7.82 C 6.047 7.772 6.032 7.714 6.037 7.657 C 6.042 7.599 6.067 7.545 6.108 7.503 C 6.149 7.462 6.202 7.436 6.26 7.43 C 8.349 7.163 10.454 7.036 12.56 7.05 C 13.954 7.006 15.348 7.158 16.7 7.5 C 17.34 7.72 19.53 8.83 20.18 9.17 C 20.228 9.196 20.266 9.236 20.289 9.285 C 20.312 9.334 20.318 9.39 20.307 9.443 C 20.296 9.496 20.267 9.544 20.226 9.579 C 20.186 9.615 20.134 9.636 20.08 9.64 Z M 10.13 8.6 L 18.89 9.07 L 16.52 7.97 C 15.222 7.648 13.886 7.506 12.55 7.55 C 10.602 7.539 8.655 7.646 6.72 7.87 L 6.97 8.21 L 10.13 8.61 Z"
        fill="#053361"/>
    <path
        id="path_24"
        d="M 18 9.5 L 18.74 9.5 C 18.814 9.498 18.885 9.468 18.939 9.416 C 18.993 9.364 19.025 9.294 19.03 9.22 C 19.03 9.167 19.016 9.116 18.99 9.07 C 18.963 9.024 18.926 8.987 18.88 8.96 C 18.834 8.934 18.783 8.92 18.73 8.92 L 18 8.92 Z"
        fill="#053361"/>
    <path
        id="path_25"
        d="M 18.73 9.76 L 18 9.76 C 17.934 9.76 17.87 9.734 17.823 9.687 C 17.776 9.64 17.75 9.576 17.75 9.51 L 17.75 8.93 C 17.75 8.864 17.776 8.8 17.823 8.753 C 17.87 8.706 17.934 8.68 18 8.68 L 18.74 8.68 C 18.883 8.68 19.021 8.737 19.122 8.838 C 19.223 8.939 19.28 9.077 19.28 9.22 C 19.28 9.363 19.223 9.501 19.122 9.602 C 19.021 9.703 18.883 9.76 18.74 9.76 Z M 18.23 9.26 L 18.73 9.26 L 18.73 9.18 L 18.23 9.18 Z M 13.83 12.62 C 13.8 12.618 13.772 12.606 13.751 12.586 C 13.729 12.566 13.714 12.539 13.71 12.51 C 13.508 10.508 13.218 8.516 12.84 6.54 C 12.845 6.514 12.858 6.49 12.877 6.472 C 12.896 6.454 12.92 6.441 12.946 6.437 C 12.972 6.433 12.999 6.436 13.023 6.448 C 13.047 6.459 13.067 6.477 13.08 6.5 C 13.08 6.53 13.78 10.2 13.96 12.5 C 13.96 12.533 13.948 12.564 13.926 12.589 C 13.903 12.613 13.873 12.627 13.84 12.63 Z M 15.13 10 L 14.13 10 C 14.103 9.992 14.079 9.976 14.062 9.953 C 14.045 9.931 14.036 9.903 14.036 9.875 C 14.036 9.847 14.045 9.819 14.062 9.797 C 14.079 9.774 14.103 9.758 14.13 9.75 L 15.13 9.75 C 15.157 9.758 15.181 9.774 15.198 9.797 C 15.215 9.819 15.224 9.847 15.224 9.875 C 15.224 9.903 15.215 9.931 15.198 9.953 C 15.181 9.976 15.157 9.992 15.13 10 Z M 9.06 9.84 L 8.06 9.84 C 8.033 9.832 8.009 9.816 7.992 9.793 C 7.975 9.771 7.966 9.743 7.966 9.715 C 7.966 9.687 7.975 9.659 7.992 9.637 C 8.009 9.614 8.033 9.598 8.06 9.59 L 9.06 9.59 C 9.087 9.598 9.111 9.614 9.128 9.637 C 9.145 9.659 9.154 9.687 9.154 9.715 C 9.154 9.743 9.145 9.771 9.128 9.793 C 9.111 9.816 9.087 9.832 9.06 9.84 Z M 6.41 6.84 C 6.388 6.84 6.367 6.835 6.347 6.824 C 6.328 6.814 6.312 6.798 6.3 6.78 C 6.285 6.751 6.282 6.717 6.292 6.685 C 6.301 6.654 6.322 6.627 6.35 6.61 C 6.771 6.384 7.205 6.183 7.65 6.01 C 8.144 5.9 8.645 5.83 9.15 5.8 L 14.25 5.88 C 14.946 5.987 15.621 6.203 16.25 6.52 C 16.272 6.538 16.288 6.563 16.295 6.59 C 16.302 6.618 16.299 6.647 16.288 6.673 C 16.276 6.699 16.257 6.721 16.232 6.735 C 16.207 6.749 16.178 6.754 16.15 6.75 C 15.54 6.442 14.885 6.232 14.21 6.13 C 12.532 6.03 10.85 6.003 9.17 6.05 C 8.685 6.079 8.204 6.146 7.73 6.25 C 7.302 6.419 6.885 6.612 6.48 6.83 C 6.458 6.84 6.434 6.844 6.41 6.84 Z"
        fill="#053361"/>
    <path
        id="path_26"
        d="M 8.1 6.72 C 8.079 6.719 8.058 6.712 8.04 6.7 C 8.012 6.683 7.991 6.656 7.982 6.625 C 7.972 6.593 7.975 6.559 7.99 6.53 L 8.32 5.93 C 8.339 5.911 8.364 5.899 8.391 5.894 C 8.418 5.89 8.445 5.894 8.469 5.906 C 8.494 5.919 8.513 5.938 8.526 5.962 C 8.539 5.986 8.544 6.013 8.54 6.04 L 8.21 6.64 C 8.2 6.659 8.186 6.675 8.169 6.687 C 8.151 6.7 8.131 6.707 8.11 6.71 Z M 10.5 6.54 C 10.478 6.542 10.456 6.538 10.436 6.527 C 10.416 6.517 10.399 6.502 10.388 6.483 C 10.376 6.464 10.37 6.442 10.37 6.42 L 10.37 5.9 C 10.37 5.866 10.384 5.832 10.408 5.808 C 10.432 5.784 10.466 5.77 10.5 5.77 C 10.534 5.77 10.568 5.784 10.592 5.808 C 10.616 5.832 10.63 5.866 10.63 5.9 L 10.63 6.43 C 10.627 6.463 10.613 6.493 10.589 6.516 C 10.564 6.538 10.533 6.55 10.5 6.55 Z M 3.15 10.54 C 3.124 10.538 3.1 10.528 3.08 10.511 C 3.06 10.495 3.045 10.473 3.038 10.448 C 3.03 10.424 3.03 10.397 3.038 10.373 C 3.045 10.348 3.06 10.326 3.08 10.31 L 4.94 9.13 C 4.336 9.002 3.71 9.029 3.12 9.21 C 3.093 9.227 3.061 9.233 3.03 9.228 C 2.999 9.222 2.971 9.206 2.951 9.181 C 2.931 9.157 2.92 9.126 2.922 9.094 C 2.923 9.063 2.936 9.033 2.957 9.01 C 2.979 8.987 3.009 8.973 3.04 8.97 C 3.696 8.773 4.392 8.749 5.06 8.9 C 5.108 8.905 5.153 8.925 5.189 8.958 C 5.225 8.99 5.25 9.033 5.26 9.08 C 5.265 9.127 5.255 9.174 5.231 9.216 C 5.208 9.257 5.173 9.29 5.13 9.31 L 3.2 10.5 C 3.182 10.512 3.161 10.519 3.14 10.52 Z"
        fill="#053361"/>
    <path
        id="path_27"
        d="M 3.08 9.08 C 3.713 8.889 4.385 8.865 5.03 9.01 C 5.17 9.04 5.15 9.14 5.07 9.19 L 4.15 9.72 L 3.13 9.72 Z M 28.34 11.76 L 28.33 11.76 C 28.27 11.76 26.85 11.56 26.57 11.46 C 26.103 11.186 25.662 10.871 25.25 10.52 C 25.231 10.505 25.217 10.484 25.21 10.461 C 25.203 10.438 25.203 10.413 25.21 10.39 C 25.215 10.365 25.227 10.343 25.245 10.325 C 25.263 10.307 25.285 10.295 25.31 10.29 C 26.328 10.276 27.338 10.481 28.27 10.89 C 28.288 10.909 28.3 10.933 28.304 10.958 C 28.309 10.984 28.305 11.01 28.295 11.034 C 28.284 11.058 28.266 11.078 28.244 11.091 C 28.222 11.105 28.196 11.111 28.17 11.11 C 27.374 10.78 26.53 10.584 25.67 10.53 L 25.65 10.53 C 25.961 10.793 26.296 11.028 26.65 11.23 C 26.85 11.3 27.95 11.46 28.35 11.53 C 28.377 11.539 28.4 11.556 28.416 11.579 C 28.433 11.603 28.441 11.63 28.44 11.659 C 28.438 11.687 28.428 11.714 28.41 11.736 C 28.392 11.758 28.368 11.773 28.34 11.78 Z"
        fill="#053361"/>
    <path
        id="path_28"
        d="M 26.93 10.57 C 26.41 10.427 25.868 10.376 25.33 10.42 C 25.753 10.769 26.201 11.086 26.67 11.37 L 27.17 11.47 Z M 4.98 13.2 C 4.97 13.201 4.96 13.201 4.95 13.2 C 4.409 13.076 3.875 12.922 3.35 12.74 C 3.332 12.731 3.317 12.719 3.305 12.703 C 3.292 12.687 3.284 12.669 3.28 12.65 C 3.21 12.39 2.98 11.7 2.55 11.68 C 2.523 11.672 2.499 11.656 2.482 11.633 C 2.465 11.611 2.456 11.583 2.456 11.555 C 2.456 11.527 2.465 11.499 2.482 11.477 C 2.499 11.454 2.523 11.438 2.55 11.43 L 2.56 11.43 C 3.16 11.46 3.44 12.29 3.5 12.53 C 3.96 12.71 5 12.96 5 12.96 C 5.027 12.97 5.05 12.99 5.064 13.014 C 5.079 13.039 5.085 13.068 5.082 13.097 C 5.078 13.125 5.066 13.152 5.045 13.172 C 5.025 13.193 4.999 13.206 4.97 13.21 Z"
        fill="#053361"/>
    <path
        id="path_29"
        d="M 7.07 13.75 M 5.82 13.75 C 5.82 13.419 5.952 13.1 6.186 12.866 C 6.42 12.632 6.739 12.5 7.07 12.5 C 7.401 12.5 7.72 12.632 7.954 12.866 C 8.188 13.1 8.32 13.419 8.32 13.75 C 8.32 14.081 8.188 14.4 7.954 14.634 C 7.72 14.868 7.401 15 7.07 15 C 6.739 15 6.42 14.868 6.186 14.634 C 5.952 14.4 5.82 14.081 5.82 13.75"
        fill="#ffffff"/>
    <path
        id="path_30"
        d="M 5.82 13.6 C 5.795 13.6 5.77 13.593 5.749 13.58 C 5.727 13.566 5.71 13.547 5.7 13.524 C 5.69 13.501 5.686 13.475 5.69 13.45 C 5.752 13.167 5.903 12.911 6.12 12.72 C 6.147 12.698 6.181 12.687 6.215 12.689 C 6.25 12.692 6.282 12.709 6.305 12.735 C 6.327 12.762 6.338 12.796 6.336 12.831 C 6.333 12.865 6.316 12.897 6.29 12.92 C 6.112 13.077 5.989 13.287 5.94 13.52 C 5.932 13.546 5.916 13.568 5.894 13.584 C 5.873 13.6 5.847 13.609 5.82 13.61 Z M 7.05 15.13 C 6.734 15.129 6.427 15.02 6.18 14.822 C 5.933 14.625 5.76 14.349 5.69 14.04 C 5.684 14.007 5.691 13.973 5.71 13.945 C 5.728 13.917 5.757 13.897 5.79 13.89 C 5.823 13.884 5.857 13.891 5.885 13.91 C 5.913 13.928 5.933 13.957 5.94 13.99 C 5.993 14.246 6.132 14.475 6.335 14.639 C 6.538 14.804 6.791 14.893 7.052 14.892 C 7.313 14.891 7.566 14.799 7.767 14.633 C 7.968 14.466 8.105 14.236 8.156 13.98 C 8.206 13.724 8.166 13.458 8.043 13.228 C 7.919 12.998 7.72 12.818 7.479 12.718 C 7.238 12.618 6.97 12.605 6.72 12.68 C 6.699 12.688 6.676 12.691 6.654 12.686 C 6.632 12.682 6.611 12.672 6.595 12.657 C 6.578 12.641 6.566 12.622 6.56 12.6 C 6.55 12.568 6.553 12.534 6.568 12.504 C 6.583 12.474 6.609 12.451 6.64 12.44 C 6.944 12.347 7.271 12.363 7.566 12.483 C 7.86 12.604 8.104 12.823 8.255 13.102 C 8.407 13.382 8.457 13.706 8.398 14.018 C 8.338 14.331 8.173 14.613 7.929 14.818 C 7.685 15.022 7.378 15.136 7.06 15.14 Z"
        fill="#053361"/>
    <path
        id="path_31"
        d="M 20.06 9.38 L 20.8 9.72"
        fill="#dedfe0"/>
    <path
        id="path_32"
        d="M 20.8 9.97 C 20.765 9.967 20.731 9.957 20.7 9.94 L 19.96 9.61 C 19.911 9.589 19.87 9.553 19.843 9.507 C 19.816 9.462 19.805 9.409 19.81 9.356 C 19.815 9.303 19.836 9.253 19.872 9.213 C 19.907 9.174 19.954 9.146 20.005 9.135 C 20.057 9.123 20.111 9.129 20.16 9.15 L 20.91 9.49 C 20.963 9.513 21.007 9.553 21.034 9.604 C 21.06 9.655 21.069 9.714 21.057 9.771 C 21.045 9.828 21.014 9.878 20.969 9.915 C 20.924 9.951 20.868 9.97 20.81 9.97 Z"
        fill="#053361"/>
</svg>
