<svg
    xmlns="http://www.w3.org/2000/svg"
    viewBox="0 0 31 17"
    id="vector">
    <path
        id="path"
        d="M 4.4 13.9 L 1.3 13.32 C 1.02 13.26 0.56 13.02 0.65 11.17 C 0.65 11.17 1.1 10.77 1.1 10.47 C 0.953 10.01 0.907 9.523 0.966 9.043 C 1.024 8.563 1.186 8.101 1.44 7.69 C 1.901 7.068 2.402 6.476 2.94 5.92 L 2.59 5.34 L 2.95 5.24 L 12.78 5 C 17.25 5 18.88 5.5 19.24 5.6 C 20.74 6.23 22.194 6.965 23.59 7.8 C 24.488 8.356 25.487 8.73 26.53 8.9 C 27.195 9.034 27.85 9.214 28.49 9.44 C 28.999 9.779 29.379 10.279 29.57 10.86 C 29.819 11.072 30.041 11.314 30.23 11.58 L 30.13 13.44 L 30.39 13.9 C 29.474 14.092 28.545 14.212 27.61 14.26"
        fill="#ffffff"/>
    <path
        id="path_1"
        d="M 27.6 14.52 C 27.534 14.52 27.47 14.494 27.423 14.447 C 27.376 14.4 27.35 14.336 27.35 14.27 C 27.35 14.204 27.376 14.14 27.423 14.093 C 27.47 14.046 27.534 14.02 27.6 14.02 C 28.407 13.982 29.209 13.882 30 13.72 L 29.9 13.57 C 29.877 13.527 29.867 13.479 29.87 13.43 L 29.97 11.65 C 29.799 11.436 29.608 11.238 29.4 11.06 C 29.369 11.032 29.345 10.998 29.33 10.96 C 29.162 10.433 28.82 9.977 28.36 9.67 C 27.738 9.459 27.104 9.288 26.46 9.16 L 26.39 9.14 C 25.339 8.965 24.333 8.584 23.43 8.02 C 22.055 7.199 20.625 6.474 19.15 5.85 C 17.062 5.35 14.914 5.148 12.77 5.25 L 2.95 5.48 L 3.15 5.78 C 3.18 5.829 3.192 5.886 3.184 5.942 C 3.177 5.998 3.151 6.051 3.11 6.09 C 2.581 6.638 2.086 7.219 1.63 7.83 C 1.404 8.165 1.256 8.547 1.197 8.946 C 1.139 9.346 1.17 9.754 1.29 10.14 C 1.317 10.248 1.333 10.359 1.34 10.47 C 1.287 10.786 1.124 11.073 0.88 11.28 C 0.84 12.38 0.98 13 1.34 13.08 L 4.44 13.66 C 4.484 13.668 4.526 13.688 4.56 13.717 C 4.594 13.747 4.619 13.785 4.633 13.828 C 4.647 13.87 4.65 13.916 4.64 13.96 C 4.628 14.025 4.591 14.082 4.536 14.12 C 4.482 14.157 4.415 14.172 4.35 14.16 L 1.23 13.56 C 0.57 13.41 0.31 12.66 0.38 11.16 C 0.389 11.097 0.421 11.04 0.47 11 C 0.636 10.864 0.761 10.684 0.83 10.48 L 0.79 10.25 C 0.657 9.796 0.627 9.319 0.701 8.852 C 0.775 8.385 0.953 7.94 1.22 7.55 C 1.656 6.972 2.123 6.417 2.62 5.89 L 2.36 5.49 C 2.333 5.446 2.321 5.394 2.325 5.342 C 2.329 5.291 2.349 5.242 2.382 5.202 C 2.415 5.162 2.46 5.133 2.51 5.12 L 2.88 5.02 C 2.98 5.01 8.36 4.78 12.78 4.78 C 14.978 4.674 17.181 4.882 19.32 5.4 C 20.837 6.039 22.308 6.784 23.72 7.63 C 24.57 8.155 25.514 8.509 26.5 8.67 L 26.57 8.69 C 27.267 8.829 27.952 9.019 28.62 9.26 C 29.165 9.613 29.576 10.137 29.79 10.75 C 30.044 10.968 30.266 11.22 30.45 11.5 C 30.47 11.537 30.48 11.578 30.48 11.62 L 30.38 13.42 L 30.61 13.82 C 30.637 13.866 30.648 13.92 30.642 13.973 C 30.636 14.026 30.613 14.075 30.576 14.114 C 30.54 14.154 30.492 14.18 30.44 14.19 C 29.508 14.388 28.562 14.512 27.61 14.56 Z"
        fill="#053361"/>
    <path
        id="path_2"
        d="M 3.39 16.19 C 3.39 16.341 4.721 16.486 7.086 16.593 C 9.452 16.7 12.664 16.76 16.01 16.76 C 19.356 16.76 22.568 16.7 24.934 16.593 C 27.299 16.486 28.63 16.341 28.63 16.19 C 28.63 16.07 27.786 15.952 26.22 15.855 C 24.654 15.758 22.444 15.685 19.91 15.648 C 17.376 15.611 14.644 15.611 12.11 15.648 C 9.576 15.685 7.366 15.758 5.8 15.855 C 4.234 15.952 3.39 16.07 3.39 16.19 Z"
        fill="#dedfe0"/>
    <path
        id="path_3"
        d="M 6.81 13.53 M 4.4 13.53 C 4.4 13.021 4.561 12.525 4.86 12.113 C 5.159 11.702 5.581 11.395 6.065 11.238 C 6.549 11.081 7.071 11.081 7.555 11.238 C 8.039 11.395 8.461 11.702 8.76 12.113 C 9.059 12.525 9.22 13.021 9.22 13.53 C 9.22 14.169 8.966 14.782 8.514 15.234 C 8.062 15.686 7.449 15.94 6.81 15.94 C 6.171 15.94 5.558 15.686 5.106 15.234 C 4.654 14.782 4.4 14.169 4.4 13.53"
        fill="#dedfe0"/>
    <path
        id="path_4"
        d="M 6.8 16.2 C 6.095 16.2 5.418 15.92 4.919 15.421 C 4.42 14.922 4.14 14.245 4.14 13.54 C 4.14 12.835 4.42 12.158 4.919 11.659 C 5.418 11.16 6.095 10.88 6.8 10.88 C 7.505 10.88 8.182 11.16 8.681 11.659 C 9.18 12.158 9.46 12.835 9.46 13.54 C 9.46 14.245 9.18 14.922 8.681 15.421 C 8.182 15.92 7.505 16.2 6.8 16.2 Z M 6.8 11.38 C 6.227 11.38 5.678 11.608 5.273 12.013 C 4.868 12.418 4.64 12.967 4.64 13.54 C 4.64 14.113 4.868 14.662 5.273 15.067 C 5.678 15.472 6.227 15.7 6.8 15.7 C 7.373 15.7 7.922 15.472 8.327 15.067 C 8.732 14.662 8.96 14.113 8.96 13.54 C 8.957 12.968 8.729 12.42 8.324 12.016 C 7.92 11.611 7.372 11.383 6.8 11.38 Z"
        fill="#053361"/>
    <path
        id="path_5"
        d="M 6.81 13.53 M 5.43 13.53 C 5.43 13.164 5.575 12.813 5.834 12.554 C 6.093 12.295 6.444 12.15 6.81 12.15 C 7.176 12.15 7.527 12.295 7.786 12.554 C 8.045 12.813 8.19 13.164 8.19 13.53 C 8.19 13.896 8.045 14.247 7.786 14.506 C 7.527 14.765 7.176 14.91 6.81 14.91 C 6.444 14.91 6.093 14.765 5.834 14.506 C 5.575 14.247 5.43 13.896 5.43 13.53"
        fill="#ffffff"/>
    <path
        id="path_6"
        d="M 25.32 13.53 M 22.91 13.53 C 22.91 12.891 23.164 12.278 23.616 11.826 C 24.068 11.374 24.681 11.12 25.32 11.12 C 25.959 11.12 26.572 11.374 27.024 11.826 C 27.476 12.278 27.73 12.891 27.73 13.53 C 27.73 14.169 27.476 14.782 27.024 15.234 C 26.572 15.686 25.959 15.94 25.32 15.94 C 24.681 15.94 24.068 15.686 23.616 15.234 C 23.164 14.782 22.91 14.169 22.91 13.53"
        fill="#dedfe0"/>
    <path
        id="path_7"
        d="M 25.32 16.2 C 24.615 16.2 23.938 15.92 23.439 15.421 C 22.94 14.922 22.66 14.245 22.66 13.54 C 22.66 12.835 22.94 12.158 23.439 11.659 C 23.938 11.16 24.615 10.88 25.32 10.88 C 26.025 10.88 26.702 11.16 27.201 11.659 C 27.7 12.158 27.98 12.835 27.98 13.54 C 27.977 14.244 27.696 14.92 27.198 15.418 C 26.7 15.916 26.024 16.197 25.32 16.2 Z M 25.32 11.38 C 24.747 11.38 24.198 11.608 23.793 12.013 C 23.388 12.418 23.16 12.967 23.16 13.54 C 23.16 14.113 23.388 14.662 23.793 15.067 C 24.198 15.472 24.747 15.7 25.32 15.7 C 25.893 15.7 26.442 15.472 26.847 15.067 C 27.252 14.662 27.48 14.113 27.48 13.54 C 27.477 12.968 27.249 12.42 26.844 12.016 C 26.44 11.611 25.892 11.383 25.32 11.38 Z"
        fill="#053361"/>
    <path
        id="path_8"
        d="M 25.32 13.53 M 23.94 13.53 C 23.939 13.238 24.031 12.953 24.202 12.717 C 24.373 12.48 24.615 12.304 24.893 12.213 C 25.17 12.123 25.47 12.123 25.747 12.213 C 26.025 12.304 26.267 12.48 26.438 12.717 C 26.609 12.953 26.701 13.238 26.7 13.53 C 26.7 13.896 26.555 14.247 26.296 14.506 C 26.037 14.765 25.686 14.91 25.32 14.91 C 24.954 14.91 24.603 14.765 24.344 14.506 C 24.085 14.247 23.94 13.896 23.94 13.53"
        fill="#ffffff"/>
    <path
        id="path_9"
        d="M 25.32 15.03 C 24.935 15.031 24.563 14.884 24.283 14.618 C 24.004 14.353 23.837 13.99 23.817 13.605 C 23.798 13.22 23.928 12.842 24.18 12.55 C 24.403 12.291 24.708 12.115 25.044 12.051 C 25.38 11.988 25.728 12.04 26.03 12.2 C 26.05 12.211 26.068 12.228 26.08 12.248 C 26.091 12.268 26.098 12.29 26.098 12.314 C 26.098 12.337 26.092 12.36 26.08 12.38 C 26.063 12.408 26.036 12.429 26.005 12.438 C 25.973 12.448 25.939 12.445 25.91 12.43 C 25.654 12.29 25.357 12.244 25.07 12.299 C 24.783 12.353 24.524 12.506 24.338 12.73 C 24.151 12.955 24.048 13.237 24.047 13.529 C 24.045 13.821 24.145 14.105 24.329 14.331 C 24.513 14.558 24.77 14.713 25.057 14.771 C 25.343 14.829 25.64 14.786 25.898 14.649 C 26.156 14.512 26.358 14.289 26.47 14.02 C 26.483 13.991 26.507 13.967 26.536 13.954 C 26.566 13.941 26.599 13.94 26.63 13.95 C 26.662 13.963 26.687 13.989 26.7 14.021 C 26.713 14.052 26.713 14.088 26.7 14.12 C 26.583 14.388 26.39 14.617 26.145 14.776 C 25.899 14.936 25.613 15.021 25.32 15.02 Z M 7.28 14.95 C 7.251 14.948 7.223 14.936 7.201 14.916 C 7.18 14.896 7.165 14.87 7.161 14.841 C 7.156 14.812 7.162 14.782 7.176 14.757 C 7.19 14.731 7.213 14.711 7.24 14.7 C 7.532 14.593 7.774 14.381 7.918 14.105 C 8.062 13.829 8.098 13.51 8.019 13.209 C 7.94 12.908 7.751 12.647 7.49 12.478 C 7.229 12.309 6.914 12.243 6.607 12.293 C 6.301 12.343 6.023 12.506 5.83 12.75 C 5.807 12.767 5.78 12.776 5.752 12.776 C 5.724 12.777 5.696 12.767 5.673 12.75 C 5.651 12.733 5.634 12.71 5.627 12.682 C 5.619 12.655 5.62 12.626 5.63 12.6 C 5.862 12.309 6.194 12.115 6.561 12.055 C 6.929 11.996 7.305 12.075 7.617 12.277 C 7.93 12.479 8.156 12.79 8.252 13.15 C 8.347 13.509 8.306 13.892 8.136 14.222 C 7.966 14.553 7.678 14.809 7.33 14.94 C 7.314 14.944 7.296 14.944 7.28 14.94 Z M 6.75 15.03 C 6.53 15.021 6.315 14.963 6.12 14.86 C 5.817 14.7 5.578 14.441 5.442 14.126 C 5.306 13.812 5.28 13.461 5.37 13.13 C 5.375 13.109 5.385 13.089 5.4 13.073 C 5.415 13.057 5.434 13.046 5.455 13.04 C 5.477 13.034 5.499 13.034 5.52 13.04 C 5.542 13.046 5.561 13.058 5.577 13.075 C 5.592 13.091 5.602 13.112 5.606 13.134 C 5.611 13.156 5.608 13.179 5.6 13.2 C 5.526 13.476 5.549 13.769 5.663 14.03 C 5.777 14.292 5.977 14.507 6.23 14.64 C 6.391 14.724 6.569 14.772 6.75 14.78 C 6.777 14.788 6.801 14.804 6.818 14.827 C 6.835 14.849 6.844 14.877 6.844 14.905 C 6.844 14.933 6.835 14.961 6.818 14.983 C 6.801 15.006 6.777 15.022 6.75 15.03 Z M 26.7 13.63 C 26.667 13.63 26.636 13.618 26.611 13.596 C 26.587 13.573 26.573 13.543 26.57 13.51 C 26.566 13.246 26.479 12.991 26.32 12.78 C 26.31 12.754 26.309 12.725 26.317 12.698 C 26.324 12.67 26.341 12.647 26.363 12.63 C 26.386 12.613 26.414 12.603 26.442 12.604 C 26.47 12.604 26.497 12.613 26.52 12.63 C 26.709 12.881 26.814 13.186 26.82 13.5 C 26.822 13.522 26.818 13.544 26.807 13.564 C 26.797 13.584 26.782 13.601 26.763 13.612 C 26.744 13.624 26.722 13.63 26.7 13.63 Z M 22.96 14.29 L 10.3 14.29 C 10.234 14.29 10.17 14.264 10.123 14.217 C 10.076 14.17 10.05 14.106 10.05 14.04 C 10.05 13.974 10.076 13.91 10.123 13.863 C 10.17 13.816 10.234 13.79 10.3 13.79 L 22.97 13.79 C 23.036 13.79 23.1 13.816 23.147 13.863 C 23.194 13.91 23.22 13.974 23.22 14.04 C 23.22 14.106 23.194 14.17 23.147 14.217 C 23.1 14.264 23.036 14.29 22.97 14.29 Z M 4.33 5.26 L 4.16 5.06 L 4.58 4.71 C 4.794 4.558 5.048 4.472 5.31 4.46 C 5.98 4.41 12.33 4.32 13.26 4.46 C 13.841 4.554 14.411 4.708 14.96 4.92 C 14.991 4.931 15.017 4.954 15.032 4.984 C 15.047 5.014 15.05 5.048 15.04 5.08 C 15.027 5.109 15.003 5.133 14.974 5.146 C 14.944 5.159 14.911 5.16 14.88 5.15 C 14.343 4.947 13.787 4.8 13.22 4.71 C 12.32 4.56 5.99 4.66 5.32 4.71 C 5.113 4.72 4.913 4.786 4.74 4.9 Z"
        fill="#053361"/>
    <path
        id="path_10"
        d="M 5.58 5.3 C 5.547 5.302 5.515 5.291 5.49 5.27 C 5.467 5.246 5.454 5.214 5.454 5.18 C 5.454 5.146 5.467 5.114 5.49 5.09 C 5.79 4.749 6.194 4.517 6.64 4.43 C 6.667 4.438 6.691 4.454 6.708 4.477 C 6.725 4.499 6.734 4.527 6.734 4.555 C 6.734 4.583 6.725 4.611 6.708 4.633 C 6.691 4.656 6.667 4.672 6.64 4.68 C 6.19 4.69 5.67 5.25 5.66 5.26 C 5.639 5.282 5.611 5.297 5.58 5.3 Z M 12.88 5.14 C 12.856 5.138 12.833 5.13 12.814 5.116 C 12.794 5.101 12.779 5.082 12.77 5.06 C 12.674 4.898 12.54 4.76 12.38 4.66 C 12.365 4.638 12.357 4.612 12.357 4.586 C 12.357 4.559 12.365 4.533 12.38 4.511 C 12.395 4.489 12.417 4.473 12.442 4.464 C 12.467 4.454 12.494 4.453 12.52 4.46 C 12.721 4.587 12.886 4.762 13 4.97 C 13.008 4.996 13.008 5.023 13 5.049 C 12.992 5.075 12.976 5.098 12.955 5.114 C 12.933 5.13 12.907 5.139 12.88 5.14 Z M 2.7 9.68 L 0.92 9.68 C 0.893 9.672 0.869 9.656 0.852 9.633 C 0.835 9.611 0.826 9.583 0.826 9.555 C 0.826 9.527 0.835 9.499 0.852 9.477 C 0.869 9.454 0.893 9.438 0.92 9.43 L 2.64 9.43 L 3.11 8.95 C 3.16 8.89 3.16 8.85 3.16 8.85 C 3.108 8.836 3.054 8.83 3 8.83 L 1.84 8.83 C 1.34 8.83 1.04 8.26 1.02 8.23 C 1.013 8.201 1.016 8.17 1.028 8.143 C 1.041 8.116 1.063 8.094 1.09 8.081 C 1.117 8.068 1.148 8.065 1.177 8.072 C 1.206 8.079 1.232 8.096 1.25 8.12 C 1.25 8.12 1.5 8.59 1.85 8.59 L 3 8.59 C 3.05 8.59 3.3 8.59 3.4 8.77 C 3.419 8.83 3.419 8.895 3.401 8.955 C 3.384 9.016 3.348 9.069 3.3 9.11 C 3.08 9.36 2.78 9.64 2.77 9.65 C 2.747 9.669 2.719 9.679 2.69 9.68 Z M 2.7 9.55 Z"
        fill="#053361"/>
    <path
        id="path_11"
        d="M 0.92 9.55 L 2.7 9.55 L 3.1 9.15 L 0.92 9.15 Z M 29.57 11.12 C 29.554 11.124 29.536 11.124 29.52 11.12 L 27.62 10.27 L 27.59 10.26 L 26.91 9.71 C 26.888 9.693 26.872 9.669 26.865 9.642 C 26.858 9.615 26.86 9.586 26.87 9.56 C 26.884 9.536 26.904 9.516 26.929 9.504 C 26.954 9.491 26.982 9.486 27.01 9.49 L 29.07 9.82 C 29.102 9.816 29.134 9.823 29.16 9.841 C 29.187 9.859 29.206 9.886 29.213 9.917 C 29.221 9.948 29.217 9.981 29.202 10.009 C 29.187 10.038 29.163 10.059 29.133 10.071 C 29.103 10.082 29.07 10.082 29.04 10.07 L 27.44 9.81 L 27.74 10.05 L 29.64 10.88 C 29.661 10.888 29.679 10.903 29.693 10.921 C 29.706 10.94 29.714 10.962 29.715 10.985 C 29.716 11.007 29.711 11.03 29.7 11.05 C 29.689 11.072 29.671 11.09 29.65 11.102 C 29.629 11.115 29.605 11.121 29.58 11.12 Z"
        fill="#053361"/>
    <path
        id="path_28"
        d="M 28.28 10.43 L 27.66 10.16 L 26.98 9.61 L 27.91 9.76 L 28.28 10.43 Z"
        fill="#053361"/>
    <path
        id="path_29"
        d="M 22.44 8.87 L 3.5 8.03 C 3.24 8.03 3.08 7.55 3.16 7.31 C 3.444 6.836 3.81 6.417 4.24 6.07 L 5.21 5.97 L 12.77 5.83 C 17.24 5.83 18.87 6.33 19.23 6.43 C 20.651 7.041 22.005 7.799 23.27 8.69 Z"
        fill="#dedfe0"/>
    <path
        id="path_30"
        d="M 22.44 9.12 L 22.43 9.12 L 3.5 8.28 C 3.416 8.276 3.334 8.252 3.261 8.211 C 3.188 8.169 3.126 8.11 3.08 8.04 C 2.999 7.925 2.942 7.795 2.915 7.657 C 2.887 7.519 2.889 7.377 2.92 7.24 C 3.208 6.714 3.599 6.251 4.07 5.88 C 4.109 5.846 4.158 5.825 4.21 5.82 L 5.21 5.72 L 12.78 5.58 C 14.978 5.473 17.181 5.682 19.32 6.2 C 20.77 6.821 22.151 7.592 23.44 8.5 C 23.48 8.529 23.511 8.57 23.528 8.616 C 23.545 8.663 23.548 8.714 23.536 8.762 C 23.525 8.81 23.499 8.854 23.462 8.888 C 23.425 8.921 23.379 8.943 23.33 8.95 L 22.49 9.12 C 22.473 9.122 22.457 9.122 22.44 9.12 Z M 3.54 7.8 C 3.84 7.8 21.31 8.58 22.42 8.63 L 22.67 8.58 C 21.556 7.855 20.385 7.219 19.17 6.68 C 17.079 6.178 14.928 5.976 12.78 6.08 C 10.55 6.08 7.34 6.1 5.24 6.24 C 5.04 6.24 4.54 6.3 4.34 6.32 C 3.956 6.623 3.634 6.996 3.39 7.42 C 3.386 7.487 3.395 7.555 3.417 7.618 C 3.44 7.682 3.475 7.74 3.52 7.79 Z M 17.52 9.48 L 16.52 9.48 C 16.493 9.472 16.469 9.456 16.452 9.433 C 16.435 9.411 16.426 9.383 16.426 9.355 C 16.426 9.327 16.435 9.299 16.452 9.277 C 16.469 9.254 16.493 9.238 16.52 9.23 L 17.52 9.23 C 17.547 9.238 17.571 9.254 17.588 9.277 C 17.605 9.299 17.614 9.327 17.614 9.355 C 17.614 9.383 17.605 9.411 17.588 9.433 C 17.571 9.456 17.547 9.472 17.52 9.48 Z M 15.22 9.48 L 14.22 9.48 C 14.193 9.472 14.169 9.456 14.152 9.433 C 14.135 9.411 14.126 9.383 14.126 9.355 C 14.126 9.327 14.135 9.299 14.152 9.277 C 14.169 9.254 14.193 9.238 14.22 9.23 L 15.24 9.23 C 15.267 9.238 15.291 9.254 15.308 9.277 C 15.325 9.299 15.334 9.327 15.334 9.355 C 15.334 9.383 15.325 9.411 15.308 9.433 C 15.291 9.456 15.267 9.472 15.24 9.48 Z"
        fill="#053361"/>
    <path
        id="path_31"
        d="M 15.9 12.28 C 15.867 12.277 15.837 12.263 15.814 12.239 C 15.792 12.214 15.78 12.183 15.78 12.15 L 15.78 5.15 C 15.788 5.123 15.804 5.099 15.827 5.082 C 15.849 5.065 15.877 5.056 15.905 5.056 C 15.933 5.056 15.961 5.065 15.983 5.082 C 16.006 5.099 16.022 5.123 16.03 5.15 L 16.03 12.15 C 16.032 12.172 16.028 12.194 16.017 12.214 C 16.007 12.234 15.992 12.251 15.973 12.262 C 15.954 12.274 15.932 12.28 15.91 12.28 Z M 21.82 9.1 L 22.56 9.1 C 22.638 9.097 22.712 9.065 22.766 9.009 C 22.82 8.953 22.85 8.878 22.85 8.8 C 22.845 8.724 22.811 8.653 22.755 8.601 C 22.7 8.549 22.626 8.52 22.55 8.52 L 21.82 8.52 Z"
        fill="#053361"/>
    <path
        id="path_32"
        d="M 22.56 9.35 L 21.82 9.35 C 21.754 9.35 21.69 9.324 21.643 9.277 C 21.596 9.23 21.57 9.166 21.57 9.1 L 21.57 8.5 C 21.57 8.434 21.596 8.37 21.643 8.323 C 21.69 8.276 21.754 8.25 21.82 8.25 L 22.56 8.25 C 22.675 8.25 22.788 8.286 22.881 8.353 C 22.975 8.421 23.044 8.517 23.08 8.626 C 23.116 8.736 23.116 8.854 23.08 8.964 C 23.044 9.073 22.975 9.169 22.881 9.237 C 22.788 9.304 22.675 9.34 22.56 9.34 Z M 22.06 8.85 L 22.56 8.85 L 22.56 8.75 L 22.06 8.75 Z M 22.94 13.29 L 10 13.29 C 9.972 13.289 9.945 13.278 9.923 13.26 C 9.902 13.242 9.886 13.217 9.88 13.19 C 9.788 12.663 9.577 12.164 9.264 11.731 C 8.95 11.298 8.542 10.942 8.07 10.69 C 8.041 10.677 8.017 10.653 8.004 10.624 C 7.991 10.594 7.99 10.561 8 10.53 C 8.007 10.509 8.02 10.491 8.037 10.477 C 8.054 10.464 8.075 10.455 8.096 10.452 C 8.118 10.449 8.14 10.451 8.16 10.46 C 8.661 10.71 9.098 11.073 9.434 11.521 C 9.771 11.969 9.999 12.489 10.1 13.04 L 22.94 13.04 C 22.967 13.048 22.991 13.064 23.008 13.087 C 23.025 13.109 23.034 13.137 23.034 13.165 C 23.034 13.193 23.025 13.221 23.008 13.243 C 22.991 13.266 22.967 13.282 22.94 13.29 Z M 7.6 10.54 C 7.59 10.541 7.58 10.541 7.57 10.54 C 7.406 10.496 7.239 10.47 7.07 10.46 C 7.043 10.452 7.019 10.436 7.002 10.413 C 6.985 10.391 6.976 10.363 6.976 10.335 C 6.976 10.307 6.985 10.279 7.002 10.257 C 7.019 10.234 7.043 10.218 7.07 10.21 C 7.259 10.217 7.447 10.244 7.63 10.29 C 7.657 10.3 7.68 10.32 7.694 10.344 C 7.709 10.369 7.715 10.398 7.712 10.427 C 7.708 10.455 7.696 10.482 7.675 10.502 C 7.655 10.523 7.629 10.536 7.6 10.54 Z M 8.38 8.37 C 8.367 8.372 8.353 8.372 8.34 8.37 C 8.318 8.364 8.299 8.352 8.283 8.335 C 8.268 8.319 8.258 8.298 8.254 8.276 C 8.249 8.254 8.252 8.231 8.26 8.21 L 9 5.8 C 9.011 5.771 9.033 5.747 9.06 5.732 C 9.088 5.717 9.12 5.713 9.15 5.72 C 9.173 5.724 9.194 5.735 9.211 5.752 C 9.228 5.768 9.24 5.789 9.245 5.811 C 9.25 5.834 9.248 5.858 9.24 5.88 L 8.49 8.28 C 8.482 8.306 8.466 8.328 8.444 8.344 C 8.423 8.36 8.397 8.369 8.37 8.37 Z M 3.6 12 L 3.6 12 C 2.54 11.82 0.63 11.3 0.6 11.3 C 0.569 11.289 0.542 11.267 0.527 11.238 C 0.511 11.208 0.508 11.174 0.517 11.142 C 0.526 11.11 0.546 11.082 0.575 11.065 C 0.604 11.048 0.638 11.043 0.67 11.05 C 0.69 11.05 2.57 11.58 3.63 11.75 C 3.653 11.762 3.672 11.78 3.685 11.803 C 3.697 11.825 3.703 11.851 3.701 11.877 C 3.699 11.902 3.689 11.927 3.673 11.947 C 3.656 11.967 3.635 11.982 3.61 11.99 Z"
        fill="#053361"/>
</svg>
