<svg id="_045-facebook" data-name="045-facebook" xmlns="http://www.w3.org/2000/svg" width="66.091" height="66.091" viewBox="0 0 66.091 66.091">
  <path id="Path_5" data-name="Path 5" d="M57.829,0H8.261A8.27,8.27,0,0,0,0,8.261V57.829a8.27,8.27,0,0,0,8.261,8.261H57.829a8.27,8.27,0,0,0,8.261-8.261V8.261A8.27,8.27,0,0,0,57.829,0Z" fill="#2f73ba"/>
  <path id="Path_6" data-name="Path 6" d="M222.98,116.653H212.653v-8.261c0-2.28,1.851-2.065,4.131-2.065h4.131V96h-8.261a12.391,12.391,0,0,0-12.392,12.392v8.261H192V126.98h8.261V149.7h12.392V126.98h6.2Z" transform="translate(-167.216 -83.608)" fill="#fff"/>
</svg>
