<svg id="_034-instagram" data-name="034-instagram" xmlns="http://www.w3.org/2000/svg" width="66.091" height="66.091" viewBox="0 0 66.091 66.091">
  <path id="Path_3" data-name="Path 3" d="M45.437,0H20.653A20.656,20.656,0,0,0,0,20.653V45.437A20.656,20.656,0,0,0,20.653,66.091H45.437A20.656,20.656,0,0,0,66.091,45.437V20.653A20.656,20.656,0,0,0,45.437,0ZM59.895,45.437A14.473,14.473,0,0,1,45.437,59.895H20.653A14.473,14.473,0,0,1,6.2,45.437V20.653A14.473,14.473,0,0,1,20.653,6.2H45.437A14.473,14.473,0,0,1,59.895,20.653Z" fill="#2f73ba"/>
  <path id="Path_4" data-name="Path 4" d="M144.523,128a16.523,16.523,0,1,0,16.523,16.523A16.523,16.523,0,0,0,144.523,128Zm0,26.849a10.327,10.327,0,1,1,10.327-10.327A10.341,10.341,0,0,1,144.523,154.849Z" transform="translate(-111.477 -111.477)" fill="#2f73ba"/>
  <circle id="Ellipse_1" data-name="Ellipse 1" cx="2.202" cy="2.202" r="2.202" transform="translate(48.606 13.082)" fill="#2f73ba"/>
</svg>
