<svg id="_021-snapchat" data-name="021-snapchat" xmlns="http://www.w3.org/2000/svg" width="70.494" height="66.091" viewBox="0 0 70.494 66.091">
  <path id="_021-snapchat-2" data-name="021-snapchat" d="M69.112,65.34c-9.425-1.551-13.672-11.2-13.844-11.614a.668.668,0,0,0-.04-.079,2.913,2.913,0,0,1-.33-2.4c.516-1.207,2.489-1.833,3.794-2.247.379-.119.736-.234,1.031-.348a7.978,7.978,0,0,0,2.811-1.679,2.67,2.67,0,0,0,.855-1.921,3.023,3.023,0,0,0-2.265-2.622,4.093,4.093,0,0,0-1.533-.291,3.414,3.414,0,0,0-1.428.291,8.012,8.012,0,0,1-2.939.837,2.7,2.7,0,0,1-.974-.211c.026-.441.053-.894.084-1.361l.013-.2c.3-4.772.679-10.707-.9-14.232a19.144,19.144,0,0,0-4.314-6.173,18.038,18.038,0,0,0-5.159-3.4,20.386,20.386,0,0,0-8.05-1.7h-.176L34.537,16a20.464,20.464,0,0,0-8.059,1.7,17.938,17.938,0,0,0-5.142,3.4,19.206,19.206,0,0,0-4.3,6.16c-1.577,3.52-1.2,9.455-.9,14.223v.009c.031.511.066,1.044.1,1.564a2.824,2.824,0,0,1-1.154.216,7.644,7.644,0,0,1-3.142-.842,2.822,2.822,0,0,0-1.194-.247,4.221,4.221,0,0,0-2.11.59A2.92,2.92,0,0,0,7.141,44.68a2.632,2.632,0,0,0,1,2.472,8.664,8.664,0,0,0,2.626,1.5c.3.119.657.229,1.031.348,1.3.414,3.283,1.04,3.8,2.247a2.935,2.935,0,0,1-.335,2.4.624.624,0,0,0-.035.079,23.331,23.331,0,0,1-3.551,5.49A19.926,19.926,0,0,1,7.4,63a15.76,15.76,0,0,1-6.014,2.34A1.646,1.646,0,0,0,0,67.054a2.088,2.088,0,0,0,.172.718v0a4.4,4.4,0,0,0,2.388,2.04,27.271,27.271,0,0,0,6.9,1.793,8.365,8.365,0,0,1,.423,1.516c.115.529.234,1.075.405,1.652a1.806,1.806,0,0,0,1.89,1.375,9.2,9.2,0,0,0,1.621-.225,18.438,18.438,0,0,1,3.7-.419,16.064,16.064,0,0,1,2.644.225c1.727.286,3.216,1.335,4.939,2.551,2.52,1.78,5.375,3.794,9.737,3.794q.178,0,.357-.013c.141.009.322.013.507.013,4.362,0,7.217-2.014,9.737-3.789l0,0c1.723-1.212,3.212-2.26,4.939-2.547A16.064,16.064,0,0,1,53,75.514a18.526,18.526,0,0,1,3.7.392,8.933,8.933,0,0,0,1.621.2H58.4a1.785,1.785,0,0,0,1.811-1.353c.167-.568.286-1.1.405-1.639a8.655,8.655,0,0,1,.419-1.507,27.461,27.461,0,0,0,6.9-1.793,4.421,4.421,0,0,0,2.384-2.036,2.094,2.094,0,0,0,.176-.727A1.64,1.64,0,0,0,69.112,65.34Z" transform="translate(0 -15.988)" fill="#2f73ba"/>
</svg>
