<svg xmlns="http://www.w3.org/2000/svg" width="64.799" height="73.754" viewBox="0 0 64.799 73.754">
  <g id="tik-tok" transform="translate(-31.423 -0.39)">
    <path id="Path_14" data-name="Path 14" d="M96.187,18.857A18.583,18.583,0,0,1,84.958,15.1,18.626,18.626,0,0,1,77.893,3.876,18.725,18.725,0,0,1,77.535.39H65.493V33.3L65.478,51.32A10.917,10.917,0,1,1,57.99,40.977V28.75a23.7,23.7,0,0,0-3.473-.257,23.092,23.092,0,0,0-17.352,7.76,22.63,22.63,0,0,0,1.021,31.2,23.494,23.494,0,0,0,2.176,1.9,23.094,23.094,0,0,0,14.155,4.786,23.7,23.7,0,0,0,3.473-.255,23.016,23.016,0,0,0,12.858-6.43,22.546,22.546,0,0,0,6.764-16.045L77.549,24.5a30.422,30.422,0,0,0,6.764,3.944,30.441,30.441,0,0,0,11.908,2.4V18.854S96.19,18.857,96.187,18.857Z" transform="translate(0)" fill="#2f73ba"/>
  </g>
</svg>
