<svg id="_013-twitter-1" data-name="013-twitter-1" xmlns="http://www.w3.org/2000/svg" width="81.342" height="66.091" viewBox="0 0 81.342 66.091">
  <path id="_013-twitter-1-2" data-name="013-twitter-1" d="M81.342,55.824a34.768,34.768,0,0,1-9.609,2.633A16.582,16.582,0,0,0,79.07,49.24,33.326,33.326,0,0,1,68.5,53.277a16.675,16.675,0,0,0-28.846,11.4,17.171,17.171,0,0,0,.386,3.8A47.2,47.2,0,0,1,5.663,51.04a16.68,16.68,0,0,0,5.125,22.288,16.469,16.469,0,0,1-7.534-2.054v.183A16.753,16.753,0,0,0,16.614,87.843a16.644,16.644,0,0,1-4.372.549,14.745,14.745,0,0,1-3.157-.285A16.835,16.835,0,0,0,24.667,99.724a33.507,33.507,0,0,1-20.676,7.112A31.234,31.234,0,0,1,0,106.607a46.947,46.947,0,0,0,25.582,7.484c30.686,0,47.463-25.42,47.463-47.453,0-.737-.025-1.449-.061-2.156A33.268,33.268,0,0,0,81.342,55.824Z" transform="translate(0 -48)" fill="#2f73ba"/>
</svg>
