<svg id="_002-youtube" data-name="002-youtube" xmlns="http://www.w3.org/2000/svg" width="82.909" height="57" viewBox="0 0 82.909 57">
  <path id="Path_1" data-name="Path 1" d="M79.385,85.493c-2.249-4-4.69-4.736-9.659-5.016C64.762,80.14,52.279,80,41.465,80c-10.835,0-23.323.14-28.282.472-4.959.285-7.4,1.016-9.674,5.021C1.192,89.488,0,96.369,0,108.484v.041c0,12.063,1.192,19,3.508,22.95,2.27,4,4.71,4.726,9.669,5.063,4.964.29,17.452.461,28.288.461,10.814,0,23.3-.171,28.267-.456,4.969-.337,7.41-1.062,9.659-5.063,2.337-3.954,3.518-10.887,3.518-22.95v-.041C82.909,96.369,81.728,89.488,79.385,85.493Z" transform="translate(0 -80)" fill="#2f73ba"/>
  <path id="Path_2" data-name="Path 2" d="M192,191.091V160l25.909,15.545Z" transform="translate(-160.909 -147.045)" fill="#fafafa"/>
</svg>
